<svg width="192px" height="128px" viewBox="92 61 192 128" version="1.1" xmlns="http://www.w3.org/2000/svg" xmlns:xlink="http://www.w3.org/1999/xlink">
    <!-- Generator: Sketch 40.3 (33839) - http://www.bohemiancoding.com/sketch -->
    <desc>Created with Sketch.</desc>
    <defs></defs>
    <g id="Page-1" stroke="none" stroke-width="1" fill="none" fill-rule="evenodd" transform="translate(92.250000, 61.680398)">
        <polygon id="Fill-1" fill="#FB7A54" points="158.028409 126.639205 174.264205 126.639205 174.264205 0 158.028409 0"></polygon>
        <polygon id="Fill-2" fill="#F99A1C" points="0 126.639205 158.028409 126.639205 158.028409 0 0 0"></polygon>
        <polygon id="Fill-3" fill="#FFFFFF" points="16.2357955 111.485795 142.875 111.485795 142.875 16.2357955 16.2357955 16.2357955"></polygon>
        <g id="Group-30" transform="translate(84.426136, 28.142045)">
            <path d="M14.0179079,14.1611385 C11.2337937,14.0020482 9.10625502,11.6187968 9.26640491,8.83820747 C9.4265548,6.05723015 11.8136064,3.93162755 14.5977206,4.0903299 C17.3818348,4.24942027 19.5093734,6.63267167 19.3492235,9.41364899 C19.1890737,12.1946263 16.8020221,14.3202289 14.0179079,14.1611385" id="Fill-4" fill="#FB7A54"></path>
            <path d="M9.64593286,20.4831572 C6.86181866,20.3240668 4.73428002,17.9408154 4.89442991,15.1602261 C5.0545798,12.3792488 7.44163139,10.2536462 10.2257456,10.4123485 C13.0098598,10.5714389 15.1370088,12.9546903 14.9772485,15.7356676 C14.8170987,18.5166449 12.4300471,20.6422475 9.64593286,20.4831572" id="Fill-6" fill="#FB7A54"></path>
            <path d="M8.19414102,10.2965618 C5.41002682,10.1374714 3.28248818,7.75421999 3.44263807,4.97363069 C3.60278795,2.19265337 5.98983955,0.0670507719 8.77395375,0.22575312 C11.558068,0.384843493 13.6856066,2.76809489 13.5254567,5.54907221 C13.3653068,8.33004954 10.9782552,10.4556521 8.19414102,10.2965618" id="Fill-8" fill="#FB7A54"></path>
            <path d="M4.86286752,15.7099027 C2.07875332,15.5508123 -0.0487853182,13.167561 0.111364568,10.3869717 C0.271514455,7.60599433 2.65856605,5.48039173 5.44268025,5.63909408 C8.22679445,5.79818446 10.3539434,8.18143585 10.1941832,10.9624132 C10.0340333,13.7433905 7.64698173,15.8689931 4.86286752,15.7099027" id="Fill-10" fill="#FB7A54"></path>
            <path d="M9.68774328,7.36444858 C11.0211567,7.44050154 12.0401152,8.57896777 11.963742,9.90679035 C11.8873689,11.2346129 10.7444987,12.2492991 9.41108533,12.1732461 C8.57955283,12.125907 8.51175215,11.6695893 7.38758567,10.4139394 C6.92077408,9.89243341 6.95194681,9.34686984 7.47564863,8.88201553 C8.88504556,7.63063394 8.85621078,7.31710949 9.68774328,7.36444858" id="Fill-12" fill="#404041"></path>
            <path d="M11.7345446,6.66945646 C13.4798276,7.43503038 14.1582241,9.35265142 13.3598126,11.0591867 C13.3064293,11.1728781 13.9910604,11.1732661 14.0709405,11.002923 C14.9145524,9.19976945 14.161731,7.2588669 12.3459197,6.46225095 C12.1951216,6.39628665 11.5455599,6.58680708 11.7345446,6.66945646" id="Fill-14" fill="#F15D4B"></path>
            <path d="M12.1035517,10.5131187 C12.0119818,11.9484243 9.84313933,13.6801812 8.47309797,12.573921 C8.13954978,12.3042435 7.96147558,12.5036885 8.30164797,12.7784104 C9.87314308,14.0476411 12.5617908,13.0003609 12.6950542,10.9127847 C12.707913,10.7059673 12.1144622,10.3435516 12.1035517,10.5131187" id="Fill-16" fill="#F15D4B"></path>
            <path d="M12.9292004,12.9628776 C11.3541983,14.4509546 8.62463639,15.7384226 6.71530684,14.0439161 C6.55671559,13.9030629 6.14172866,13.8619322 6.05327605,13.7835511 C8.35655093,15.8276684 11.4773306,15.2650317 13.6068175,13.2531205 C13.5795414,13.2787302 13.035967,12.861991 12.9292004,12.9628776" id="Fill-18" fill="#F15D4B"></path>
            <path d="M7.94113538,13.3376712 C6.50056572,12.5007007 5.44030333,10.4422265 6.02479197,8.82881726 C6.10428242,8.60880691 5.38107515,8.58009304 5.31132617,8.77332964 C4.68826128,10.4942218 5.76878594,12.6151681 7.30988765,13.5103425 C7.48016867,13.609289 8.16986526,13.4703759 7.94113538,13.3376712" id="Fill-20" fill="#F15D4B"></path>
            <path d="M4.89361162,7.78786179 C4.89439094,7.77971326 4.8947806,7.77156472 4.89555992,7.76341619 C4.91075662,7.57522392 4.69137856,7.49451466 4.5452564,7.47278524 C3.36303072,7.29856188 3.09533492,9.71634753 3.13040424,10.4535956 C3.20015322,11.9195552 3.87036685,13.2415574 4.96842617,14.2073524 C5.22754947,14.4347352 5.85606958,14.1654456 5.51355924,13.86395 C4.72800651,13.173653 4.19066662,12.2881792 3.9689506,11.2641805 C3.86569094,10.7861333 3.82945265,10.2882968 3.88166697,9.80093704 C3.90309822,9.60110401 4.21794276,7.9628612 4.51018708,8.00593201 C4.39328935,7.90892568 4.27639162,7.81230738 4.15988356,7.71568908 C4.15910424,7.72383761 4.15832492,7.73198614 4.1575456,7.74013468 C4.12949015,8.09517782 4.86516651,8.14484506 4.89361162,7.78786179" id="Fill-22" fill="#F15D4B"></path>
            <path d="M11.5548338,6.98034233 C10.7836984,6.54032164 9.8925481,6.20506779 8.99009765,6.22020077 C7.94386299,6.23727389 7.40613344,6.8402652 6.94789435,7.71254608 C6.86606594,7.86892027 7.52965537,8.18593694 7.62239424,8.00977346 C7.89242799,7.49563993 8.19558276,6.95395661 8.76136776,6.72269354 C9.5687414,6.39209598 10.5619824,6.72773786 11.2727206,7.1332243 C11.5357405,7.28339009 11.9939796,7.23100668 11.5548338,6.98034233" id="Fill-24" fill="#F15D4B"></path>
            <path d="M13.4156118,5.49921096 C11.2861249,3.98979254 7.19158715,3.04999527 6.00897181,6.25818845 C5.96922658,6.36567146 6.67217158,6.50885279 6.74425851,6.31367607 C7.07352044,5.4200538 7.77101022,4.7759318 8.68242283,4.48258468 C10.1471514,4.01113394 11.5990211,4.73712927 12.771895,5.56827947 C12.9117826,5.66761394 13.5917377,5.62415511 13.4156118,5.49921096" id="Fill-26" fill="#F15D4B"></path>
            <path d="M11.8813291,7.99588215 C12.3403475,8.55269846 12.5737533,9.22165407 12.5254356,9.94376916 C12.4997181,10.3259741 13.1609696,10.0562965 13.1800629,9.77497815 C13.2342255,8.9706017 13.0066646,8.20852002 12.4911456,7.58302323 C12.2928091,7.34244755 11.6903962,7.76423105 11.8813291,7.99588215" id="Fill-28" fill="#F05C4B"></path>
        </g>
        <g id="Group-173" transform="translate(22.730114, 28.142045)">
            <path d="M79.3136832,55.7101204 C76.488981,55.5471509 74.3304263,53.1057887 74.4929109,50.2574003 C74.6553955,47.4086145 77.0772465,45.2311833 79.9019487,45.3937553 C82.7266508,45.5567248 84.8852056,47.998087 84.722721,50.8468728 C84.5602364,53.6956587 82.1383854,55.8730898 79.3136832,55.7101204" id="Fill-31" fill="#FDAF98"></path>
            <path d="M74.8779322,62.186249 C72.0532301,62.0232795 69.8946753,59.5819173 70.0571599,56.7335289 C70.2196445,53.884743 72.6414955,51.7073119 75.4661977,51.8698839 C78.2908999,52.0328534 80.4494546,54.4742155 80.28697,57.3230014 C80.1244854,60.1717873 77.7026344,62.3492184 74.8779322,62.186249" id="Fill-33" fill="#FDAF98"></path>
            <path d="M73.4050151,51.7512739 C70.5803129,51.5883044 68.4217582,49.1469422 68.5842428,46.2985539 C68.7467274,43.449768 71.1685784,41.2723368 73.9932806,41.4349088 C76.8179827,41.5978783 78.9761422,44.0392405 78.8140529,46.8880264 C78.6515683,49.7368122 76.2297173,51.9142434 73.4050151,51.7512739" id="Fill-35" fill="#FDAF98"></path>
            <path d="M70.0251374,57.2966083 C67.2004352,57.1336388 65.0418805,54.6922767 65.2043651,51.8438883 C65.3668497,48.9951024 67.7887007,46.8176712 70.6134029,46.9802432 C73.438105,47.1432127 75.5962645,49.5845749 75.4341752,52.4333608 C75.2716906,55.2821466 72.8498396,57.4595778 70.0251374,57.2966083" id="Fill-37" fill="#FDAF98"></path>
            <path d="M74.9203917,48.7477068 C76.2732442,48.8256141 77.3074528,49.9918396 77.2295709,51.3520384 C77.1520843,52.7122373 75.992553,53.7516646 74.6397005,53.6737572 C73.7960456,53.6252638 73.7272565,53.1578197 72.5867015,51.8715533 C72.1130845,51.3373314 72.1447117,50.7784654 72.6760482,50.3022766 C74.1059919,49.0203825 74.0767368,48.6992134 74.9203917,48.7477068" id="Fill-39" fill="#404041"></path>
            <path d="M76.9969926,48.0357687 C78.7677191,48.8200096 79.4560055,50.784388 78.6459544,52.5325337 C78.5917929,52.6489972 79.2864048,52.6493947 79.3674494,52.4748981 C80.2233598,50.6277783 79.4595635,48.6395507 77.6172805,47.8235109 C77.4642841,47.7559382 76.8052528,47.9511041 76.9969926,48.0357687" id="Fill-41" fill="#F15D4B"></path>
            <path d="M77.3713792,51.9731509 C77.2784744,53.4434535 75.0780136,55.2174358 73.6879993,54.0842018 C73.3495885,53.8079486 73.1689182,54.0122567 73.5140498,54.2936772 C75.1084548,55.5938556 77.8362987,54.5210395 77.9715049,52.382562 C77.9845511,52.1707017 77.3824488,51.7994493 77.3713792,51.9731509" id="Fill-43" fill="#F15D4B"></path>
            <path d="M78.2091041,54.4826025 C76.611141,56.0069633 73.8417864,57.3258236 71.9046219,55.59 C71.7437186,55.4457123 71.3226818,55.4035788 71.2329397,55.3232865 C73.5697927,57.4172455 76.7360684,56.84089 78.8965998,54.7799224 C78.868926,54.8061565 78.3174272,54.379256 78.2091041,54.4826025" id="Fill-45" fill="#F15D4B"></path>
            <path d="M73.148321,54.8665347 C71.6867502,54.0091563 70.6110308,51.9004903 71.2040404,50.2477414 C71.2846897,50.0223665 70.5509392,49.9929525 70.4801734,50.1909008 C69.8480252,51.9537535 70.9443022,54.1264148 72.5078707,55.0434162 C72.6806342,55.1447753 73.3803854,55.0024751 73.148321,54.8665347" id="Fill-47" fill="#F15D4B"></path>
            <path d="M70.0563692,49.1814441 C70.0571599,49.1730969 70.0575553,49.1647496 70.0583459,49.1564024 C70.0737642,48.9636215 69.8511879,48.8809443 69.7029356,48.858685 C68.5034749,48.6802136 68.2318765,51.1569521 68.2674571,51.9121764 C68.3382229,53.4138805 69.0182072,54.7681171 70.1322745,55.757461 C70.3951754,55.9903881 71.0328583,55.7145325 70.6853547,55.4056855 C69.8883499,54.6985569 69.3431764,53.7914927 69.1182281,52.7425258 C69.0134631,52.2528224 68.9766965,51.7428472 69.029672,51.2436041 C69.0514157,51.0388986 69.3708502,49.3607105 69.667355,49.4048315 C69.5487531,49.3054599 69.4301512,49.2064857 69.3119446,49.1075116 C69.3111539,49.1158588 69.3103632,49.124206 69.3099679,49.1325532 C69.2811081,49.4962534 70.0275094,49.5471317 70.0563692,49.1814441" id="Fill-49" fill="#F15D4B"></path>
            <path d="M76.8147014,48.3541951 C76.0323242,47.9034454 75.1281823,47.5600171 74.2125755,47.575519 C73.1510884,47.5930085 72.6055196,48.2107025 72.1406001,49.1042522 C72.0575788,49.2644393 72.7308423,49.5891857 72.8249332,49.4087269 C73.0989036,48.8820572 73.4064779,48.327166 73.9805111,48.0902641 C74.799655,47.7516056 75.8073759,48.0954314 76.5284755,48.5108048 C76.7953298,48.6646321 77.2602493,48.6109714 76.8147014,48.3541951" id="Fill-51" fill="#F15D4B"></path>
            <path d="M78.7026066,46.8369891 C76.5420752,45.2907665 72.3878456,44.3280542 71.1879896,47.6144727 C71.147665,47.7245765 71.8608578,47.871249 71.9339956,47.6713133 C72.2680577,46.7559018 72.9757157,46.0960742 73.9004153,45.7955744 C75.3864972,45.3126283 76.8595329,46.0563256 78.0495054,46.9077417 C78.1914324,47.0094982 78.8813002,46.9649798 78.7026066,46.8369891" id="Fill-53" fill="#F15D4B"></path>
            <path d="M77.1459566,49.3945366 C77.6116667,49.9649297 77.8484752,50.6501965 77.7994531,51.3899189 C77.7733607,51.7814431 78.4442521,51.50519 78.4636238,51.2170123 C78.518576,50.3930227 78.2876976,49.6123592 77.7646632,48.9716109 C77.5634353,48.7251693 76.9522401,49.1572371 77.1459566,49.3945366" id="Fill-55" fill="#F05C4B"></path>
            <path d="M83.0123233,23.1614996 C88.6174496,16.1236034 96.5100113,11.2977195 104.617243,7.44488273 C105.638405,6.95994918 106.701078,6.47899049 107.829773,6.44878151 C108.958468,6.41857254 110.178881,6.95279442 110.621662,7.99738899 C111.192532,9.34248336 110.291553,10.8620743 109.23995,11.87328 C107.751891,13.304629 105.908027,14.3066925 104.025419,15.1465815 C101.32683,16.3497732 98.5076628,17.2516701 95.6948209,18.1511821 C91.3472702,19.5419874 86.9997195,20.9323952 82.6521688,22.3228031" id="Fill-57" fill="#34714A"></path>
            <path d="M83.6141094,23.747991 C88.6981779,17.4196081 95.5422988,12.8874669 102.70704,9.26238983 C104.426768,8.39229184 106.452884,7.06230195 108.431559,7.03527287 C109.493046,7.02096336 110.24854,7.22924629 110.188449,8.44197766 C110.138636,9.44165625 109.525069,10.3578627 108.860898,11.0626063 C105.944872,14.1550514 101.286585,15.5414844 97.3770704,16.8273532 C92.281537,18.5035539 87.1595158,20.1022447 82.0505409,21.7363117 C82.1853517,21.6929857 82.9068467,23.0201932 83.2539549,22.9092944 C88.3048149,21.2939092 93.3663491,19.709528 98.4053489,18.0579715 C100.725598,17.2975798 103.040312,16.4882972 105.252633,15.4468826 C107.21668,14.5219314 109.417141,13.3266895 110.675507,11.4843395 C111.834643,9.78707203 111.40056,8.33783619 109.995523,7.04163266 C108.597602,5.75139142 107.018615,5.63651782 105.262516,6.30707757 C103.215052,7.08853607 101.237563,8.19513853 99.3098862,9.23416829 C97.3739077,10.2771729 95.4754864,11.3917251 93.6371568,12.6004816 C89.4354865,15.3630129 85.5722269,18.6398918 82.4106953,22.5750083 C82.3023723,22.7093587 83.5635059,23.8107939 83.6141094,23.747991" id="Fill-59" fill="#347149"></path>
            <path d="M82.3177905,22.5458328 C87.3801154,19.8043683 93.440673,19.7201011 99.1600524,20.313946 C102.709808,20.682416 106.633159,21.5274723 108.649787,24.4875544 C109.083079,25.1235328 109.403304,25.9797188 109.014685,26.6439188 C108.842712,26.9376613 108.556091,27.1439568 108.265516,27.3200433 C105.666158,28.8960774 102.325142,28.6396986 99.4585339,27.6360451 C96.5923211,26.6319942 94.0060087,24.9613583 91.2184685,23.7533968 C88.4313236,22.5454353 85.245281,21.8116752 82.3711614,22.7930694" id="Fill-61" fill="#34714A"></path>
            <path d="M82.9845704,23.0122832 C86.3682829,21.2216064 90.1386377,20.5593939 93.9338988,20.5089131 C97.3666334,20.4635996 101.186801,20.6007325 104.454679,21.7717278 C105.981876,22.3194642 108.02262,23.4801248 108.394239,25.2322454 C108.796299,27.1250762 105.66007,27.7777491 104.341612,27.9073297 C100.357774,28.2992514 96.8515058,26.1814432 93.4282593,24.4587366 C89.8275053,22.6469931 85.7396928,21.0455199 81.7044605,22.326619 C81.3909561,22.4263881 82.563929,23.4101672 83.0379413,23.2595198 C87.7832037,21.7530459 92.1971715,24.5899072 96.2992162,26.6147035 C99.7011143,28.2944815 103.752951,29.7544495 107.52805,28.4439365 C109.13392,27.8862629 110.529469,26.9052662 109.58263,25.0847779 C108.836624,23.6498516 107.421703,22.5432491 106.029317,21.7908071 C102.854344,20.0756528 99.0863611,19.7620359 95.5504428,19.583962 C90.7980643,19.3450726 85.919177,19.8204665 81.6510896,22.0793823 C81.2909352,22.2697784 82.5643243,23.2348757 82.9845704,23.0122832" id="Fill-63" fill="#347149"></path>
            <path d="M82.528388,22.5876484 C84.5339463,20.4050499 86.5391092,18.2224514 88.5446675,16.0398529 C90.0584232,14.3922713 91.5840391,12.7287903 92.7238035,10.8005832 C93.8639632,8.87277355 94.6040391,6.63412948 94.3988578,4.40065273 C94.2628609,2.91922048 93.4298802,1.25096957 91.9572398,1.10429704 C91.2713254,1.03592936 90.5905505,1.32847944 90.0402376,1.74623777 C88.5375514,2.88583162 87.909752,4.82198844 87.3752527,6.63691188 C85.7745222,12.0737325 84.2647199,17.5379796 82.8470318,23.026076" id="Fill-65" fill="#34714A"></path>
            <path d="M83.1464225,23.1568093 C85.8252443,20.2412457 88.6119939,17.3932548 91.165493,14.3656 C93.4296035,11.6813735 95.3873257,8.43231874 95.1999346,4.78299502 C95.0623564,2.10512835 92.8105015,-0.862903481 89.9438933,0.810912245 C87.0911221,2.47677824 86.5107634,6.67582581 85.6809453,9.56754023 C84.4198117,13.9625487 83.216793,18.373854 82.0710985,22.8006614 C81.8441735,23.6775166 83.3658361,24.2447299 83.6228069,23.2518086 C84.462113,20.0091136 85.3306744,16.7739708 86.2324442,13.5483677 C86.7009218,11.872962 87.1784921,10.1995438 87.66476,8.52890796 C88.0597043,7.1714915 88.4056266,5.76876158 89.0041709,4.48249521 C89.5046709,3.40610172 90.6377145,1.66908564 92.0550073,1.879356 C93.4319755,2.08366407 93.6838069,4.1466191 93.6517844,5.23215478 C93.5541355,8.54003758 91.5592513,11.3701416 89.4682997,13.7638054 C87.0152168,16.5720476 84.4328579,19.273366 81.9105906,22.0184079 C81.2776518,22.7068546 82.5122976,23.8468459 83.1464225,23.1568093" id="Fill-67" fill="#347149"></path>
            <path d="M81.719009,23.1026716 C84.3594829,19.8730937 84.4784801,15.1982547 83.4474342,11.1478671 C83.1991608,10.1720377 82.8828891,9.19183597 82.2930422,8.3773861 C81.7031954,7.56293622 80.7970768,6.92815026 79.7960767,6.88204182 C78.4649679,6.82122638 77.2655073,7.81573765 76.6677537,9.01336453 C76.07,10.2105939 75.9513981,11.5839098 75.843075,12.9190671 C75.6873112,14.8413118 75.531152,16.7635566 75.3753882,18.6858014 C75.2492748,20.2367938 75.1199987,21.8060706 74.622266,23.2795531 C74.1245334,24.7530357 73.2124847,26.1442385 71.8584462,26.8978729 C75.8497958,26.128339 79.6873583,24.5598572 83.0805589,22.3108785" id="Fill-69" fill="#34714A"></path>
            <path d="M82.4646987,23.1533909 C84.1421251,21.0308129 84.8501785,18.4280712 84.8727129,15.7422548 C84.884573,14.3466796 84.7173444,12.950707 84.4137235,11.5897131 C84.1073352,10.2136148 83.6942052,8.69998616 82.6789729,7.66652121 C80.9268273,5.88260172 78.029778,6.25782899 76.4776743,8.11727092 C75.5719511,9.20240911 75.2738649,10.5924195 75.1212638,11.9665304 C74.9378262,13.6113296 74.8413633,15.2692458 74.7073431,16.9188149 C74.4345588,20.2811533 74.5191614,24.7818932 71.2275631,26.7486565 C70.5728806,27.1401807 71.6454372,27.3194471 71.9265237,27.263799 C76.1325428,26.4278848 80.1175669,24.8124996 83.7112048,22.4601744 C84.03143,22.2503015 83.8713174,22.0666628 83.6147419,21.942647 C83.3000515,21.7904096 82.7200882,21.985178 82.4500712,22.1620595 C79.1968208,24.2913948 75.5992295,25.775212 71.7901315,26.5320263 C72.0233819,26.7037405 72.256237,26.8750572 72.4890921,27.0467714 C75.2374937,25.4043571 75.8747813,22.2161177 76.1392635,19.2472909 C76.3088643,17.343728 76.4500005,15.4373826 76.6045784,13.5330247 C76.7409706,11.8516568 76.7635049,9.96200585 77.7467148,8.51912979 C78.341701,7.64545443 79.1987975,6.98403686 80.2606799,7.51269393 C81.0351504,7.89825585 81.6024629,8.63122099 81.9756635,9.39598505 C82.6607872,10.7999074 82.9541293,12.4943925 83.1221487,14.0390251 C83.4653035,17.1954655 82.9825937,20.5093106 80.9734774,23.0520319 C80.5500686,23.5878437 82.1634499,23.534978 82.4646987,23.1533909" id="Fill-71" fill="#347149"></path>
            <path d="M73.0107428,25.1982603 C75.9101642,24.6064029 78.8095855,24.0145455 81.7090069,23.422688 C82.7542851,23.2092378 83.8181442,22.9949925 84.8796313,23.0979415 C87.8498185,23.3861193 90.0380237,26.046099 91.319715,28.7553672 C92.1898577,30.5949348 92.8160758,32.6551074 92.4405031,34.6568495 C92.0653257,36.6585916 90.4381075,38.5295606 88.4135729,38.6106479 C86.5625924,38.6845804 84.96542,37.3339212 83.7833543,35.8997898 C82.1770891,33.9509134 80.5735913,32.0207189 78.9198853,30.1123861 C77.2661794,28.2036559 72.9344423,25.7837579 70.4173144,25.7444068" id="Fill-73" fill="#34714A"></path>
            <path d="M72.5604904,25.4645763 C74.5775136,25.0527802 76.5945367,24.6409842 78.6111645,24.2295857 C80.5775842,23.8281243 82.8037421,23.0474608 84.8025796,23.5653857 C88.0439698,24.4056722 90.1301774,27.9007711 91.097969,30.8946396 C91.6557933,32.6209235 91.8558352,34.5697999 91.0430168,36.248783 C90.7239776,36.9082131 90.2736857,37.5131876 89.7008385,37.972682 C88.9200426,38.5991208 87.8332537,38.119752 87.0532485,37.6686048 C85.4446113,36.7384864 84.3467529,35.1163439 83.1789194,33.712024 C81.9893423,32.2814701 80.8416711,30.7475696 79.5212365,29.4362616 C77.5050041,27.433327 74.2161731,25.5389063 71.334542,25.4248276 C70.9285282,25.4089282 70.5007706,25.5571906 70.1216398,25.6903486 C70.0137121,25.7285073 69.3942148,26.0596136 69.4997705,26.0639859 C71.105245,26.1271863 72.6723716,26.8037083 74.0750368,27.5470081 C75.618443,28.3642404 77.0539215,29.3674964 78.2047553,30.692319 C79.7331386,32.4515943 81.2105231,34.2549906 82.7005584,36.0472573 C83.8454622,37.4253431 85.3042657,38.8229057 87.1904314,38.9294321 C90.6401656,39.123803 93.6000739,36.4204972 93.5119132,32.9444776 C93.4209851,29.3845883 91.0485515,24.9975296 87.8130914,23.3726047 C85.8087191,22.3661689 83.6810009,22.8459351 81.5916305,23.2724381 C78.8815769,23.8253419 76.1711279,24.3786431 73.4610743,24.9319443 C73.1807784,24.9891824 72.3043103,25.1167756 72.1588253,25.382694 C72.0240145,25.6279432 72.2794039,25.5218143 72.5604904,25.4645763" id="Fill-75" fill="#347149"></path>
            <path d="M82.6301484,21.6983518 C74.9091641,26.4105544 65.8392807,28.575266 56.8370003,27.9229906 C55.7909315,27.8470707 55.7948849,29.0959733 56.8267215,29.1707008 C66.2547827,29.8539801 75.7334473,27.5187468 83.8082607,22.5903115 C84.6878915,22.0537047 83.3014352,21.2885432 82.6301484,21.6983518" id="Fill-77" fill="#347149"></path>
            <path d="M78.0559099,23.5259153 C79.4542265,21.7109918 80.852543,19.8960684 82.2508595,18.081145 C82.0682126,19.2644623 81.699756,20.4187632 81.1636753,21.4880019 C82.3319041,19.4882472 83.997075,17.7842225 85.9654713,16.5746711 C85.6389207,17.887569 85.1688618,19.1646932 84.5663641,20.3746422 C85.9836569,18.7087762 87.6978499,17.298494 89.6025966,16.2308452 C89.8279402,17.1406919 89.7279192,18.1288433 89.3250681,18.9746947 C90.9352867,17.152219 92.7400124,15.5042399 94.6989206,14.0681211 C94.4965067,15.1564392 94.1063064,16.2093809 93.5504588,17.165336" id="Fill-79" fill="#80A85E"></path>
            <path d="M78.789779,23.6739393 C80.1880955,21.8590158 81.5864121,20.0440924 82.9847286,18.2291689 C82.4340204,18.2621603 81.8829168,18.2951517 81.3322086,18.3281431 C81.1400735,19.4554148 80.8052208,20.5107415 80.3094648,21.5390392 C80.1054695,21.9627598 80.3754866,22.2561048 80.7992907,22.2664395 C81.3108603,22.2791591 81.7749891,21.8419239 82.0177277,21.4368851 C83.0883076,19.6509782 84.5589713,18.1937926 86.3119075,17.0887801 C85.89008,16.9997431 85.4682526,16.9107062 85.0468205,16.8216692 C84.7226419,18.0729567 84.2763034,19.2646213 83.7121536,20.4260769 C83.528716,20.8040866 83.7157117,21.0866995 84.0995865,21.1471175 C84.5581806,21.2190625 85.0254721,20.8398604 85.3002332,20.5226661 C86.6254119,18.993138 88.1984686,17.7470178 89.9490327,16.7449543 C89.5260193,16.7167327 89.1030058,16.6881137 88.679597,16.6598922 C88.8519651,17.4950113 88.808873,18.2383111 88.4708576,19.0257319 C88.0442861,20.0202432 89.4892527,19.7614795 89.8881504,19.3147046 C91.4493469,17.5653665 93.1631445,15.9770103 95.0453568,14.5822301 C94.6235294,14.4931932 94.2017019,14.4041562 93.7802698,14.3147217 C93.5695537,15.3485841 93.2093993,16.2977819 92.6966437,17.2167708 C92.4637886,17.6333366 92.7836184,17.9338365 93.1860742,17.9437736 C93.6861789,17.9560957 94.1764002,17.5228354 94.4045112,17.1146167 C94.9828931,16.0787669 95.3806049,14.9836915 95.6178087,13.8210435 C95.7739679,13.0538945 94.6804583,13.3106708 94.3527217,13.5539325 C92.3210709,15.0596114 90.4483468,16.7457493 88.762223,18.6346052 C89.2342586,18.7307969 89.7066895,18.8273861 90.1791204,18.9235779 C90.6132034,17.9115772 90.748805,16.885267 90.525438,15.8021163 C90.3981386,15.1840247 89.571088,15.5365953 89.2563976,15.7166567 C87.1895616,16.899179 85.391952,18.4267197 83.8323369,20.2269362 C84.3616968,20.2591326 84.8910566,20.291329 85.4204165,20.3235254 C86.0438672,19.0400414 86.5261816,17.7096541 86.883964,16.3275934 C87.0895407,15.5354028 85.9209165,15.8700865 85.6192723,16.0604825 C83.4196023,17.4469155 81.646899,19.3087423 80.3094648,21.5390392 C80.878754,21.5052528 81.4480432,21.471069 82.0177277,21.4368851 C82.5712033,20.2885466 82.9550781,19.0925097 83.1697476,17.8344648 C83.3464644,16.7966275 81.7848726,17.5856383 81.5168323,17.933439 C80.1185158,19.7483624 78.7201992,21.5628884 77.3218827,23.3778118 C77.0704467,23.7045457 77.0431682,24.1537055 77.4867394,24.2920308 C77.9433567,24.434331 78.5324129,24.0078279 78.789779,23.6739393" id="Fill-81" fill="#80A85D"></path>
            <path d="M103.198092,10.3733249 C93.8344709,16.5912065 83.5943819,21.3713794 72.8439095,24.6009573 C72.4829643,24.7094711 72.3362933,25.0910582 72.543056,25.3963278 C72.7822365,25.7485009 73.3483629,25.7071623 73.6899364,25.6046108 C84.5586155,22.3396565 94.9173063,17.4811788 104.38332,11.195327 C105.235277,10.6293062 103.814031,9.96431127 103.198092,10.3733249" id="Fill-83" fill="#80A85E"></path>
            <path d="M68.3254534,17.010356 C71.4925198,14.0602111 76.4382194,14.2498122 79.372826,17.4336792 C82.3070373,20.6179437 82.1184602,25.5908975 78.9517892,28.5410424 C76.9770674,30.38061 64.2748029,38.0485224 59.5378426,39.3248516 C57.348056,39.9147216 55.4014033,37.8024783 56.1533394,35.6520762 C57.7797669,31.0002915 66.351127,18.8499236 68.3254534,17.010356" id="Fill-85" fill="#F05C4B"></path>
            <path d="M63.5959255,25.3885371 C65.588833,23.5318776 68.7013424,23.6511235 70.5479742,25.6548531 C72.3942106,27.6585826 72.2756086,30.787994 70.2827012,32.6446535 C69.0401485,33.8021342 68.2731895,33.2524104 64.8396642,33.1208423 C63.4136739,33.0659892 62.655017,32.2427946 62.7095739,30.8094582 C62.8558496,26.9502616 62.3533729,26.5460178 63.5959255,25.3885371" id="Fill-87" fill="#404041"></path>
            <path d="M51.7742011,15.9834496 C51.9386624,11.6456792 55.5694622,8.26346646 59.883409,8.42882085 C64.1977512,8.59417525 67.5616967,12.2446914 67.3972354,16.5820643 C67.2948424,19.2865626 63.7059486,33.7391724 61.2540517,38.0097675 C60.1206128,39.9836855 57.2583534,39.8739793 56.2775156,37.818974 C54.1561228,33.3734848 51.6718081,18.6879479 51.7742011,15.9834496" id="Fill-89" fill="#F05C4B"></path>
            <path d="M79.3294573,29.5297504 C83.6437994,29.6951048 87.0077449,33.345621 86.8432836,37.6829938 C86.6788223,42.0207642 83.0480225,45.402977 78.7340757,45.2376226 C76.0441843,45.1346736 61.6696328,41.526291 57.4221031,39.0610796 C55.4588462,37.9214857 55.5679599,35.0436834 57.6118662,34.0575193 C62.0333454,31.9246067 76.6395659,29.4268014 79.3294573,29.5297504" id="Fill-91" fill="#F05C4B"></path>
            <path d="M56.6233588,30.674909 C56.826168,28.0729623 57.5611045,25.5143416 58.7688673,23.2041499 C58.9538863,25.7949671 58.188904,28.3484205 57.4326191,30.8315187 C58.2592745,28.9879763 59.6781486,27.418302 61.4247594,26.4146485 C60.5265476,28.2903874 59.4211778,30.0651647 58.1355331,31.6964494 C59.5409658,30.3310832 61.2642515,29.2984132 63.1270922,28.7053633 C61.8011228,30.3966685 60.3217617,31.9663427 58.7135198,33.388947 C59.8829346,32.0553797 61.6797535,31.3041302 63.44455,31.4106566 C62.2553681,32.6981154 60.9938392,33.9180015 59.6674745,35.0627627 C61.3144597,33.905282 63.2951116,33.2343247 65.3026466,33.153635 C64.3364363,34.2467229 63.1365803,35.1295404 61.8082389,35.7245778 C63.9486081,34.360404 66.7179627,34.0436073 69.1085818,34.8894586 C67.4813636,36.0481318 65.6438247,36.9078951 63.7141716,37.4131005 C65.7450317,36.6443616 68.1000703,36.7918291 70.0202352,37.8082021 C68.0087468,38.6039701 65.8260763,38.9581306 63.6679169,38.8392821 C65.6410573,38.650476 67.688917,38.4700171 69.5568971,39.137397 C67.1971144,40.3735801 64.3463198,40.6271765 61.8074483,39.8262411 C59.8904461,39.2216641 58.0750462,37.9214857 57.3895271,36.0222952 C56.9665136,34.8505049 56.1303702,34.3715337 56.1746482,33.1258109 C56.2110195,32.1086429 56.2074614,32.8650598 56.2434373,31.8478918 C55.9576067,32.3534946 56.70045,30.3477776 56.658544,30.9277105" id="Fill-93" fill="#FDAF98"></path>
            <path d="M56.8074685,31.6524476 C56.9833946,30.69848 57.1601115,29.739345 57.1822505,28.7690804 C57.2047849,27.7988158 57.0660206,26.8086769 56.6394491,25.9381815 C55.9867433,27.3643631 55.6064265,28.9165479 55.5257772,30.4846322 C55.7100055,28.900251 55.889885,27.263004 55.4305003,25.7362583 C55.2272957,25.7398357 55.0497882,25.892073 54.957674,26.0741218 C54.8659552,26.2561707 54.8434208,26.4648511 54.8264212,26.6683642 C54.6943778,28.2344611 54.7825385,29.8196373 55.0869501,31.3614875 C55.6890525,31.3078268 56.3026197,31.3877216 56.8711182,31.5936196" id="Fill-95" fill="#FDAF98"></path>
            <path d="M53.1481251,36.6212279 C52.1494971,33.8420021 53.0425694,31.3374396 54.1028705,29.392538 C54.3495625,28.9398009 54.6519974,28.5057456 55.1402419,28.3519183 C55.6288818,28.1980911 56.3484,28.404784 56.7982966,28.9767671 C57.1762413,29.4577258 57.2679602,30.0460059 57.299192,30.5651233 C57.4134452,32.4770334 57.0224542,34.2200118 56.1803806,35.5539766 C57.4379562,34.1365396 59.3600978,33.4393483 61.5257687,33.6158323 C61.9365267,33.6492212 62.4026322,33.7370657 62.7782049,34.0955985 C63.1680098,34.4676459 63.3364246,35.0360516 63.2850304,35.4649396 C63.2336362,35.8938275 63.0027578,36.2094318 62.7552752,36.4880699 C61.6807419,37.6976213 60.1792417,38.4476784 58.4468631,38.6404594 C60.2005901,38.3602314 62.1001973,38.4095197 64.0587102,38.7855419 C64.4370503,38.858282 64.8315993,38.9489089 65.2040093,39.1961455 C65.576024,39.4433821 65.9199695,39.889362 65.9413178,40.288041 C65.9559454,40.5547544 65.8290414,40.7511128 65.6922538,40.9188521 C64.3793307,42.5302624 62.223148,43.9930128 59.7538562,42.8824355 C57.2845644,41.7718581 54.9247818,41.5651652 53.1481251,36.6212279" id="Fill-97" fill="#347149"></path>
            <path d="M59.7072456,33.8166027 C59.7072456,40.1899016 54.5528066,45.3564313 48.1949536,45.3564313 C41.8367052,45.3564313 36.6826615,40.1899016 36.6826615,33.8166027 C36.6826615,27.4433039 41.8367052,22.2767741 48.1949536,22.2767741 C54.5528066,22.2767741 59.7072456,27.4433039 59.7072456,33.8166027" id="Fill-99" fill="#FB7A54"></path>
            <path d="M31.438678,43.2782526 C22.5826734,44.6948945 13.513976,42.9276694 4.93747658,40.2947187 C3.85740852,39.963215 2.74927134,39.6003098 1.89375623,38.8589974 C1.03863646,38.1180826 0.493067674,36.8974015 0.863896313,35.8249829 C1.34186201,34.4437172 3.02521845,33.9285747 4.47967321,33.8916084 C6.53860237,33.8391402 8.57341581,34.3443456 10.5283706,34.996621 C13.3297477,35.9315092 16.0196391,37.1708722 18.7028096,38.4078503 C22.8495277,40.3193629 26.9966412,42.2308756 31.1437546,44.1423882" id="Fill-101" fill="#34714A"></path>
            <path d="M30.836892,42.6917612 C22.0390023,44.0547425 13.1592773,42.3825167 4.73023951,39.822306 C3.9245372,39.5774543 3.10025393,39.3425398 2.3491085,38.9526055 C1.46947767,38.495496 1.13739232,37.3694167 1.46591961,36.4114742 C2.01030238,34.824708 3.99332631,34.4697526 5.44461835,34.4745224 C9.71586847,34.4888319 13.9452126,36.5573518 17.7562873,38.2955603 C22.4153657,40.4201257 27.0582351,42.5808625 31.7082207,44.7241098 C31.7928233,44.7630634 31.399065,44.2789249 31.3607171,44.2391762 C31.1413035,44.0090315 30.8752399,43.6970046 30.5791305,43.5606667 C25.9848878,41.4428586 21.3965753,39.3111384 16.7956118,37.2088322 C14.5575938,36.1860994 12.2998088,35.1915881 9.96374646,34.4148994 C7.90798002,33.7312226 5.67470606,33.1409551 3.48808217,33.3277738 C1.85493387,33.4672916 -0.111090456,34.3668036 0.174344808,36.3371442 C0.374386696,37.7196023 1.65884538,38.9216016 2.7484016,39.6772234 C4.45785046,40.8633232 6.76742499,41.2782991 8.73977475,41.8188808 C11.153719,42.4802984 13.5937556,43.0514865 16.0586986,43.4851443 C21.338065,44.4140703 26.7289171,44.687541 32.040306,43.8647439 C31.8220785,43.8985303 31.254766,42.6269709 30.836892,42.6917612" id="Fill-103" fill="#347149"></path>
            <path d="M31.5406757,44.2035217 C25.9608512,42.8079465 21.4199794,38.7714709 17.5851843,34.4639095 C15.2052393,31.7904152 12.8675956,28.5115489 13.3562355,24.957622 C13.4613959,24.1936529 13.7966439,23.3434292 14.5292084,23.1148745 C14.8529916,23.0139129 15.2028672,23.0552515 15.5357433,23.1212343 C18.5134419,23.7134892 20.8139236,26.1628011 22.2632389,28.8442451 C23.7125543,31.5256892 24.5083731,34.5108129 25.762786,37.2900387 C27.0171988,40.0688669 28.8832022,42.7666079 31.6667891,43.9845066" id="Fill-105" fill="#34714A"></path>
            <path d="M31.2997161,43.7639811 C27.6163362,42.807231 24.4694321,40.6902178 21.6870313,38.1335846 C19.0208604,35.6834777 16.0953466,32.7814286 14.6938674,29.3753666 C14.0992765,27.9305031 13.530778,25.547174 14.5056857,24.1353019 C15.7106811,22.3907335 18.6484504,24.8189787 19.5842195,25.8301844 C22.2274607,28.686125 23.1865548,32.5898401 24.6374515,36.1032234 C26.0749067,39.5856028 28.2168572,42.7428382 31.7175902,44.3534536 C31.9010278,44.4377207 32.3592265,44.6098324 32.4125974,44.3073451 C32.4620149,44.0271172 31.7840073,43.692831 31.6155926,43.6153211 C27.5768022,41.7574691 26.1231381,36.7411893 24.669474,32.918164 C23.2747156,29.2501584 21.4083168,25.6171316 17.8518409,23.6531507 C16.7385643,23.0382391 14.5203132,21.9515109 13.3651306,22.9424448 C12.0087201,24.1062853 12.5238478,26.7984615 13.0124876,28.2357728 C14.2854815,31.9789033 17.4177579,35.0864529 20.2175537,37.7444453 C23.5051986,40.8659069 27.3609467,43.4948827 31.7816352,44.6432213 C32.824146,44.9139096 31.7717517,43.8868044 31.2997161,43.7639811" id="Fill-107" fill="#347149"></path>
            <path d="M31.4128228,44.0301778 C28.4687281,44.2889415 25.5246333,44.5473078 22.5805386,44.8060715 C20.3579388,45.0012374 18.1163627,45.2003781 15.9827143,45.8558334 C13.849066,46.5112886 11.8039737,47.6671794 10.4614001,49.4586512 C9.57069973,50.6467384 9.07099035,52.4445699 10.0625023,53.5487874 C10.5246544,54.0635325 11.223615,54.3071917 11.9103201,54.3707896 C13.7850209,54.5436962 15.5446779,53.5356704 17.1545012,52.5542762 C21.9764595,49.6140684 26.7493957,46.5919784 31.4705424,43.4903911" id="Fill-109" fill="#34714A"></path>
            <path d="M31.3151739,43.2551983 C27.3843113,43.6006141 23.4257749,43.8367211 19.5103305,44.3280144 C16.2226855,44.740208 12.7784861,45.6905982 10.4301682,48.1919809 C8.61358232,50.1265478 7.73830022,53.8271472 10.9377844,54.9246075 C14.2689167,56.0673813 17.7728125,53.1629473 20.411705,51.5300727 C24.2868247,49.1320365 28.1287359,46.6803397 31.9386246,44.1793545 C32.7546058,43.6435427 31.7619078,42.3024232 31.0020649,42.8012687 C28.2117573,44.6332841 25.4044501,46.4390653 22.5789572,48.2158301 C21.1664085,49.1042124 19.749511,49.9858375 18.3278694,50.8599104 C17.0275972,51.6596533 15.7316736,52.5551904 14.3175435,53.1426755 C13.23115,53.5942201 10.7472307,54.1852826 10.3467516,52.537701 C10.0245497,51.2128784 11.1054085,49.853077 11.987016,49.0080207 C14.1550589,46.9295637 17.2102441,46.2041508 20.0930612,45.8424381 C23.8796248,45.3674417 27.7092805,45.1388869 31.5104717,44.8049983 C32.5652381,44.7123839 32.2347341,43.1745086 31.3151739,43.2551983" id="Fill-111" fill="#347149"></path>
            <path d="M32.356301,44.1964862 C28.2416054,44.7998707 25.0259123,48.1785061 23.0788643,51.8727458 C22.6095961,52.7631156 22.1881639,53.7019787 22.0794455,54.7036448 C21.9711224,55.7053108 22.2166284,56.7876666 22.9266585,57.49877 C23.8707297,58.4443904 25.4240194,58.5199128 26.6673627,58.0381592 C27.9107061,57.5564055 28.917241,56.6203248 29.8905673,55.7057083 C31.2920466,54.3888354 32.6935258,53.0719626 34.095005,51.7550898 C35.2256766,50.6930058 36.371371,49.6189972 37.7254095,48.8653628 C39.079448,48.1117284 40.6853178,47.6995348 42.1915621,48.0576702 C38.7232469,45.9271425 34.8346856,44.4922161 30.8192203,43.861405" id="Fill-113" fill="#34714A"></path>
            <path d="M32.2881049,43.8305998 C29.7800699,44.2404084 27.5475866,45.4726166 25.7203265,47.2299045 C23.8772528,49.0026944 21.9883197,51.5672774 21.3830546,54.0976766 C20.7532785,56.7282423 22.4022404,58.8428706 25.1051779,58.7208423 C28.0251569,58.5892742 30.0449475,56.312074 32.0378549,54.439515 C33.4369621,53.1250271 34.8032561,51.7588659 36.2620596,50.5111557 C37.7647458,49.2256843 39.5935872,48.011363 41.6572605,48.4259414 C41.9316262,48.4811921 43.5252406,48.1373662 42.8685813,47.7390847 C39.331477,45.59385 35.4302649,44.1573337 31.3535219,43.4927363 C31.0135297,43.4374857 30.4525427,43.4454354 30.1884558,43.7125463 C29.9935533,43.9093021 29.8955091,44.1664759 30.2849187,44.2296763 C34.2723149,44.8795667 38.0557158,46.2787193 41.5145428,48.3762556 C41.9181847,48.1473034 42.3222219,47.9179537 42.7258637,47.6890014 C39.620075,47.0653451 36.8463717,48.5777813 34.5751451,50.5771385 C33.1977816,51.7898698 31.8840678,53.0813035 30.5462382,54.3381559 C29.2459659,55.5600295 27.7503958,57.4492829 25.9389493,57.8614764 C23.912438,58.3225608 22.7200935,56.3947512 22.9102519,54.5853925 C23.083806,52.9378109 24.0745273,51.3307729 24.9873667,49.9888584 C26.7525584,47.3948614 29.2420125,45.0826823 32.4244971,44.5623725 C33.4081023,44.4017879 33.2740821,43.6692203 32.2881049,43.8305998" id="Fill-115" fill="#347149"></path>
            <path d="M38.4733131,46.3444238 C36.356269,45.0756468 34.2388296,43.8064724 32.1217855,42.5376954 C31.3583846,42.0801884 30.5831234,41.6127443 29.9857651,40.9513267 C28.3154549,39.0998345 28.449475,36.2271995 29.169784,33.8347281 C29.6588192,32.2105982 30.4210341,30.5876608 31.7683518,29.5653254 C33.1152742,28.5429901 35.1611571,28.3064856 36.4543133,29.3971886 C37.6367743,30.3944823 37.8684434,32.127126 37.7976776,33.6773235 C37.70161,35.784002 37.61424,37.877166 37.5699619,39.9854345 C37.5252885,42.093703 38.8469092,46.0264346 40.3764785,47.4693106" id="Fill-117" fill="#34714A"></path>
            <path d="M39.2753388,46.0999298 C37.7153283,45.1650416 36.1553179,44.2301533 34.5953074,43.2948675 C33.2756635,42.5042668 31.7081416,41.7923685 30.6956766,40.597524 C28.9285082,38.5131047 29.3305686,35.3733587 30.1686888,32.9824773 C30.6624681,31.5733876 31.4752865,29.9428979 32.8301157,29.1745564 C34.2525479,28.3680563 35.9872985,29.5871474 36.5585644,30.8948781 C37.1393184,32.2236755 37.0041122,33.6963631 36.9428346,35.1054528 C36.8657433,36.8738703 36.7336999,38.6625596 36.7676991,40.4329646 C36.8143492,42.8631971 37.8331396,45.976709 39.5746109,47.7137251 C39.8541161,47.9927606 41.1188078,47.1651937 41.1785041,47.2248167 C39.3868246,45.4373198 38.3751503,42.2395408 38.3719876,39.7409405 C38.3692202,37.6378394 38.5309141,35.5339432 38.5997032,33.4328295 C38.647144,31.974849 38.4965196,30.2998408 37.3614993,29.2504764 C35.5362159,27.5623511 32.1034813,28.6455019 30.5070996,30.1809923 C28.399939,32.208571 27.3681024,36.1405077 28.047296,38.9682267 C28.5276337,40.9671864 29.9884139,41.983957 31.65398,42.9824431 C33.6595383,44.1852373 35.665492,45.386839 37.6714456,46.5888383 C37.8663481,46.7056993 38.3103146,46.5184831 38.5075891,46.4584627 C38.5803316,46.4362034 39.287199,46.1070846 39.2753388,46.0999298" id="Fill-119" fill="#347149"></path>
            <path d="M30.3774677,44.4907454 C39.2449372,46.2237866 47.4569334,50.7281039 53.6870918,57.3096856 C54.2160563,57.8681542 55.7895083,57.3784508 55.1395698,56.6915941 C48.634255,49.8198472 40.0984756,45.1020797 30.832899,43.2911311 C29.9066181,43.1102747 29.2950276,44.2792826 30.3774677,44.4907454" id="Fill-121" fill="#347149"></path>
            <path d="M7.56039736,38.9434236 C18.6457226,40.6756698 29.4127993,44.0551002 39.5255888,48.9350422 C40.2609207,49.2896002 41.3603604,48.4083725 40.3716158,47.9313887 C30.1414104,42.9950037 19.2193605,39.5746322 8.0059452,37.8225116 C7.1077334,37.6821989 6.46412037,38.7721069 7.56039736,38.9434236" id="Fill-123" fill="#80A85E"></path>
            <path d="M74.682753,42.9613763 C74.682753,49.3346751 69.528314,54.5012049 63.1704609,54.5012049 C56.8122125,54.5012049 51.6581689,49.3346751 51.6581689,42.9613763 C51.6581689,36.5880775 56.8122125,31.4215477 63.1704609,31.4215477 C69.528314,31.4215477 74.682753,36.5880775 74.682753,42.9613763" id="Fill-125" fill="#FB7A54"></path>
            <path d="M29.430471,42.9766795 C27.7862532,42.5696533 26.2100338,41.6466896 25.3217055,40.1974538 C24.4333772,38.7478205 24.3720995,36.7361412 25.4288425,35.4061513 C25.7269287,35.0305266 26.1420353,34.7018052 26.6196057,34.6894831 C27.1845461,34.6751736 27.6937437,34.8731219 28.4571446,35.1891237 C29.2810326,35.5305646 30.2717539,36.079096 30.6860699,36.8398852 C31.2885676,37.9456927 31.8851352,39.2887996 31.7234412,40.5392922 C31.666117,40.9820922 31.4633077,41.3954782 31.2071276,41.7603708 C30.7825327,42.3645503 30.2017787,42.8566386 29.5380034,43.1758203 L29.430471,42.9766795 Z" id="Fill-127" fill="#F05C4B"></path>
            <path d="M30.0860233,43.4122055 C29.0909532,43.5628529 28.1057667,42.9431714 27.3225988,42.3075905 C27.1403472,42.1597255 26.9624443,41.9903962 26.8802136,41.7693937 C26.7983783,41.5487887 26.8406797,41.2657783 27.0332101,41.1314279 C27.1952994,41.0189392 27.4119455,41.0376211 27.6052666,41.0749848 C28.3184595,41.2125151 28.9925137,41.5464038 29.5353151,42.0309399 C28.9407242,41.3631625 28.5837324,40.4855123 28.5434078,39.5903726 C28.535501,39.4206459 28.5453845,39.2326348 28.6616143,39.1090165 C28.7821929,38.9810258 28.9877696,38.9651263 29.1514402,39.0287242 C29.3151108,39.0919245 29.4451776,39.2199152 29.5618028,39.3510858 C30.069419,39.9214789 30.4252247,40.6270175 30.5833606,41.3754846 C30.3916209,40.6095281 30.316111,39.8141576 30.3607844,39.0251468 C30.3694818,38.8729095 30.3841094,38.7155048 30.4588286,38.5827443 C30.5331525,38.4495863 30.6837769,38.3482273 30.83282,38.3780388 C30.9320502,38.3979131 31.0123042,38.4702556 31.081884,38.5441881 C31.7523801,39.254099 32.4082487,40.3046559 32.1129299,41.2371593 C31.8172158,42.1696627 31.8559591,43.1439021 30.0860233,43.4122055" id="Fill-129" fill="#80A85E"></path>
            <path d="M51.6580503,47.6117301 C51.6580503,53.9850289 46.5036113,59.1515586 40.1457582,59.1515586 C33.7875098,59.1515586 28.6334661,53.9850289 28.6334661,47.6117301 C28.6334661,41.2384312 33.7875098,36.0719015 40.1457582,36.0719015 C46.5036113,36.0719015 51.6580503,41.2384312 51.6580503,47.6117301" id="Fill-131" fill="#FB7A54"></path>
            <path d="M64.4275226,54.5014036 C64.4275226,60.8747025 59.2730836,66.0412322 52.9152305,66.0412322 C46.5569821,66.0412322 41.4029385,60.8747025 41.4029385,54.5014036 C41.4029385,48.1281048 46.5569821,42.961575 52.9152305,42.961575 C59.2730836,42.961575 64.4275226,48.1281048 64.4275226,54.5014036" id="Fill-133" fill="#FB7A54"></path>
            <path d="M44.782065,44.5890836 C44.782065,41.5363871 47.24345,39.0620336 50.2792635,39.0620336 C53.3154724,39.0620336 55.7764621,41.5363871 55.7764621,44.5890836 C55.7764621,46.492249 54.7458115,46.7068918 52.0302231,49.4368292 C50.9031096,50.5704607 49.6554175,50.5704607 48.528304,49.4368292 C45.4932811,46.3853252 44.782065,46.492249 44.782065,44.5890836" id="Fill-135" fill="#404041"></path>
            <path d="M43.4645559,39.26185 C43.9864043,37.7537862 44.9198014,36.4353234 46.2406313,35.5298491 C47.9935675,34.3286449 50.0117767,34.3354021 51.9188954,35.1558143 C52.2323998,35.2905622 52.760969,35.1816509 53.0645899,35.0596226 C53.2219351,34.9968197 53.6370417,34.8219256 53.3089098,34.6808179 C48.9831028,32.819786 43.4345101,34.8048337 41.8480119,39.3910332 C41.7408748,39.7014701 43.3317218,39.645822 43.4645559,39.26185" id="Fill-137" fill="#F15D4B"></path>
            <path d="M52.6282534,38.5460961 C56.2135892,38.4697786 58.5970922,43.5230247 56.412445,46.3181499 C56.1392653,46.6679381 57.4343982,47.7363818 57.6988804,47.3985183 C60.7880648,43.4467073 55.771204,37.2880512 51.4916518,37.3794731 C51.1662872,37.3862304 51.648997,37.9896149 51.7007865,38.0456605 C51.9308742,38.2936921 52.2764011,38.5536483 52.6282534,38.5460961" id="Fill-139" fill="#F15D4B"></path>
            <path d="M56.6526534,35.3675156 C60.868556,39.2604986 63.4821468,45.9649037 59.3666605,50.9330877 C59.3808927,50.9159957 60.7262337,51.8167002 60.9065086,51.5988776 C65.0425526,46.6060494 62.3827071,39.867063 58.1565257,35.9645404 C57.9149731,35.7415504 57.5362377,35.6131623 57.2345935,35.4963013 C57.1365492,35.45854 56.6103521,35.3281645 56.6526534,35.3675156" id="Fill-141" fill="#F15D4B"></path>
            <path d="M58.0482026,48.4346067 C57.3939154,49.8949721 56.0319701,51.0282062 54.760953,51.9495799 C53.1412462,53.1241526 51.159013,53.9763637 49.1625475,53.3085863 C48.841927,53.2016625 48.2738238,53.1396546 47.9781097,53.34913 C47.7496034,53.5113045 47.6286294,53.7128301 47.994714,53.835256 C50.23036,54.5829281 52.6648619,54.2685163 54.7372326,53.1734409 C56.6016546,52.1888668 58.7835344,50.5400927 59.669886,48.5621998 C59.8790207,48.0951532 58.2474538,47.9898192 58.0482026,48.4346067" id="Fill-143" fill="#F15D4B"></path>
            <path d="M47.106188,56.0529922 C47.0966999,56.0426576 47.0872117,56.0319255 47.0777236,56.0215908 C46.6681516,55.5688537 45.8917045,55.52831 45.5394568,56.0673018 C44.8361475,57.1444902 47.6533382,58.3083307 48.3202763,58.5182036 C49.8723799,59.0063171 51.5790614,59.0878018 53.1841406,58.8715691 C56.3555557,58.4442711 59.3273242,56.7851624 61.2652794,54.2142196 C61.8440567,53.4462757 60.3247663,52.8870121 59.8610328,53.5023213 C58.4267403,55.4050892 56.4413444,56.7644931 54.1471881,57.3968942 C53.005447,57.711306 51.8048004,57.8194223 50.6262927,57.7152809 C50.0724218,57.66639 49.524481,57.5678134 48.9907724,57.4108062 C48.8346132,57.3650952 47.0797003,56.5776745 47.1314898,56.4981771 L45.593223,56.5442856 C45.6027112,56.5546202 45.6121993,56.5653524 45.6216875,56.575687 C46.1257456,57.1321681 47.7300341,56.7422339 47.106188,56.0529922" id="Fill-145" fill="#F15D4B"></path>
            <path d="M43.089932,40.3507246 C42.1320239,42.2220911 41.453621,44.6976372 42.1229311,46.7792741 C42.7155453,48.622419 44.4554353,49.5437928 46.1051879,50.2815278 C46.2510683,50.3467155 46.9014021,50.6106466 46.9931209,50.3463181 C47.086421,50.0768222 46.5040857,49.7993766 46.3479265,49.729419 C44.6562679,48.9733996 43.5726418,48.0174446 43.441389,46.0506813 C43.3259498,44.3136652 43.8394961,42.5627371 44.6230594,41.032414 C44.8084737,40.6703038 43.29709,39.9464808 43.089932,40.3507246" id="Fill-147" fill="#F15D4B"></path>
            <path d="M39.3666227,36.9266167 C37.5342232,39.7948795 36.1193024,43.3185974 36.9673061,46.766793 C37.6429416,49.5126298 39.5785248,51.7310021 42.3162522,52.4830466 C42.5613628,52.5502218 43.2662535,52.6929195 43.4666908,52.4746994 C43.6726627,52.250517 43.4698535,52.1638649 43.1943017,52.087945 C40.5550139,51.3633271 38.8404256,48.668766 38.4775037,46.0548946 C38.039072,42.8992492 39.302973,39.7956744 40.9677485,37.1905478 C41.1654184,36.8809058 39.5951291,36.5692764 39.3666227,36.9266167" id="Fill-149" fill="#F15D4B"></path>
            <path d="M45.8879092,39.1182779 C46.9715353,38.114227 48.3077835,37.6630798 49.7697497,37.6769918 C50.427595,37.6833516 51.341225,36.4129847 50.3414109,36.403445 C48.3184577,36.3839681 46.4429662,37.1757613 44.9628143,38.5474873 C44.1428798,39.307084 45.2514123,39.7081479 45.8879092,39.1182779" id="Fill-151" fill="#F05C4B"></path>
            <path d="M61.0624306,53.664774 C60.9964089,56.6518852 61.1703583,58.7327271 60.5500703,61.2313274 C59.9297824,63.7295301 59.6775556,66.7174363 61.4747699,68.552234 C62.6939975,69.7971618 64.5959768,70.1545022 66.3149139,69.8981234 C69.2736362,69.4565159 72.0018754,67.1081655 72.3936571,64.1266191 C72.6371863,62.2731395 71.9991081,60.3906434 70.999294,58.8146093 C69.3167282,56.1617843 67.7717406,54.5452066 65.2142881,52.7318731 C64.6979745,52.3657881 63.6946023,51.7405418 63.0632448,51.7214624 C62.431492,51.7023831 61.689044,51.9810211 61.2684026,52.5522092 C61.2684026,52.5522092 61.068756,53.3817636 61.0624306,53.664774" id="Fill-153" fill="#A39145"></path>
            <path d="M65.6172579,70.0817224 C64.1129903,69.6349476 62.6941161,68.898405 61.4606563,67.9241656 C61.1293616,67.6626195 60.7850207,67.3315132 60.7747419,66.9081901 C61.4199363,66.6971247 62.0801536,67.1387322 62.6170249,67.5556956 C63.5338177,68.2671965 64.4502151,68.9790948 65.3670079,69.6905957 C64.6814888,68.546232 64.2861491,67.2281667 64.2280342,65.8938045 C64.2232901,65.7785334 64.2280342,65.6461704 64.3165903,65.5730328 C64.4822376,65.436695 64.7087673,65.6414005 64.8198577,65.8254368 C65.519609,66.98252 66.07941,68.2250629 66.4826565,69.5172916 C66.3541711,67.7242299 66.7977422,65.8938045 67.7327206,64.3614939 C68.0383182,64.6051532 68.0086677,65.0733923 67.9398786,65.4597492 C67.6900239,66.8632741 67.3045677,68.2425523 66.7910215,69.5713497 C67.4306811,67.6809038 68.3787057,65.7522993 70.0893406,64.7379137 C70.4143098,65.1866759 70.114247,65.8091398 69.80351,66.2682368 C69.016784,67.4316798 68.1612689,68.5482194 67.2424994,69.6091109 C68.2304533,67.8645426 69.8568808,66.4952016 71.7383025,65.8230519 C72.0960849,66.17125 71.7046986,66.7579401 71.3208237,67.0767243 C70.0925033,68.0966747 68.7590225,68.988237 67.3488458,69.7335242" id="Fill-155" fill="#347149"></path>
            <path d="M25.5361377,35.1705611 C25.1653091,36.4449028 25.2554465,37.7578008 25.7583186,38.9820593 C25.8958968,39.3167429 26.2275869,39.7329113 26.5932761,39.8279106 C26.8858275,39.903433 27.1139385,39.7945217 26.9720115,39.4499009 C26.5335798,38.3826496 26.4956272,37.2867793 26.8170383,36.1817668 C26.963314,35.6793438 25.6915062,34.6363392 25.5361377,35.1705611" id="Fill-157" fill="#FB7A54"></path>
            <path d="M68.5731733,23.2939819 C70.8432138,24.0742479 72.1043475,26.8105451 71.9335607,29.0782057 C71.9031196,29.4844369 73.5184776,29.8000412 73.5354772,29.5746664 C73.7766344,26.3669502 71.5991034,23.8627851 68.7040307,22.8674789 C68.5767313,22.8237553 67.9038632,22.6162674 67.8374461,22.8325 C67.7714244,23.0487327 68.4790824,23.2617855 68.5731733,23.2939819" id="Fill-159" fill="#FB7A54"></path>
            <path d="M63.8855514,23.0696008 C62.8465987,24.6353001 62.5473265,26.4180272 62.9869443,28.2440802 C63.1656378,28.9877775 64.7798098,29.0644924 64.5540708,28.1268217 C64.2018232,26.6624814 64.483305,25.1488527 65.3131231,23.8979627 C65.8005769,23.1630101 64.313309,22.4248776 63.8855514,23.0696008" id="Fill-161" fill="#FB7A54"></path>
            <path d="M67.058113,32.5521186 C68.6394718,34.8730424 71.468918,34.4958277 73.8215845,33.6392442 C76.4798487,32.6713646 77.5982647,30.2502742 78.0967881,27.6157336 C78.17467,27.204335 77.2151805,26.3401993 77.2341568,26.2400327 C76.8048179,28.5076933 75.8856531,30.7956257 73.7144475,31.8744041 C71.9310701,32.7604016 68.1820637,33.7668374 66.790468,31.7245517 C66.7034932,31.597356 66.5259857,31.2626724 66.5137302,31.5369381 C66.5010793,31.8139862 66.9110466,32.3362834 67.058113,32.5521186" id="Fill-163" fill="#FB7A54"></path>
            <path d="M68.3483041,22.2897322 C71.9008266,22.6621771 74.4436516,25.788806 74.1261938,29.3709545 C74.0384284,30.3626834 75.6949017,30.4942514 75.7779231,29.5601581 C76.1716814,25.1174513 73.0330795,21.2916436 68.6183211,20.8285718 C67.6050654,20.7224429 67.2650733,22.1760511 68.3483041,22.2897322" id="Fill-165" fill="#FB7A54"></path>
            <path d="M66.6718661,20.8115593 C65.2937119,20.0515651 63.4095229,19.9414614 61.9732537,20.6044689 C60.0064387,21.5123281 59.2292009,23.7048637 59.0200662,25.7280701 C58.9927877,25.9955785 60.6579585,26.1851796 60.685237,25.9228385 C60.809769,24.7156719 61.0916462,23.5069154 61.7621423,22.4798103 C62.4124761,21.4833116 63.954301,20.1306649 65.2130626,20.8250739 C65.5269623,20.998378 65.9930678,21.041704 66.3445248,21.0234197 C66.457592,21.0174574 66.9786497,20.9808886 66.6718661,20.8115593" id="Fill-167" fill="#FB7A54"></path>
            <path d="M39.0396768,60.3741477 C38.661732,62.2316022 37.4567366,63.8247281 36.0497226,65.0875428 C32.6675915,68.1223524 27.9069108,69.5374044 23.4273167,68.8390206 C24.5212216,67.0650382 25.622638,65.2803238 27.0067223,63.7241641 C28.3908066,62.1680043 30.0864186,60.836822 32.0587684,60.1853416 C34.3228788,59.4376694 36.8127283,59.6340278 39.095815,60.320487" id="Fill-169" fill="#347149"></path>
            <path d="M42.6082501,60.174371 C37.567669,59.4700248 32.440113,60.6171709 28.1838858,63.4258107 C27.7082922,63.739825 28.5586679,64.9708408 29.0484938,64.6476842 C33.1659567,61.9300689 38.128656,60.7940524 43.0091246,61.4765368 C43.7310149,61.5771009 43.1316799,60.2475085 42.6082501,60.174371" id="Fill-171" fill="#347149"></path>
        </g>
        <g id="Group-178" transform="translate(60.613636, 81.178977)">
            <path d="M4.17803415,8.88223839 C2.63238642,8.1426979 1.25542007,6.90065955 0.662842016,5.27017979 C0.0702639653,3.63970004 0.406430383,1.61306687 1.7136113,0.494420561 C2.08287596,0.178634339 2.55821447,-0.0665261719 3.03275544,0.0174940696 C3.59422913,0.117344212 4.05919952,0.418112322 4.75186983,0.888950391 C5.49917216,1.39672489 6.37049318,2.14641275 6.63049378,2.9914859 C7.00813269,4.22012972 7.33313343,5.68541026 6.92678281,6.9047185 C6.78242664,7.33659066 6.50049348,7.70960806 6.17509396,8.02295891 C5.63595161,8.54209847 4.96441633,8.91795714 4.24502817,9.10304521 L4.17803415,8.88223839 Z" id="Fill-174" fill="#FDAF98"></path>
            <path d="M4.74046489,9.45065359 C3.72638281,9.40072852 2.8746017,8.58122674 2.22539776,7.78689045 C2.07426244,7.60180238 1.93150138,7.39641957 1.89401663,7.15856516 C1.85653188,6.92111665 1.95423149,6.64632582 2.1711645,6.55094052 C2.35380296,6.47097923 2.56435559,6.53308114 2.74819037,6.60979528 C3.42610604,6.89148633 4.02705834,7.3619185 4.46850108,7.95655451 C4.01190493,7.16790075 3.83205789,6.21729492 3.96843858,5.31255522 C3.99435888,5.14126758 4.0414142,4.95496183 4.1805863,4.85470579 C4.32534124,4.75120259 4.53150736,4.77636808 4.6806488,4.87297106 C4.83018903,4.96957404 4.93347147,5.1238141 5.0231956,5.27886594 C5.41279773,5.95265146 5.62534423,6.73075195 5.63411725,7.51209961 C5.59543618,6.70639826 5.67798239,5.89460849 5.87776812,5.11366673 C5.91644919,4.96307972 5.96190942,4.80843377 6.06200167,4.69031836 C6.16169516,4.57260884 6.3307753,4.50117134 6.47194127,4.56083789 C6.56645069,4.60102148 6.63145084,4.68950657 6.68568409,4.77758576 C7.2084767,5.6234707 7.65031821,6.80787198 7.17418215,7.68216957 C6.69764731,8.55606126 6.54411935,9.53954457 4.74046489,9.45065359" id="Fill-176" fill="#80A85E"></path>
        </g>
        <polygon id="Fill-179" fill="#0EA7C7" points="127.721591 104.696048 129.662639 125.556818 182.923295 125.45994 180.01133 94.1676136"></polygon>
        <polygon id="Fill-180" fill="#68CADE" points="122.309659 109.229245 123.630296 122.310713 129.886364 125.556818 127.809573 104.991477"></polygon>
        <polygon id="Fill-181" fill="#005066" points="121.719414 112.568182 122.309659 119.976599 120.735456 120.144886 120.144886 112.73647"></polygon>
        <polygon id="Fill-182" fill="#005066" points="119.554641 112.568182 120.144886 119.976599 118.570683 120.144886 117.980114 112.73647"></polygon>
        <polygon id="Fill-183" fill="#005066" points="181.840909 94.7402318 184.627513 126.639205 190.5 126.066985 187.713396 94.1676136"></polygon>
    </g>
</svg>
