<svg xmlns="http://www.w3.org/2000/svg" xmlns:xlink="http://www.w3.org/1999/xlink" width="133" height="99" version="1.1" viewBox="110 76 133 99"><desc>Created with Sketch.</desc><defs><polygon id="path-1" points="86.65 .164 .413 .164 .413 98 86.65 98 86.65 .164"/><polygon id="path-3" points="0 98 132 98 132 1 0 1"/></defs><g id="Icon" fill="none" fill-rule="evenodd" stroke="none" stroke-width="1" transform="translate(110.500000, 76.000000)"><g id="Group-3" transform="translate(33.000000, 0.000000)"><mask id="mask-2" fill="#fff"><use xlink:href="#path-1"/></mask><path id="Fill-1" fill="#FFF" d="M59.5340881,98 C65.7641898,98 70.8144949,92.8949538 70.8144949,86.5973231 L70.8144949,75.9997538 C70.8144949,70.1001538 73.9645966,64.9453538 78.6569356,62.1561231 C83.8623593,59.0623385 86.6500203,53.0255385 86.6500203,46.9208923 L86.6500203,45.2428308 C86.6500203,22.0273846 69.3199864,1.75796923 46.4012068,0.257815385 C21.2883932,-1.38556923 0.41300339,18.718 0.41300339,43.7502154 L0.41300339,46.9812 C0.41300339,53.0692615 3.18425763,59.0894769 8.36581695,62.1908 C13.0328,64.9845538 16.1620203,70.1197538 16.1620203,75.9997538 L16.1620203,86.5973231 C16.1620203,92.8949538 21.2123254,98 27.4424271,98 L59.5340881,98 Z" mask="url(#mask-2)"/></g><path id="Fill-4" fill="#005066" d="M72,49.5 C72,54.7478067 67.7466305,59 62.5007576,59 C57.2533695,59 53,54.7478067 53,49.5 C53,44.2521933 57.2533695,40 62.5007576,40 C67.7466305,40 72,44.2521933 72,49.5"/><path id="Fill-6" fill="#005066" d="M101,49.5 C101,54.7478067 96.7466305,59 91.5007576,59 C86.2533695,59 82,54.7478067 82,49.5 C82,44.2521933 86.2533695,40 91.5007576,40 C96.7466305,40 101,44.2521933 101,49.5"/><path id="Fill-8" fill="#005066" d="M71.3584329,69.0679367 L74.710806,63.3108141 C75.7289002,61.563062 78.2726069,61.563062 79.2891724,63.3108141 L82.6415455,69.0679367 C83.6596396,70.8156888 82.3877863,73 80.3531266,73 L73.6483804,73 C71.6121921,73 70.3403388,70.8156888 71.3584329,69.0679367"/><path id="Stroke-10" stroke="#005066" stroke-width="3.459" d="M49,84 L104,84"/><path id="Fill-12" fill="#80A85E" d="M129.765462,98 L51.8429383,98 C46.9600142,98 43,93.97067 43,89.0022756 L43,88.9992415 C43,88.5456384 43.0313104,88.0981037 43.098404,87.6627054 C43.7320659,83.3269279 47.405814,80 51.8429383,80 L110.321732,80 C110.560288,80 110.797352,80.0060683 111.034416,80.0182048 C111.250606,80.0273072 111.465306,80.0439949 111.678514,80.0621997 C111.94838,80.0879899 112.21079,80.1213654 112.474692,80.1623262 C112.787796,80.2063211 113.096426,80.2624526 113.403566,80.3307206 C113.516879,80.3534766 113.628702,80.3807838 113.739034,80.406574 C114.181852,80.5127686 114.615724,80.6386852 115.046614,80.7858407 C116.559948,81.3046776 117.985314,82.0662453 119.27053,83.0462705 C119.452428,83.1858407 119.631344,83.3299621 119.805788,83.4771176 C119.898228,83.5529709 119.987686,83.6303413 120.074162,83.7092288 C120.160638,83.7835651 120.245623,83.8594185 120.329118,83.9352718 L124.350262,87.6627054 L131.263886,94.0495575 C132.774238,95.4452592 131.805108,98 129.765462,98"/><path id="Fill-14" fill="#2B5B3B" d="M119.99132,84.1093069 L124,88 L43,88 C43.6316977,83.4724752 47.2940583,80 51.7174288,80 L110.016442,80 C110.252771,80 110.4891,80.0063366 110.725429,80.0190099 C110.94095,80.0269307 111.154984,80.0459406 111.369018,80.0649505 C111.63656,80.0918812 111.899644,80.1251485 112.161241,80.169505 C112.473374,80.2154455 112.781048,80.2740594 113.087236,80.3437624 C113.200198,80.3691089 113.311674,80.3960396 113.421664,80.4245545 C113.863109,80.5338614 114.295636,80.6669307 114.725191,80.8205941 C116.233834,81.3607921 117.654782,82.1576238 118.936014,83.1809901 C119.117348,83.3251485 119.908085,84.030099 119.99132,84.1093069"/><mask id="mask-4" fill="#fff"><use xlink:href="#path-3"/></mask><polygon id="Fill-16" fill="#FB7A54" points="1 28 31 28 31 26 1 26" mask="url(#mask-4)"/><polygon id="Fill-18" fill="#FB7A54" points="0 25 4 27.499 0 30" mask="url(#mask-4)"/><path id="Fill-19" fill="#80A85E" d="M122,24.9984828 L122,25.0015172 C122,29.9703304 118.04777,34 113.174444,34 L22.6540883,34 C15.6037621,34 9.52958907,29.7503372 6.69785188,23.6618341 C5.61753596,21.3541807 5,18.7279164 5,16 L113.174444,16 C117.602846,16 121.269373,19.3256912 121.901789,23.6618341 C121.968751,24.097269 122,24.5448415 122,24.9984828" mask="url(#mask-4)"/><path id="Fill-20" fill="#2B5B3B" d="M122,24 L6.6991485,24 C5.61800756,21.5909721 5,18.8493368 5,16 L113.26599,16 C117.697774,16 121.367101,19.4733716 122,24" mask="url(#mask-4)"/><path id="Fill-21" fill="#80A85E" d="M28,23.5 C28,25.9857143 26.2095238,28 24,28 C21.7904762,28 20,25.9857143 20,23.5 C20,21.0142857 21.7904762,19 24,19 C26.2095238,19 28,21.0142857 28,23.5" mask="url(#mask-4)"/><path id="Fill-22" fill="#005066" d="M26,23 C26,24.1051852 25.1051852,25 24,25 C22.8948148,25 22,24.1051852 22,23 C22,21.8948148 22.8948148,21 24,21 C25.1051852,21 26,21.8948148 26,23" mask="url(#mask-4)"/><path id="Fill-23" fill="#005066" d="M70.28585,70.0528179 L74.6722631,62.9813121 C75.484447,61.672896 77.5149067,61.672896 78.3286406,62.9813121 L82.7135037,70.0528179 C83.5272376,71.3626766 82.5104578,73 80.8860899,73 L72.1132638,73 C70.4888959,73 69.4736661,71.3626766 70.28585,70.0528179" mask="url(#mask-4)"/><path id="Fill-24" fill="#005066" d="M101,49.5 C101,54.7478067 96.7466305,59 91.5007576,59 C86.2533695,59 82,54.7478067 82,49.5 C82,44.2521933 86.2533695,40 91.5007576,40 C96.7466305,40 101,44.2521933 101,49.5" mask="url(#mask-4)"/><path id="Fill-25" fill="#005066" d="M72,49.5 C72,54.7478067 67.7466305,59 62.5007576,59 C57.2533695,59 53,54.7478067 53,49.5 C53,44.2521933 57.2533695,40 62.5007576,40 C67.7466305,40 72,44.2521933 72,49.5" mask="url(#mask-4)"/></g></svg>