<svg id="Layer_1" xmlns="http://www.w3.org/2000/svg" viewBox="0 0 512 512"><style>.st0{fill:#ec4989}.st1{fill:none}.st2{fill:#fff}</style><circle class="st0" cx="256" cy="256" r="256"/><path class="st1" d="M-1986.6-16650.2h7168V4572.2h-7168z"/><path class="st2" d="M294.8 268.3c14 38.5 19.7 69.7 20.7 76.1 23.9-16.2 40.9-41.8 45.7-71.5-2.1-.7-31.9-10.1-66.4-4.6zm-15.9-37.8c2.5 5.1 4.9 10.2 7.1 15.5.8 1.8 1.6 3.7 2.3 5.5 36.8-4.6 73 3.2 74.2 3.5-.3-25.3-9.3-48.5-24.2-66.6-.2.2-17.3 24.9-59.4 42.1zm-4.8 42.9c-62.5 21.8-83.2 65.6-83.6 66.5 18.1 14.1 40.8 22.6 65.5 22.6 14.8 0 28.8-3 41.6-8.4-1.6-9.3-7.8-42-22.8-80.9-.2.1-.4.1-.7.2zM256 380.8c-68.9 0-124.8-55.9-124.8-124.8S187.1 131.2 256 131.2 380.8 187.1 380.8 256 324.9 380.8 256 380.8zM326.4 176c-18.8-16.5-43.4-26.6-70.4-26.6-8.7 0-17.1 1.1-25.1 3 1.6 2.1 21.6 28.7 39.8 62.2 40.2-15.1 55.4-38.1 55.7-38.6zm-95.9-23.5c-.1 0-.2 0-.3.1.2 0 .3-.1.3-.1zm-40 187.5c-.8-.7-1.6-1.2-2.4-1.9 1.4 1.2 2.4 1.9 2.4 1.9zm72.9-83.2c1.4-.4 2.8-.9 4.2-1.3-2.7-6.1-5.6-12.1-8.6-18.1-54.9 16.4-107.5 15.2-109.4 15.2 0 1.1-.1 2.2-.1 3.4 0 27.4 10.4 52.4 27.3 71.3l-.1-.1s29.2-51.8 86.7-70.4zM250.1 221c-18.4-32.7-38.1-59.4-39.6-61.4-29.7 14-51.9 41.4-58.8 74.4 2.8.1 47.2.6 98.4-13z"/></svg>