<svg id="Layer_1" xmlns="http://www.w3.org/2000/svg" viewBox="0 0 512 512"><style>.st0{fill:#97c673}.st1{fill:#fff}</style><path class="st0" d="M0 0h512v512H0z"/><path class="st1" d="M255.8 280.9v-33.2c0-23.2-17.9-42.1-40.1-42.7h-1-1c-11.5.3-21 5.3-27.4 13.2v-10h-41.1v9.5h3.2c3.5 0 6.3 2.8 6.3 6.3v56.9c0 3.5-2.8 6.3-6.3 6.3h-6.3V303h53.8v-15.8h-3.2c-3.5 0-6.3-2.8-6.3-6.3V243c0-12.2 9.9-22.1 22.1-22.1 8.7 0 15.8 9.9 15.8 22.1v38c0 3.5-2.8 6.3-6.3 6.3h-3.2V303h53.8v-15.8h-6.3c-3.7 0-6.5-2.8-6.5-6.3zM406.8 330.1l-4.3 10.9c-4.1 7.7-11.3 12.8-20.2 12.8-5.3 0-10.3-1.9-14.3-5-.7-.6-2.6-2.4-4.2-6 5.3-2.6 9-8 9-14.3 0-8.7-7.1-15.8-15.8-15.8-8.7 0-15.8 7.1-15.8 15.8 0 22.7 18.4 41.1 41.1 41.1 18.3 0 33.9-12 39.2-28.6l46.8-117c1.4-3.5 5.4-6.3 8.9-6.3h6.9v-9.5h-47.4v9.5h8.9c3.4 0 5.2 2.7 3.9 6.2l-22.6 56.6L410 224c-1-3.5.9-6.3 4.4-6.3h6.6v-9.5h-92.4v9.5h3.5c3.5 0 5.5 2.8 4.4 6.3l-15.8 57-15.8-57c-1-3.5.9-6.3 4.4-6.3h6.7v-9.5h-60.1v9.5h6c3.4 0 7 2.7 8.1 6l23.8 79.3h34.8l23.8-79.4c1.1-3.3 4.7-6 8.1-6h6.3c3.4 0 7 2.7 8.1 6l31.9 106.5zM91.3 205c-27.9 0-50.6 22.6-50.6 50.6s22.6 50.6 50.6 50.6c22.4 0 41.4-14.6 48.1-34.8h-22.7c0 1.1-7 15-21.5 15-18.3 0-23.8-22.4-23.8-26.4h70.3c.1-1.4.2-2.9.2-4.4 0-28-22.7-50.6-50.6-50.6zm-19 41.1c0-14 9.9-25.3 22.1-25.3s22.1 11.3 22.1 25.3H72.3z"/></svg>