<svg id="Layer_1" xmlns="http://www.w3.org/2000/svg" xmlns:xlink="http://www.w3.org/1999/xlink" viewBox="0 0 512 512"><style>.st0{clip-path:url(#SVGID_2_)}.st1{fill:#68cade}.st2{clip-path:url(#SVGID_2_);fill:#fb7a54}.st3{fill:#005066}.st4{fill:#0ea7c7}.st5{fill:#fff}.st6{fill:#ffce00}</style><defs><circle id="SVGID_1_" cx="256" cy="256" r="256"/></defs><clipPath id="SVGID_2_"><use xlink:href="#SVGID_1_" overflow="visible"/></clipPath><g class="st0"><path class="st1" d="M-54.4-54.4h620.8v620.8H-54.4z"/></g><path class="st2" d="M362.3 404.6c-14.1-9.5-30.5-16.2-48.6-20.1l-41.1-8.8c-39.8-8.6-68.8-44.5-68.8-85.4v-82.7c0-10 5.8-15.7 9.3-18.2 2.2-1.6 6-3.7 11-4.1l123.1 50.2c22.5-55.5-4-118.6-59.1-141.5l.1-.2-5.5-1.9c-.5-.2-.9-.3-1.4-.5l-14.5-4.9c-38.8-13.2-81.9-6.8-115.2 17.1-33.4 23.9-53.4 62.8-53.4 103.9v82.7c0 90.3 64 169.6 152.1 188.5l41.1 8.8c5 1.1 9.2 2.7 12.1 4.7 22 14.7 35.1 39.4 35.1 65.9v38c0 43.7-35.4 79.3-79 79.3H183v105.5h76.6c101.7 0 184.5-82.9 184.5-184.8v-38c.1-61.7-30.5-119.1-81.8-153.5z"/><g class="st0"><ellipse class="st3" cx="294.6" cy="155.5" rx="9.9" ry="9.9"/></g><g class="st0"><path class="st3" d="M429.6 141.8l-9.6 29.4c-1.7 5-4.1 9.4-7.5 13.1v.1c-2.7 3.1-5.8 5.7-9.3 7.8-8.1 5-18.2 6.9-28.3 4.7-13.7-3-24.4-13.8-28.8-27.1-1.8-5.7-10-5.7-11.8 0l-.5 1.5c-1.8 5.9-5 10.9-9.2 15-1.5 1.6-3.1 2.9-4.9 4.1-1.6 1.2-3.3 2.2-5 3.1-5.3 2.8-11.4 4.2-17.6 4.2-16.7 0-31.5-10.6-36.8-26.5l-9.6-29.4h178.9z"/><path class="st4" d="M412.5 184.3c-2.7 3.2-5.8 5.8-9.3 7.9l-50.4-50.4H370l42.5 42.5zM324.6 186.2c-1.5 1.6-3.1 2.9-4.9 4.1-1.6 1.2-3.3 2.2-5 3.1L263 141.8h17.1l44.5 44.4z"/><path class="st5" d="M393 165.6c6.9-.4 8.4-2.3 8.4-2.3s-1.6-1.9-8.4-2.3c-.4-6.9-2.3-8.4-2.3-8.4s-1.9 1.6-2.3 8.4c-6.9.4-8.4 2.3-8.4 2.3s1.6 1.9 8.4 2.3c.4 6.9 2.3 8.4 2.3 8.4s1.9-1.5 2.3-8.4z"/><g><path class="st5" d="M288.6 185c6.9-.4 8.4-2.3 8.4-2.3s-1.6-1.9-8.4-2.3c-.4-6.9-2.3-8.4-2.3-8.4s-1.9 1.6-2.3 8.4c-6.9.4-8.4 2.3-8.4 2.3s1.6 1.9 8.4 2.3c.4 6.9 2.3 8.4 2.3 8.4s1.9-1.5 2.3-8.4z"/></g></g><g class="st0"><path class="st6" d="M355.3 198.3v64.1c0 2.8-.2 5.6-.7 8.2-3.9 29.7-29.3 52.6-60 52.6V198.3h60.7z"/></g><g class="st0"><path class="st3" d="M354.6 270.5c-3.9 29.7-29.3 52.6-60 52.6v-52.6h60z"/></g></svg>