<svg id="Layer_1" xmlns="http://www.w3.org/2000/svg" viewBox="0 0 512 512"><style>.st0{fill:#005066}.st1{fill:none}.st2{fill:#fff}</style><circle class="st0" cx="256" cy="256" r="256"/><path class="st1" d="M-1986.6-16650.2h7168V4572.2h-7168v-21222.4z"/><path class="st2" d="M256 154.3c33.2 0 37 .1 50.1.7 12.1.5 18.6 2.6 23.1 4.3 5.8 2.2 10 5 14.3 9.2 4.3 4.3 7.1 8.5 9.2 14.3 1.7 4.5 3.8 10.9 4.3 23.1.5 13.1.7 16.9.7 50.1s-.1 37-.7 50.1c-.5 12.1-2.6 18.6-4.3 23.1-2.2 5.8-5 10-9.2 14.3-4.3 4.3-8.5 7.1-14.3 9.2-4.5 1.7-10.9 3.8-23.1 4.3-13.1.5-16.9.7-50.1.7s-37-.1-50.1-.7c-12.1-.5-18.6-2.6-23.1-4.3-5.8-2.2-10-5-14.3-9.2-4.3-4.3-7.1-8.5-9.2-14.3-1.7-4.5-3.8-10.9-4.3-23.1-.5-13.1-.7-16.9-.7-50.1s.1-37 .7-50.1c.5-12.1 2.6-18.6 4.3-23.1 2.2-5.8 5-10 9.2-14.3 4.3-4.3 8.5-7.1 14.3-9.2 4.5-1.7 10.9-3.8 23.1-4.3 13.1-.5 16.9-.7 50.1-.7m0-22.4c-33.7 0-37.9.1-51.2.7-13.1.5-22.2 2.8-30 5.8-8.3 3.1-15.1 7.3-22 14.3s-11.2 13.8-14.3 22c-3 7.9-5.1 16.9-5.8 30-.5 13.1-.7 17.5-.7 51.2s.1 37.9.7 51.2c.5 13.1 2.8 22.2 5.8 30 3.1 8.3 7.3 15.1 14.3 22 7 7 13.8 11.2 22 14.3 7.9 3 16.9 5.1 30 5.8 13.1.7 17.5.7 51.2.7s37.9-.1 51.2-.7c13.1-.5 22.2-2.8 30-5.8 8.3-3.1 15.1-7.3 22-14.3 7-7 11.2-13.8 14.3-22 3-7.9 5.1-16.9 5.8-30 .5-13.3.7-17.5.7-51.2s-.1-37.9-.7-51.2c-.5-13.1-2.8-22.2-5.8-30-3.1-8.3-7.3-15.1-14.3-22-7-7-13.8-11.2-22-14.3-7.9-3-16.9-5.1-30-5.8-13.3-.4-17.5-.7-51.2-.7z"/><path class="st2" d="M337.1 189.8c0 2-.4 3.9-1.2 5.6-.8 1.8-1.8 3.4-3.3 4.9s-3 2.5-4.9 3.3c-1.8.8-3.8 1.2-5.6 1.2-2 0-3.9-.4-5.6-1.2-1.8-.8-3.4-1.8-4.9-3.3s-2.5-3-3.3-4.9c-.8-1.8-1.2-3.8-1.2-5.6 0-2 .4-3.9 1.2-5.6.8-1.8 1.8-3.4 3.3-4.9s3-2.5 4.9-3.3c1.8-.8 3.8-1.2 5.6-1.2 2 0 3.9.4 5.6 1.2 1.8.8 3.4 1.8 4.9 3.3 1.4 1.4 2.5 3 3.3 4.9.8 1.8 1.2 3.6 1.2 5.6zm-81.1 2.5c-35.2 0-63.8 28.5-63.8 63.8 0 35.2 28.6 63.8 63.8 63.8s63.8-28.6 63.8-63.8-28.6-63.8-63.8-63.8zm0 105.1c-22.8 0-41.3-18.5-41.3-41.3 0-22.8 18.5-41.3 41.3-41.3 22.8 0 41.3 18.5 41.3 41.3 0 22.8-18.5 41.3-41.3 41.3z"/></svg>