<svg width="163" height="113" viewBox="106 68 163 113" xmlns="http://www.w3.org/2000/svg" xmlns:xlink="http://www.w3.org/1999/xlink"><defs><path id="a" d="M61.624 11h61.266V0H.358v11z"/><path id="c" d="M0 113h163V0H0z"/></defs><g fill="none" fill-rule="evenodd" transform="translate(106 68)"><g transform="translate(40 102)"><mask id="b" fill="#fff"><use xlink:href="#a"/></mask><path d="M116.312 0H.358v11h122.533V6.6c0-3.645-2.945-6.6-6.579-6.6" fill="#FFF" mask="url(#b)"/></g><path d="M40 102h11.25c3.728 0 6.75 2.955 6.75 6.6v4.4H40v-11z" fill="#0EA7C7"/><path d="M49 12v101H22.112C9.884 113 0 103.198 0 91.072V52.611c0-8.772 4.378-16.95 11.72-21.84l34.229-17.675A11.25 11.25 0 0 1 49 12" fill="#0EA7C7"/><path d="M135 22.933V102H40V22.933c0-4.155 2.328-7.762 5.755-9.621a11.148 11.148 0 0 1 3.031-1.093c.703-.153 1.45-.219 2.197-.219h73.034C130.08 12 135 16.898 135 22.933" fill="#FFF"/><path d="M92 88a4 4 0 1 1-3.999-4A3.999 3.999 0 0 1 92 88" fill="#0EA7C7"/><mask id="d" fill="#fff"><use xlink:href="#c"/></mask><path fill="#005066" mask="url(#d)" d="M52 78h72V23H52zM45 102h8v-3h-8zM58 102h8v-3h-8zM70 102h8v-3h-8zM83 102h8v-3h-8zM96 102h8v-3h-8zM109 102h8v-3h-8zM122 102h8v-3h-8zM135 102h8v-3h-8zM148 102h8v-3h-8z"/><path d="M60 78c0-15.457 12.543-28 27.999-28S116 62.543 116 78" stroke="#0EA7C7" stroke-width="2" mask="url(#d)"/><path d="M65.5 78c0-12.143 10.08-22 22.501-22 12.42 0 22.499 9.857 22.499 22" stroke="#0EA7C7" stroke-width="2" mask="url(#d)"/><path d="M71.5 78c0-9.384 7.392-17 16.5-17s16.5 7.616 16.5 17" stroke="#0EA7C7" stroke-width="2" mask="url(#d)"/><path d="M77 78c0-6.073 4.929-11 10.999-11C94.07 67 99 71.927 99 78" stroke="#0EA7C7" stroke-width="2" mask="url(#d)"/><path d="M82.5 78c0-3.31 2.464-6 5.501-6 3.035 0 5.499 2.69 5.499 6" stroke="#0EA7C7" stroke-width="2" mask="url(#d)"/><path d="M161 25.992c0 2.208-.278 4.355-.802 6.41a25.815 25.815 0 0 1-5.747 10.841 25.814 25.814 0 0 1-14.038 8.186c-1.746.37-3.552.571-5.405.571a25.903 25.903 0 0 1-19.461-8.757 25.726 25.726 0 0 1-4.772-7.768A26.182 26.182 0 0 1 109 25.992c0-3.335.632-6.533 1.79-9.467C114.56 6.857 123.98 0 135.008 0c1.853 0 3.659.201 5.405.57 9.745 2.055 17.483 9.607 19.846 19.23.479 1.991.741 4.061.741 6.192" fill="#F43C2A" mask="url(#d)"/><path d="M161 26.492c0 2.214-.276 4.367-.799 6.427a25.95 25.95 0 0 1-5.72 10.872c-3.597 4.103-8.47 7.047-13.973 8.209-5.52-1.162-10.392-4.106-13.991-8.209a25.83 25.83 0 0 1-4.75-7.79A26.425 26.425 0 0 1 120 26.492c0-3.345.629-6.551 1.782-9.493C124.902 8.93 131.912 2.813 140.508 1c9.7 2.06 17.402 9.634 19.754 19.283.477 1.996.738 4.072.738 6.21" fill="#FB7A54" mask="url(#d)"/><path d="M161 25.5c0 2.187-.278 4.313-.802 6.348a23.06 23.06 0 0 1-2.842-2.263c-1.7-1.576-4.31-1.606-6.024-.047-2.842 2.585-7.12 5.462-12.077 5.462-5.513 0-9.915-3.183-12.65-5.858-1.683-1.118-3.921-.996-5.451.396-2.516 2.28-6.147 4.789-10.38 5.354A25.713 25.713 0 0 1 109 25.5c0-3.304.632-6.471 1.79-9.377 4.156.613 7.909 3.274 10.473 5.6a4.413 4.413 0 0 0 5.266.473C129.4 19.442 134.05 16 139.255 16c4.833 0 9.266 3.076 12.186 5.722a4.385 4.385 0 0 0 5.9-.015 27.174 27.174 0 0 1 2.918-2.34c.479 1.972.741 4.022.741 6.133" fill="#F99A1C" mask="url(#d)"/><path d="M120 31.354c-2.398 2.075-5.612 4.133-9.279 4.646A26.86 26.86 0 0 1 109 26.491c0-3.344.604-6.548 1.736-9.491 3.545.543 6.789 2.665 9.234 4.77a27.083 27.083 0 0 0-.408 4.721c0 1.657.152 3.283.438 4.863" fill="#FB7A54" mask="url(#d)"/><path d="M147 26.5a7.5 7.5 0 1 1-15 0 7.5 7.5 0 0 1 15 0" fill="#F43C2A" mask="url(#d)"/><path d="M126.884 43H116c4.788 5.524 11.786 9 19.576 9 1.864 0 3.683-.207 5.424-.586-5.565-1.191-10.494-4.208-14.116-8.414" fill="#FB7A54" mask="url(#d)"/><path d="M126 43a25.745 25.745 0 0 0 13.976 8c.109-.015.216-.03.31-.062.43-.09.845-.194 1.276-.316.447-.12.878-.241 1.31-.393a19.443 19.443 0 0 0 2.093-.8c.277-.106.538-.226.784-.347.985-.453 1.955-.98 2.863-1.553.277-.182.538-.363.817-.545A25.924 25.924 0 0 0 154 43h-28z" fill="#F99A1C" mask="url(#d)"/></g></svg>