<svg width="153px" height="136px" viewBox="111 57 153 136" version="1.1" xmlns="http://www.w3.org/2000/svg" xmlns:xlink="http://www.w3.org/1999/xlink">
    <!-- Generator: Sketch 40.3 (33839) - http://www.bohemiancoding.com/sketch -->
    <desc>Created with Sketch.</desc>
    <defs>
        <polygon id="path-1" points="0 136 152.06432 136 152.06432 0 0 0"></polygon>
    </defs>
    <g id="Icon" stroke="none" stroke-width="1" fill="none" fill-rule="evenodd" transform="translate(111.000000, 57.000000)">
        <polygon id="Fill-1" fill="#FB7A54" points="119.20672 136 132.804 136 132.804 0 119.20672 0"></polygon>
        <polygon id="Fill-2" fill="#F99A1C" points="10.40672 136 119.20944 136 119.20944 0 10.40672 0"></polygon>
        <polygon id="Fill-3" fill="#FFFFFF" points="37.604 122.39184 105.604 122.39184 105.604 13.59184 37.604 13.59184"></polygon>
        <g id="Group-24">
            <path d="M68.581264,78.927872 C55.876144,78.927872 45.578224,68.629952 45.578224,55.924832 C45.578224,43.219712 55.876144,32.919072 68.581264,32.919072 L68.581264,78.927872 L68.581264,78.927872 Z" id="Fill-4" fill="#DAF2F8"></path>
            <path d="M75.043984,41.533312 C83.617424,41.533312 90.567024,48.482912 90.567024,57.056352 C90.567024,65.629792 83.617424,72.582112 75.043984,72.582112 L75.043984,41.533312 Z" id="Fill-6" fill="#DAF2F8"></path>
            <mask id="mask-2" fill="white">
                <use xlink:href="#path-1"></use>
            </mask>
            <g id="Clip-9"></g>
            <polygon id="Fill-8" fill="#DAF2F8" mask="url(#mask-2)" points="68.57936 96.5464 99.19024 96.5464 99.19024 86.03904 68.57936 86.03904"></polygon>
            <polygon id="Fill-10" fill="#DAF2F8" mask="url(#mask-2)" points="50.83136 103.8632 61.33872 103.8632 61.33872 89.89056 50.83136 89.89056"></polygon>
            <path d="M95.167632,76.902832 C95.167632,79.622832 92.964432,81.826032 90.244432,81.826032 C87.527152,81.826032 85.321232,79.622832 85.321232,76.902832 C85.321232,74.182832 87.527152,71.979632 90.244432,71.979632 C92.964432,71.979632 95.167632,74.182832 95.167632,76.902832" id="Fill-11" fill="#DAF2F8" mask="url(#mask-2)"></path>
            <polygon id="Fill-12" fill="#FB7A54" mask="url(#mask-2)" points="24.004 122.39184 37.604 122.39184 37.604 13.59184 24.004 13.59184"></polygon>
            <polygon id="Fill-13" fill="#68CADE" mask="url(#mask-2)" points="142.8272 64.59184 148.16384 64.59184 148.16384 57.88432 142.8272 57.88432"></polygon>
            <polygon id="Fill-14" fill="#FFFFFF" mask="url(#mask-2)" points="77.31056 64.59184 142.82448 64.59184 142.82448 57.88432 77.31056 57.88432"></polygon>
            <path d="M79.526,28.731088 C75.89752,28.731088 72.9572,31.671408 72.9572,35.299888 L74.97544,46.405648 L74.97544,46.802768 L72.9572,59.113488 L74.97544,59.113488 L81.6612,59.113488 L86.0948,59.113488 L88.11304,59.113488 L145.8124,59.113488 L145.8124,28.731088 L79.526,28.731088 Z" id="Fill-15" fill="#68CADE" mask="url(#mask-2)"></path>
            <path d="M152.063232,59.114848 L138.925632,59.114848 L140.976512,46.594688 L138.925632,35.301248 C138.925632,31.672768 141.865952,28.732448 145.494432,28.732448 L145.494432,28.732448 C149.122912,28.732448 152.063232,31.672768 152.063232,35.301248 L149.957952,46.695328 L152.063232,59.114848 Z" id="Fill-16" fill="#0EA7C7" mask="url(#mask-2)"></path>
            <path d="M132.994944,88.052656 C132.994944,89.649296 131.700224,90.941296 130.106304,90.941296 C128.509664,90.941296 127.214944,89.649296 127.214944,88.052656 C127.214944,86.456016 130.106304,81.761296 130.106304,81.761296 C130.106304,81.761296 132.994944,86.456016 132.994944,88.052656" id="Fill-17" fill="#005066" mask="url(#mask-2)"></path>
            <path d="M74.975168,46.406464 L141.661408,46.406464" id="Stroke-18" stroke="#0EA7C7" mask="url(#mask-2)"></path>
            <path d="M148.207904,66.30544 L148.207904,63.58272 C148.210624,63.53376 148.207904,63.4848 148.207904,63.43856 L148.207904,63.33792 L148.186144,63.33792 C148.129024,62.89456 147.805344,62.59808 146.885984,62.29344 C142.183104,60.75664 137.616224,62.9408 133.149984,62.48928 C131.188864,62.29344 129.293024,61.99696 127.263904,61.98608 C122.425024,61.95344 118.198144,63.50112 113.427264,63.20464 C110.179584,63.00608 107.135904,61.96432 104.089504,62.40224 C102.870944,62.57904 101.350464,62.97344 100.436544,62.64432 C100.199904,62.56544 100.099264,62.45664 100.031264,62.35872 C99.454624,61.71136 97.161664,60.44112 95.113504,60.44112 C92.624704,60.44112 90.960064,61.45296 90.554784,61.68416 C89.708864,62.1792 86.227264,61.77664 84.502784,61.67872 C82.810944,61.5672 80.950464,61.39312 79.394624,61.66784 C77.194144,62.04048 77.191424,62.33968 77.191424,63.19104 L77.107104,64.14576 L77.164224,64.14576 C76.990144,66.63184 77.188704,67.80416 78.448064,69.1016 C83.164544,73.87792 87.745024,67.0888 92.222144,68.48688 C94.191424,69.1016 96.092704,70.02096 98.127264,70.05632 C102.979744,70.15968 107.220224,65.348 112.004704,66.26736 C115.260544,66.88208 118.315104,70.12432 121.369664,68.75888 C122.590944,68.21488 124.116864,66.98544 125.033504,68.00816 C125.270144,68.24752 125.373504,68.58752 125.441504,68.89488 C126.018144,70.9104 125.242944,71.56864 125.819584,73.6168 C126.224864,75.01488 126.632864,76.48368 127.549504,77.67776 C128.430784,78.83648 129.956704,79.6552 131.381984,79.3152 C133.723904,78.76848 134.436544,75.80096 134.504544,73.37744 C134.504544,72.55872 134.537184,71.70464 134.945184,70.98928 C135.793824,69.4552 139.283584,70.70368 141.016224,71.01104 C142.710784,71.35376 144.576704,71.89776 146.137984,71.0464 C148.343904,69.88496 148.411904,68.8296 148.207904,66.30544" id="Fill-19" fill="#005066" mask="url(#mask-2)"></path>
            <polygon id="Fill-20" fill="#005066" mask="url(#mask-2)" points="1.7136 135.99184 41.1536 135.99184 41.1536 96.19824 1.7136 96.19824"></polygon>
            <polygon id="Fill-21" fill="#0EA7C7" mask="url(#mask-2)" points="1.7136 108.04384 41.1536 108.04384 41.1536 104.3664 1.7136 104.3664"></polygon>
            <polygon id="Fill-22" fill="#005066" mask="url(#mask-2)" points="0 105.90048 42.84 105.90048 42.84 96.20368 0 96.20368"></polygon>
            <path d="M41.555616,100.50536 C40.617216,101.01944 39.493856,100.69032 38.471136,100.4836 C37.429376,100.29864 35.329536,99.54792 34.818176,100.47272 C34.573376,100.90248 34.551616,101.41656 34.551616,101.90888 C34.510816,103.3668 33.683936,105.48296 32.130816,105.48296 C30.313856,105.48296 29.323776,103.77208 29.323776,102.05304 C29.323776,97.91592 27.381696,98.79992 26.644576,99.12904 C24.805856,99.95048 22.969856,98.00024 21.008736,97.63032 C18.128256,97.07544 15.574176,99.97224 12.652896,99.90968 C11.428896,99.88792 10.283776,99.33576 9.100576,98.96584 C6.405056,98.12264 3.646976,102.2108 0.807296,99.33576 C-0.030464,98.4708 -0.090304,97.71464 0.072896,95.86504 L42.801376,95.86504 L42.801376,97.65208 C42.923776,99.17256 42.882976,99.80632 41.555616,100.50536" id="Fill-23" fill="#68CADE" mask="url(#mask-2)"></path>
        </g>
    </g>
</svg>
