<svg id="Layer_1" xmlns="http://www.w3.org/2000/svg" viewBox="0 0 6232.5 2212.5"><style>.st0{fill:#33deac}.st1{fill:#ff8e66}.st2{fill:#005066}</style><path class="st0" d="M535.3 426.7c28.8 59.2 65.7 108.7 109.6 147.2 9.7-.4 18.8-.6 27.6-.6 74.1 0 146.6 12.9 215.4 38.3 65.4 24.1 125.9 58.9 179.9 103.4 55.1-4.6 111.1-20.7 166.8-48 53.3-26.1 98.8-58.7 135.3-96.9 29.3-30.7 53-65.1 70.4-102.2 28.5-61 31.1-109.9 31.3-119.3l.1-26.3-21.1-15.9c-1.6-1.2-160.7-123.6-396.5-8.7-35.9 17.6-68.3 38.1-96.5 60.9l-11.1 9-3.3-13.9c-8.9-37.4-21.5-72.5-38.7-107.4-26.1-53.3-58.7-98.8-96.9-135.3-30.7-29.3-65.1-53-102.2-70.4-61-28.5-110-31.1-119.3-31.3l-26-.2L544 30.2c-1.3 1.6-123.7 160.7-8.7 396.5zm393.9 153.7c.2-.8.3-1 .3-1.5l.1-1.2.4-1.1c.7-2.1 1.5-4.3 2.3-6.5 1.5-4.2 3-8.5 4.4-12.7l.2-.6c18.9-47.8 62.6-115 163.1-163.7 52.2-25.6 104.1-38.6 154.2-38.6h.1c43.9 0 78.3 10.3 99.4 18.9l7.3 3-2 7.6c-11.7 44.8-49.5 128.8-170.8 188-59.2 29-111.2 38.5-153.9 38.5-43.9 0-78-10-99.9-19.1l-7.5-3.1 2.3-7.9zM611 126.8l3.1-7.4 7.7 2.2c31.4 8.9 62.5 24.8 89.9 46.1 39.6 30.8 72.6 72.9 98.1 125.1 49.4 100.9 42.4 180.7 27.9 229.9l-.2.6-.4 1.2c-2.3 6.2-4.5 12.1-6 17.5v.2c-.3 1.2-.8 2.1-1.1 2.8-.1.1-.1.3-.2.4l-2.5 8.3-8.5-2.4c-21.9-6.1-55.3-19.1-90.1-46.1-39.5-30.7-72.5-72.9-97.9-125.2-58.9-120-37.7-210.2-19.8-253.2z"/><path class="st1" d="M57.5 945.4C25.3 1025 9 1109.1 9 1195.3s16.3 170.4 48.5 249.9c33.3 82.4 82.3 156.2 145.6 219.5 63.3 63.2 137.1 112.2 219.5 145.5 79.6 32.2 163.7 48.5 249.9 48.5 86.3 0 170.4-16.3 249.9-48.5 82.4-33.3 156.2-82.3 219.4-145.5 258.8-258.8 258.8-680 0-938.8-129.4-129.4-299.4-194.1-469.4-194.1s-340 64.7-469.4 194.1C139.8 789.2 90.8 863.1 57.5 945.4zm615-275.1c140.2 0 272 54.6 371.3 153.7 50 50 88.8 108.4 115.2 173.6 25.5 62.9 38.4 129.4 38.4 197.6s-12.9 134.7-38.4 197.6c-26.4 65.2-65.1 123.6-115.2 173.6-102.4 102.3-236.8 153.5-371.3 153.5s-268.8-51.1-371.2-153.5c-50-50-88.8-108.4-115.2-173.6-25.5-62.9-38.4-129.4-38.4-197.6s12.9-134.7 38.4-197.6C212.5 932.4 251.2 874 301.3 824c99.2-99.1 231-153.7 371.2-153.7z"/><path class="st1" d="M819 1036.1l64.9-64.9c10-10 9.3-26.6-1.8-35.6-59.1-47.8-132.3-73.8-209.5-73.8-89.2 0-173 34.6-235.9 97.6-130.1 130.1-130.1 341.7 0 471.8 31.7 31.8 68.8 56.4 110.2 73.2 40 16.2 82.2 24.4 125.6 24.4 43.4 0 85.6-8.2 125.6-24.4 30.4-12.3 58.5-28.9 83.9-49.4 11-8.9 11.8-25.5 1.8-35.5l-64.8-64.8c-8.4-8.4-21.6-9.4-31.1-2.4-76.2 56.1-184.2 49.7-253.1-19.2-75.9-75.9-75.9-199.5 0-275.4 36.7-36.7 85.6-56.9 137.7-56.9 42.1 0 82.1 13.2 115.3 37.7 9.5 6.9 22.8 6 31.2-2.4z"/><path class="st2" d="M1880 568.6c-150 0-272.1 122.1-272.1 272.1s122.1 272.1 272.1 272.1 272.1-122.1 272.1-272.1c0-150.1-122.1-272.1-272.1-272.1zm0 427.7c-85.8 0-155.6-69.8-155.6-155.6s69.8-155.6 155.6-155.6 155.6 69.8 155.6 155.6-69.8 155.6-155.6 155.6zm789.7-231.8c0-102.8-83.6-186.4-186.4-186.4h-135c-45.4 0-82.3 36.9-82.3 82.3v385.1c0 32.2 26.1 58.3 58.3 58.3s58.3-26.1 58.3-58.3V951h90.8c18.2 24.4 57 79.7 89.7 127.5 11.3 16.5 29.5 25.3 48.1 25.3 11.3 0 22.8-3.3 32.9-10.2 26.5-18.2 33.3-54.5 15.1-81-.3-.4-25.7-37.5-51.5-74.2-5.7-8.1-11-15.6-15.9-22.4 47.1-33.9 77.9-89.1 77.9-151.5zm-287.2-69.9h100.8c38.6 0 69.9 31.4 69.9 69.9 0 38.6-31.4 69.9-69.9 69.9h-100.8V694.6zm261.8 775.8c0-102.8-83.6-186.4-186.4-186.4h-135c-45.4 0-82.3 36.9-82.3 82.3v385.1c0 32.2 26.1 58.3 58.3 58.3s58.3-26.1 58.3-58.3v-94.5h90.8c18.2 24.4 57 79.7 89.7 127.5 11.3 16.5 29.5 25.3 48.1 25.3 11.3 0 22.8-3.3 32.9-10.2 26.5-18.2 33.3-54.5 15.1-81-.3-.4-25.7-37.5-51.5-74.1-5.7-8.1-11-15.6-15.9-22.4 47.1-34 77.9-89.3 77.9-151.6zm-287.2-69.9h100.8c38.6 0 69.9 31.4 69.9 69.9 0 38.6-31.4 69.9-69.9 69.9h-100.8v-139.8zm765-416.6h-183V635.7c0-32.2-26.1-58.3-58.3-58.3s-58.3 26.1-58.3 58.3v379.1c0 47.2 38.4 85.7 85.7 85.7h213.9c32.2 0 58.3-26.1 58.3-58.3-.1-32.2-26.1-58.3-58.3-58.3zm1224.3 112.3c22.1-8.9 36.5-30.3 36.5-54V636.4c0-32.2-26.1-58.3-58.3-58.3-32.2 0-58.3 26.1-58.3 58.3v261L3976 595.3c-16.5-17.1-41.7-22.6-63.8-13.7-22.1 8.9-36.5 30.3-36.5 54v409.8c0 32.2 26.1 58.3 58.3 58.3s58.3-26.1 58.3-58.3v-265l290.4 302.2c16.4 17.1 41.7 22.5 63.7 13.6zm628.8-259c0-142.8-116.2-259-259-259h-105.6c-45.4 0-82.3 36.9-82.3 82.3V1021c0 45.4 36.9 82.3 82.3 82.3h104.6c143.4 0 260.1-116.7 260.1-260.1v-6h-.1zm-116.5 6c0 79.1-64.4 143.5-143.5 143.5h-70.3v-292h71.4c78.6 0 142.5 63.9 142.5 142.5v6h-.1zm476.2 269.6c150 0 272.1-122.1 272.1-272.1s-122.1-272.1-272.1-272.1-272.1 122.1-272.1 272.1c-.1 150 122 272.1 272.1 272.1zm0-427.7c85.8 0 155.6 69.8 155.6 155.6s-69.8 155.6-155.6 155.6-155.6-69.8-155.6-155.6 69.8-155.6 155.6-155.6zm-764.6 592.7c-150 0-272.1 122.1-272.1 272.1s122.1 272.1 272.1 272.1 272.1-122.1 272.1-272.1-122-272.1-272.1-272.1zm4 427.7c-85.8 0-155.6-69.8-155.6-155.6s69.8-155.6 155.6-155.6 155.6 69.8 155.6 155.6-69.8 155.6-155.6 155.6zm-1465-17.8h-203.6v-83.6h136.4c32.2 0 58.3-26.1 58.3-58.3 0-32.2-26.1-58.3-58.3-58.3h-136.4v-83.6h196.7c32.2 0 58.3-26.1 58.3-58.3 0-32.2-26.1-58.3-58.3-58.3h-231c-45.4 0-82.3 36.9-82.3 82.3V1722c0 45.4 36.9 82.3 82.3 82.3h237.8c32.2 0 58.3-26.1 58.3-58.3.1-32.2-26-58.3-58.2-58.3zm1073.8-400.3h-348.2c-32.2 0-58.3 26.1-58.3 58.3 0 32.2 26.1 58.3 58.3 58.3h118.5v353.6c0 32.2 26.1 58.3 58.3 58.3s58.3-26.1 58.3-58.3V1404h113.1c32.2 0 58.3-26.1 58.3-58.3 0-32.2-26.1-58.3-58.3-58.3zm-2098.5 339.7c-25.6-19.5-62.1-14.6-81.7 11-28.9 37.9-75.5 60.6-124.4 60.6-84.9 0-154-66.1-154-147.4s69.1-147.4 154-147.4c49.3 0 94.5 21.9 123.9 60 19.7 25.5 56.2 30.2 81.7 10.5s30.2-56.3 10.5-81.7c-51.7-66.9-130.5-105.3-216.2-105.3-149.2 0-270.5 118.4-270.5 263.9s121.4 263.9 270.5 263.9c85.1 0 166.2-39.8 217.1-106.4 19.6-25.6 14.6-62.2-10.9-81.7zm3771.4 8.1c-4.2-37.2-23.5-89.1-91.3-125-38.2-20.2-80.6-29.9-114.6-37.7-12.6-2.9-30-6.8-35-9.1-26.2-12.3-23.9-32.7-17.4-47.7 1.2-2.5 10.1-14 28.9-19.4 27.5-7.9 61.8.7 99.2 25 27 17.5 63.1 9.8 80.6-17.3 17.5-27 9.8-63.1-17.3-80.6-85.2-55.1-154.1-51.3-196.9-38.5-45.8 13.8-84.6 45.9-101.2 84-34.7 79.2-3.3 163.3 74.6 199.9 15.9 7.5 35.7 12 58.7 17.3 59 13.5 112.3 28.4 116.1 62.2 2.7 23.9-18.3 41.1-38.9 49.2-59.6 23.6-113-11.3-140.6-48.3-19.2-25.8-55.7-31.1-81.5-11.9s-31.1 55.7-11.9 81.5c54.5 73.1 128 102.3 195.2 102.3 29.1 0 57.1-5.5 81.7-15.2 76-30.2 119.9-97.2 111.6-170.7zm-497.4-161.4c0-102.8-83.6-186.4-186.4-186.4h-135c-45.4 0-82.3 36.9-82.3 82.3v385.1c0 32.2 26.1 58.3 58.3 58.3 32.2 0 58.3-26.1 58.3-58.3v-94.5h90.8c18.2 24.4 57 79.7 89.8 127.5 11.3 16.5 29.5 25.3 48.1 25.3 11.3 0 22.8-3.3 32.9-10.2 26.5-18.2 33.3-54.5 15.1-81-.3-.4-25.7-37.5-51.5-74.1-5.7-8.1-11-15.6-15.9-22.4 47-34 77.8-89.2 77.8-151.6zm-287.2-69.9h100.8c38.6 0 69.9 31.4 69.9 69.9 0 38.6-31.4 69.9-69.9 69.9h-100.8v-139.8zm-1502.3-97.3c-4.9-10.9-13.7-20.3-25.4-25.7-25.9-12-56.7-.8-68.7 25.1l-196.8 423.6c-.2.4-.5 1.1-.7 1.6-12.7 29.6 1 63.8 30.6 76.5s63.8-1 76.5-30.6l20.4-47.6h228l19.5 47c.2.4.5 1.1.7 1.6 13.2 29.4 47.7 42.5 77 29.3 29.4-13.2 42.5-47.7 29.3-77l-190.4-423.8zm-117 313.3l68.9-160.6 66.5 160.6h-135.4zm-150.7-512.3c29.6 12.7 63.8-1 76.5-30.6l20.4-47.6h228l19.5 47c.2.4.5 1.1.7 1.6 13.2 29.4 47.7 42.5 77 29.3 29.4-13.2 42.5-47.7 29.3-77l-190.4-423.7c-4.9-10.9-13.7-20.3-25.4-25.7-25.9-12-56.7-.8-68.7 25.1l-196.8 423.6c-.2.4-.5 1.1-.7 1.6-12.7 29.5 1 63.7 30.6 76.4zm279.5-187.8h-135.5l68.9-160.6 66.6 160.6z"/></svg>