<?xml version="1.0" encoding="utf-8"?>
<!-- Generator: Adobe Illustrator 21.0.0, SVG Export Plug-In . SVG Version: 6.00 Build 0)  -->
<svg version="1.1" id="Layer_1" xmlns="http://www.w3.org/2000/svg" xmlns:xlink="http://www.w3.org/1999/xlink" x="0px" y="0px"
	 viewBox="0 0 6180 2212.5" style="enable-background:new 0 0 6180 2212.5;" xml:space="preserve">
<style type="text/css">
	.st0{fill:#213C3F;}
	.st1{fill:none;stroke:#2EE5B9;stroke-width:148;stroke-miterlimit:10;}
</style>
<path class="st0" d="M2034.3,695.6c-135.9,0-246.5,110.6-246.5,246.5s110.6,246.5,246.5,246.5s246.5-110.6,246.5-246.5
	C2280.8,806.1,2170.2,695.6,2034.3,695.6L2034.3,695.6z M2034.3,1083c-77.7,0-141-63.2-141-141s63.2-141,141-141
	c77.7,0,141,63.2,141,141S2112,1083,2034.3,1083L2034.3,1083z M2749.7,873c0-93.1-75.7-168.9-168.9-168.9h-122.3
	c-41.1,0-74.6,33.4-74.6,74.6v348.8c0,29.2,23.6,52.8,52.8,52.8s52.8-23.6,52.8-52.8V1042h82.3c16.5,22.1,51.6,72.2,81.3,115.5
	c10.2,14.9,26.7,22.9,43.6,22.9c10.2,0,20.7-3,29.8-9.2c24-16.5,30.2-49.4,13.7-73.4c-0.3-0.4-23.3-34-46.7-67.2
	c-5.2-7.3-10-14.1-14.4-20.3C2721.8,979.6,2749.7,929.6,2749.7,873L2749.7,873z M2489.5,809.7h91.3c35,0,63.3,28.4,63.3,63.3
	c0,35-28.4,63.3-63.3,63.3h-91.3V809.7z M2726.6,1512.5c0-93.1-75.7-168.9-168.9-168.9h-122.3c-41.1,0-74.6,33.4-74.6,74.6V1767
	c0,29.2,23.6,52.8,52.8,52.8s52.8-23.6,52.8-52.8v-85.6h82.3c16.5,22.1,51.6,72.2,81.3,115.5c10.2,14.9,26.7,22.9,43.6,22.9
	c10.2,0,20.7-3,29.8-9.2c24-16.5,30.2-49.4,13.7-73.4c-0.3-0.4-23.3-34-46.7-67.1c-5.2-7.3-10-14.1-14.4-20.3
	C2698.7,1619,2726.6,1568.9,2726.6,1512.5L2726.6,1512.5z M2466.5,1449.2h91.3c35,0,63.3,28.4,63.3,63.3c0,35-28.4,63.3-63.3,63.3
	h-91.3V1449.2z M3159.5,1071.8h-165.8V756.4c0-29.2-23.6-52.8-52.8-52.8s-52.8,23.6-52.8,52.8v343.4c0,42.8,34.8,77.6,77.6,77.6
	h193.8c29.2,0,52.8-23.6,52.8-52.8C3212.2,1095.4,3188.6,1071.8,3159.5,1071.8L3159.5,1071.8z M4268.5,1173.5
	c20-8.1,33.1-27.4,33.1-48.9V757c0-29.2-23.6-52.8-52.8-52.8c-29.2,0-52.8,23.6-52.8,52.8v236.4l-263-273.7
	c-14.9-15.5-37.8-20.5-57.8-12.4c-20,8.1-33.1,27.4-33.1,48.9v371.2c0,29.2,23.6,52.8,52.8,52.8s52.8-23.6,52.8-52.8V887.4
	l263.1,273.8C4225.7,1176.7,4248.6,1181.6,4268.5,1173.5L4268.5,1173.5z M4838.1,938.9c0-129.4-105.3-234.6-234.6-234.6h-95.7
	c-41.1,0-74.6,33.4-74.6,74.6v326.6c0,41.1,33.4,74.6,74.6,74.6h94.8c129.9,0,235.6-105.7,235.6-235.6L4838.1,938.9L4838.1,938.9z
	 M4732.6,944.3c0,71.7-58.3,130-130,130h-63.7V809.8h64.7c71.2,0,129.1,57.9,129.1,129.1L4732.6,944.3L4732.6,944.3z M5164,1188.5
	c135.9,0,246.5-110.6,246.5-246.5S5299.8,695.6,5164,695.6c-135.9,0-246.5,110.6-246.5,246.5C4917.4,1077.9,5028,1188.5,5164,1188.5
	z M5164,801.1c77.7,0,141,63.2,141,141s-63.2,141-141,141c-77.7,0-141-63.2-141-141S5086.2,801.1,5164,801.1L5164,801.1z M4475,1338
	c-135.9,0-246.5,110.6-246.5,246.5S4339.1,1831,4475,1831c135.9,0,246.5-110.6,246.5-246.5S4610.9,1338,4475,1338z M4475,1725.4
	c-77.7,0-141-63.2-141-141s63.2-141,141-141c77.7,0,141,63.2,141,141S4552.7,1725.4,4475,1725.4z M3147.9,1709.3h-184.4v-75.7H3087
	c29.2,0,52.8-23.6,52.8-52.8c0-29.2-23.6-52.8-52.8-52.8h-123.6v-75.7h178.2c29.2,0,52.8-23.6,52.8-52.8c0-29.2-23.6-52.8-52.8-52.8
	h-209.3c-41.1,0-74.6,33.4-74.6,74.6v319.2c0,41.1,33.4,74.6,74.6,74.6h215.4c29.2,0,52.8-23.6,52.8-52.8
	C3200.7,1733,3177,1709.3,3147.9,1709.3z M4120.6,1346.7h-315.4c-29.2,0-52.8,23.6-52.8,52.8c0,29.2,23.6,52.8,52.8,52.8h107.3
	v320.3c0,29.2,23.6,52.8,52.8,52.8s52.8-23.6,52.8-52.8v-320.3h102.5c29.2,0,52.8-23.6,52.8-52.8
	C4173.4,1370.3,4149.8,1346.7,4120.6,1346.7L4120.6,1346.7z M2219.6,1654.4c-23.2-17.7-56.3-13.2-74,10
	c-26.2,34.3-68.4,54.9-112.7,54.9c-76.9,0-139.5-59.9-139.5-133.5s62.6-133.5,139.5-133.5c44.7,0,85.6,19.8,112.2,54.4
	c17.8,23.1,50.9,27.4,74,9.5c23.1-17.8,27.4-51,9.5-74c-46.8-60.6-118.2-95.4-195.8-95.4c-135.2,0-245,107.3-245,239.1
	s110,239.1,245,239.1c77.1,0,150.6-36.1,196.7-96.4C2247.3,1705.2,2242.7,1672.1,2219.6,1654.4L2219.6,1654.4z M5636,1661.8
	c-3.8-33.7-21.3-80.7-82.7-113.2c-34.6-18.3-73-27.1-103.8-34.2c-11.4-2.6-27.2-6.2-31.7-8.2c-23.7-11.1-21.6-29.6-15.8-43.2
	c1.1-2.3,9.1-12.7,26.2-17.6c24.9-7.2,56,0.6,89.9,22.6c24.5,15.9,57.2,8.9,73-15.7c15.9-24.5,8.9-57.2-15.7-73
	c-77.2-49.9-139.6-46.5-178.4-34.9c-41.5,12.5-76.6,41.6-91.7,76.1c-31.4,71.7-3,147.9,67.6,181.1c14.4,6.8,32.3,10.9,53.2,15.7
	c53.4,12.2,101.7,25.7,105.2,56.3c2.4,21.7-16.6,37.2-35.2,44.6c-54,21.4-102.4-10.2-127.4-43.8c-17.4-23.4-50.5-28.2-73.8-10.8
	c-23.4,17.4-28.2,50.5-10.8,73.8c49.4,66.2,116,92.7,176.8,92.7c26.4,0,51.7-5,74-13.8C5603.8,1789,5643.5,1728.3,5636,1661.8
	L5636,1661.8z M5185.4,1515.6c0-93.1-75.7-168.9-168.9-168.9h-122.3c-41.1,0-74.6,33.4-74.6,74.6v348.8c0,29.2,23.6,52.8,52.8,52.8
	c29.2,0,52.8-23.6,52.8-52.8v-85.6h82.3c16.5,22.1,51.6,72.2,81.3,115.5c10.2,14.9,26.7,22.9,43.6,22.9c10.2,0,20.7-3,29.8-9.2
	c24-16.5,30.2-49.4,13.7-73.4c-0.3-0.4-23.3-34-46.7-67.1c-5.2-7.3-10-14.1-14.4-20.3C5157.5,1622.1,5185.4,1572.1,5185.4,1515.6
	L5185.4,1515.6z M4925.3,1452.2h91.3c35,0,63.3,28.4,63.3,63.3c0,35-28.4,63.3-63.3,63.3h-91.3V1452.2z M3564.4,1364.1
	c-4.4-9.9-12.4-18.4-23-23.3c-23.5-10.9-51.4-0.7-62.2,22.7l-178.3,383.7c-0.2,0.4-0.5,1-0.6,1.4c-11.5,26.8,0.9,57.8,27.7,69.3
	c26.8,11.5,57.8-0.9,69.3-27.7l18.5-43.1h206.5l17.7,42.6c0.2,0.4,0.5,1,0.6,1.4c12,26.6,43.2,38.5,69.8,26.5
	c26.6-12,38.5-43.2,26.5-69.8L3564.4,1364.1L3564.4,1364.1z M3458.4,1647.9l62.4-145.5l60.2,145.5H3458.4z M3321.9,1183.8
	c26.8,11.5,57.8-0.9,69.3-27.7l18.5-43.1h206.5l17.7,42.6c0.2,0.4,0.5,1,0.6,1.4c12,26.6,43.2,38.5,69.8,26.5
	c26.6-12,38.5-43.2,26.5-69.8L3558.3,730c-4.4-9.9-12.4-18.4-23-23.3c-23.5-10.9-51.4-0.7-62.2,22.7l-178.3,383.7
	c-0.2,0.4-0.5,1-0.6,1.4C3282.7,1141.3,3295.1,1172.3,3321.9,1183.8L3321.9,1183.8z M3575.1,1013.7h-122.7l62.4-145.5L3575.1,1013.7
	L3575.1,1013.7z"/>
<g>
	
		<ellipse transform="matrix(0.7071 -0.7071 0.7071 0.7071 -648.2341 825.6246)" class="st1" cx="672.5" cy="1195.3" rx="602.7" ry="602.7"/>
	<path class="st1" d="M866.2,1001.6c-107-107-280.4-107-387.4,0s-107,280.4,0,387.4s280.4,107,387.4,0"/>
</g>
<path class="st1" d="M1259.7,599.6c0,0,165.1,55,330.1-110s110-330.1,110-330.1s-165.1-55-330.1,110S1259.7,599.6,1259.7,599.6z"/>
</svg>
