<svg xmlns="http://www.w3.org/2000/svg" id="Layer_1" viewBox="0 0 5120 848"><style>.st0{fill:#00303e}.st1{fill:#005066}.st2{fill:#fff}.st3{fill:#f89a1c}.st4{fill:none;stroke:#f89a1c;stroke-width:5;stroke-miterlimit:10}.st5{fill:#80a85d}.st6{fill:#80a85e}.st7{fill:none;stroke:#fff;stroke-width:4.804;stroke-miterlimit:10}.st8{fill:#0ea7c7}.st9{fill:none;stroke:#68cade;stroke-width:4.804;stroke-miterlimit:10}.st10{fill:#68cade}.st11{fill:#34714a}.st12{fill:#fb7a54}.st13{stroke:#005066;stroke-width:2.4019}.st13,.st14,.st15,.st16,.st17{fill:none;stroke-miterlimit:10}.st14{stroke:#fff;stroke-width:5.9975}.st15,.st16{stroke:#0ea7c7;stroke-width:5}.st16{stroke-width:4.804}.st17{stroke:#fb7a54;stroke-width:27.3396}.st18{fill:#ffce00}.st19{stroke:#f43c2a;stroke-width:3.4174}.st19,.st20,.st21,.st22{fill:none;stroke-miterlimit:10}.st20{stroke:#f89a1c;stroke-width:4.7945}.st21,.st22{stroke:#fff;stroke-width:10;stroke-linecap:square}.st22{stroke-dasharray:28.5753,71.4384}</style><path d="M0 628h5120v220H0z" class="st0"/><path id="Dk_Blue_Hill" d="M3551.9 568.1c-16.1-49.6-39.2-98.1-76.2-135s-89.3-60.8-141.1-54.6c-28.3 3.4-55.9 15.4-84.3 12.3-57.7-6.3-89.3-68.6-135.6-103.5-30.1-22.7-68.5-34-106.1-31.4-23.3 1.6-45.9 8.4-68.9 12.8-71 13.6-146.4 3.8-211.4-27.8-27.1-13.2-52.5-30-80.2-41.8-27.8-11.8-59.2-18.4-88.1-9.8v378.8h991.9z" class="st1"/><g id="Building_-_Back"><path d="M79.4 196.5h158.7v348.9H79.4V196.5z" class="st2"/><path d="M0 196.5h79.3v348.9H0V196.5z" class="st3"/><path d="M190.2 304.4h27.7v-13.8c0-7.6-6.2-13.8-13.8-13.8s-13.8 6.2-13.8 13.8l-.1 13.8zm-45.4 0h27.7v-13.8c0-7.6-6.2-13.8-13.8-13.8s-13.8 6.2-13.8 13.8l-.1 13.8zm-45.3 0h27.7v-13.8c0-7.6-6.2-13.8-13.8-13.8-7.6 0-13.8 6.2-13.8 13.8l-.1 13.8zm90.7-50.4h27.7v-13.8c0-7.6-6.2-13.8-13.8-13.8s-13.8 6.2-13.8 13.8l-.1 13.8zm-45.4 0h27.7v-13.8c0-7.6-6.2-13.8-13.8-13.8s-13.8 6.2-13.8 13.8l-.1 13.8zm-45.3 0h27.7v-13.8c0-7.6-6.2-13.8-13.8-13.8-7.6 0-13.8 6.2-13.8 13.8l-.1 13.8z" class="st1"/><path d="M214.9 543.3V331m-28.1 212.3V331m-28.1 212.3V331m-28.1 212.3V331m-28.1 212.3V331" class="st4"/></g><g id="Green_Hills"><path d="M3840 216c-18.2-9.9-29.6-14.5-50.5-20.5s-43.3-5.2-64.7-1.4c-9.2 1.7-18.4 3.9-27.1 7.6-26.8 11.4-46.4 35.7-73.1 47.3-24.4 10.5-52.5 9.3-78 2s-87.1-33.4-126.6-33.4c-109 0-224 196.8-224 196.8h644V216z" class="st5"/><path d="M2437.6 255.4c-28.1 13.7-53.5 32.4-81.7 45.8-67.2 32.1-145.7 32.3-218.7 17.9-38.9-7.7-80.9-19-116.6-1.9-55.9 26.7-68.3 109.6-125.8 132.7-45.6 18.4-97.3-10.2-146-3.2-43 6.2-79.6 43.2-85.3 86.3v11.2H824.4c-11.8-7.4-27-12.3-46.8-13.7-49-3.5-100.2 21.5-145.7 3.2-57.3-23.1-86.6-28.3-142.4-55-35.7-17.1-77.6-5.8-116.3 1.9-72.8 14.5-79.7-60.8-146.7-92.9-28.1-13.5-82.5-38.6-110.5-52.2-28-13.7-86.1-18.4-116-9.6V628h2528.1V242c-38 0-62.4-.3-90.5 13.4z" class="st6"/></g><g id="Buidling_-_Mid"><path d="M3244.8 187.8h158.7v257h-158.7v-257z" class="st2"/><path d="M3403.5 187.8h79.3v257h-79.3v-257z" class="st3"/><path d="M3292.6 295.8h-27.7V282c0-7.6 6.2-13.8 13.8-13.8s13.8 6.2 13.8 13.8l.1 13.8zm45.4 0h-27.7V282c0-7.6 6.2-13.8 13.8-13.8s13.8 6.2 13.8 13.8l.1 13.8zm45.4 0h-27.7V282c0-7.6 6.2-13.8 13.8-13.8s13.8 6.2 13.8 13.8l.1 13.8zm-90.8-50.4h-27.7v-13.8c0-7.6 6.2-13.8 13.8-13.8s13.8 6.2 13.8 13.8l.1 13.8zm45.4 0h-27.7v-13.8c0-7.6 6.2-13.8 13.8-13.8s13.8 6.2 13.8 13.8l.1 13.8zm45.4 0h-27.7v-13.8c0-7.6 6.2-13.8 13.8-13.8s13.8 6.2 13.8 13.8l.1 13.8z" class="st1"/><path d="M3267.9 444.8V315.1m28.1 129.7V315.1m28.1 129.7V315.1m28.1 129.7V315.1m28.1 129.7V315.1" class="st4"/></g><g id="Fireworks"><ellipse cx="4778.3" cy="100.5" class="st7" rx="63.7" ry="63.6"/><ellipse cx="4778.3" cy="100.5" class="st7" rx="51" ry="50.9"/><ellipse cx="4778.3" cy="100.5" class="st7" rx="38.2" ry="38.2"/><ellipse cx="4778.3" cy="100.5" class="st7" rx="25.5" ry="25.4"/><ellipse cx="4778.3" cy="100.5" class="st7" rx="12.7" ry="12.7"/><path d="M4778.3 310.7V182.3m0 188.3v-30.9" class="st7"/><ellipse cx="4234.5" cy="200.8" class="st7" rx="63.7" ry="63.6"/><ellipse cx="4234.5" cy="200.8" class="st7" rx="51" ry="50.9"/><ellipse cx="4234.5" cy="200.8" class="st7" rx="38.2" ry="38.2"/><ellipse cx="4234.5" cy="200.8" class="st7" rx="25.5" ry="25.4"/><ellipse cx="4234.5" cy="200.8" class="st7" rx="12.7" ry="12.7"/><path d="M4234.5 377.4v-94.8" class="st7"/></g><g id="Dk_Green_Hills"><path d="M4609.7 475.4c-28.7-21.3-79.5-45.1-112.9-59.7-46.1-20.2-97.3-28.7-147.5-24.6-36.7 3-72.5 12.5-108.9 17.5-104.3 14.2-213.5-10.9-301.1-69.1-30.2-20.1-55.2-35.1-99.2-35.1v239.9H4718c-.1 0-78.2-46.5-108.3-68.9z" class="st8"/><path d="M4139.9 535.8c0-52.1 42.3-94.4 94.6-94.4s94.6 42.3 94.6 94.4" class="st2"/><path d="M4153.8 535.8c0-44.5 36.2-80.6 80.7-80.6s80.7 36.1 80.7 80.6" class="st9"/><path d="M4169.9 535.8c0-35.6 28.9-64.5 64.6-64.5s64.6 28.9 64.6 64.5" class="st9"/><path d="M4186.1 535.8c0-26.7 21.7-48.4 48.4-48.4s48.4 21.7 48.4 48.4" class="st9"/><path d="M4202.2 535.8c0-17.8 14.5-32.2 32.3-32.2s32.3 14.4 32.3 32.2" class="st9"/><path d="M4218.4 535.8c0-8.9 7.2-16.1 16.1-16.1s16.1 7.2 16.1 16.1" class="st9"/><path d="M4127.3 528.6h214.5V543h-214.5v-14.4z" class="st10"/><path d="M5120 290.3c-20.4-11.6-39.9-24.7-61-34.9-27.7-13.5-51.9-13.3-89.2-13.3-37.3 0-61.4-.1-89.2 13.3-28.1 13.7-53.5 32.4-81.7 45.8-67.2 32.1-145.7 32.3-218.7 17.9-38.9-7.7-88.5-26.6-124.2-9.5-55.9 26.7-68.3 39.6-125.8 62.7-45.6 18.4-87.8 39-136.5 46-23.2 3.3-33.7 2.7-62.1 2.7-69.2-7.7-136.5-43-194.5-81.5-29.8-19.8-54.4-34.6-97.2-35v-.5c-44 0-68.9 15-99.2 35.1-87.6 58.2-196.8 83.3-301.1 69.1-36.5-5-72.3-14.5-108.9-17.5-50.2-4.1-101.4 4.4-147.5 24.6-33.5 14.6-84.3 38.4-112.9 59.7-5.2 3.9-11.8 8.5-19.2 13.4H1946.2c-7.3-8.2-15-16.4-23.4-24-10.3-9.4-52.4-42.2-100.3-47.4-45.5-4.9-91.2-10.2-136.8-6.2-26.5 2.4-53 6.7-79.6 6.4-62.2-.8-121.2-27.1-175.8-57-21.6-11.9-43-24.5-66.2-33-24.2-8.9-62.6-17.2-84.1-17.2-43 0-58.7 8.3-82.9 17.2-23.1 8.5-44.4 21.2-66 33-54.5 30-113.3 56.3-175.4 57-26.6.3-53-4.1-79.4-6.4-45.5-4-91.5-1.9-136.4 6.2-13.1 2.4-26.4 5.4-38 12-12 7-21.5 17.5-30.7 27.9-20.8 23.4-68.8 64-89.6 87.5V657H5120V290.3z" class="st11"/></g><g id="Objects_-_Back"><path d="M3105.2 488l12.8-3.5 1.7 6.3c1 3.5-1.1 7.2-4.6 8.1-3.5 1-7.2-1.1-8.1-4.6l-1.8-6.3zm-17.3 4.7l12.8-3.5 1.7 6.3c1 3.5-1.1 7.2-4.6 8.1-3.5 1-7.2-1.1-8.1-4.6l-1.8-6.3zm-18.3 4.9l12.8-3.5 1.7 6.3c1 3.5-1.1 7.2-4.6 8.1-3.5 1-7.2-1.1-8.1-4.6l-1.8-6.3zm-17.3 3.7l13.1-1.9.9 6.4c.5 3.6-2 7-5.6 7.5s-7-2-7.5-5.6l-.9-6.4zm35.4 25.7l-13.1 1.9-.9-6.4c-.5-3.6 2-7 5.6-7.5s7 2 7.5 5.6l.9 6.4zm17.6-2.5l-13.1 1.9-.9-6.4c-.5-3.6 2-7 5.6-7.5s7 2 7.5 5.6l.9 6.4zm17.7-2.5l-13.1 1.9-.9-6.4c-.5-3.6 2-7 5.6-7.5s7 2 7.5 5.6l.9 6.4zm-53 7.6l-13.1 1.9-.9-6.4c-.5-3.6 2-7 5.6-7.5s7 2 7.5 5.6l.9 6.4z" class="st2"/><path d="M3023.9 537.1c-1.1-7.8 4.4-15.1 12.2-16.2 7.8-1.1 15.1 4.3 16.2 12.2" class="st12"/><path d="M2997.8 509.5l-13.2 1.2-.6-6.5c-.3-3.6 2.4-6.8 6-7.2 3.6-.3 6.9 2.4 7.2 6l.6 6.5zm-14.6 1.3L2970 512l-.6-6.5c-.3-3.6 2.4-6.8 6-7.2 3.6-.3 6.9 2.4 7.2 6l.6 6.5zm-14.6 1.3l-13.2 1.2-.6-6.5c-.3-3.6 2.4-6.8 6-7.2 3.6-.3 6.9 2.4 7.2 6l.6 6.5zm-14.6 1.2l-13.2 1.2-.6-6.5c-.3-3.6 2.4-6.8 6-7.2 3.6-.3 6.9 2.4 7.2 6l.6 6.5z" class="st11"/><path d="M3005.7 476.6c1.3-1.9 3.4-3.2 5.9-3.4 2.5-.2 4.9.7 6.5 2.4m13.8-2.5c1.3-1.9 3.4-3.2 5.9-3.4 2.5-.2 4.9.7 6.5 2.4" class="st13"/><path d="M3126.6 511.1l-2.5 2.7-86.1 11.8s-.9.2-2.3.3c0 0-2 .3-2.7.4-9.3 1.1-22.4-.1-22.4-11.5 3 3 17.5 7 26.4 4.1 21.8-7.3 87.2-29.1 87.2-29.1l-.7-7.6c-.4-4.3-4.2-7.4-8.4-7.1-4.1.4-7.2 3.9-7.1 8l-54.5 8.8-.3-3.6c-.5-6.2-6-10.8-12.2-10.2-6.2.5-10.8 6-10.2 12.2l.5 5.2-5.8.9-.5-5.6c-.5-6.2-6-10.8-12.2-10.2-6.2.5-10.8 6-10.2 12.2l.6 7.3-3.6.6-59.4 5.2 4.1 46.9 59.4-5.2 9.8-1.6 110.6-18 8.4-15.1c-.3-2.7-3.9-3.9-5.9-1.8z" class="st6"/><ellipse cx="3042.1" cy="489.3" class="st1" rx="3.9" ry="3.9" transform="matrix(.9962 -.0875 .0875 .9962 -31.149 268.082)"/><ellipse cx="3115.7" cy="481" class="st1" rx="1.9" ry="1.9" transform="matrix(.9962 -.0875 .0875 .9962 -30.14 274.492)"/><ellipse cx="3013.7" cy="491.8" class="st1" rx="3.9" ry="3.9" transform="matrix(.9962 -.0875 .0875 .9962 -31.477 265.607)"/><path d="M2990.1 507.7c-3.2.3-5.6 2.7-6 5.8l12.9-1c-.8-3-3.7-5.1-6.9-4.8zM2972 509c-3.2.3-5.7 2.8-6 5.8l13-1c-.8-3-3.7-5.1-7-4.8zm-18 1.3c-3.2.3-5.7 2.8-6 5.9l13-1c-.8-3-3.7-5.2-7-4.9z" class="st11"/><path d="M4425.4 507.7h-4.4c-4.1 0-7.5-3.4-7.5-7.5V498c0-2.5 1.3-4.9 3.3-6.2.5-.3 1.1-.6 1.7-.7l2.3-.5c3.7-.8 6.3-4 6.3-7.8v-4.7c0-2.9-2.9-5-5.6-4l-1.2.4" class="st14"/><path d="M4427.5 475.1c-1.3-3.2-4.9-4.7-8.1-3.4s-4.7 4.9-3.4 8l11.5-4.6z" class="st2"/><path d="M4414.9 476.6c.1-.1.3-.2.4-.2l.7-1.1 2 3.8-1.8.7-2.8 1.1c-.7-1.7 0-3.5 1.5-4.3z" class="st3"/><path d="M4420.5 510.7c0-9.4 7.6-17 17.1-17s17.1 7.4 25.2 17h-42.3z" class="st2"/><circle cx="4419" cy="475.2" r=".6" class="st1"/><path d="M4397.9 510.7h76.3" class="st9"/><path d="M4595.8 308.9c0 1.9 0 3.8-.2 5.7-.1 2.6-.5 5.3-1 7.9-.2 1.6-.6 3.2-1 4.8-1.7 7.4-4.5 14.4-8.2 20.9-.7 1.2-1.3 2.3-2.1 3.4-.2.4-.4.7-.7 1.1-.4.6-.8 1.2-1.2 1.7-.3.5-.7 1-1.1 1.4-.8 1.2-1.7 2.3-2.6 3.4-4.2 5.1-9 9.7-14.3 13.6-1.2 1-2.5 1.9-3.9 2.7-7.4 4.8-15.7 8.5-24.6 10.7-1.2.2-2.4.5-3.6.8-.5 0-1 .1-1.5.2-.6.1-1.2.2-1.7.3-1 .1-1.9.3-2.9.4l-3.3.3c-2 .1-3.9.2-6 .2-6.3 0-12.5-.7-18.4-2.1-1.1-.3-2.2-.6-3.2-.9-.9-.2-1.7-.5-2.5-.8-.4-.1-.9-.3-1.3-.4-.3-.1-.6-.2-.8-.3-.9-.3-1.7-.6-2.5-.9-8.3-3.2-15.9-7.8-22.6-13.4-.2-.2-.4-.3-.6-.5-1.1-.9-2.1-1.9-3-2.8-.2-.2-.4-.3-.6-.5-2.2-2.1-4.2-4.3-6.1-6.7-1.2-1.5-2.5-3.2-3.6-4.8-2.7-3.9-5.1-8-7.1-12.3-.9-1.8-1.6-3.6-2.3-5.5-1.2-3-2.1-6.1-2.8-9.4-.4-1.6-.7-3.2-1-4.8-.8-4.4-1.2-9-1.2-13.6 0-2 0-3.9.2-5.9.1-2.4.4-4.9.9-7.3v-.4c.2-1.6.6-3.2 1-4.8 2.1-9 5.8-17.3 10.7-24.9.5-.8 1-1.5 1.5-2.3.4-.7.9-1.3 1.4-2 .7-1 1.4-1.9 2.2-2.8 4.9-6 10.7-11.3 17.2-15.6 1.3-.9 2.6-1.8 4-2.5 7.8-4.7 16.6-8 26-9.7 1.2-.2 2.3-.4 3.5-.5l1.8-.3c1.3-.1 2.7-.3 4.1-.3 1.7-.1 3.4-.2 5.1-.2 8.6 0 16.8 1.3 24.5 3.8.4.1.8.2 1.2.4 1.2.4 2.3.8 3.5 1.2 1.5.6 2.9 1.2 4.4 1.9 7 3.2 13.5 7.5 19.2 12.5 1.2 1.1 2.4 2.2 3.6 3.4 1.9 1.9 3.8 3.9 5.5 6 1.2 1.5 2.5 3.2 3.7 4.8 3.2 4.7 6 9.6 8.2 14.9.8 1.9 1.5 3.8 2.2 5.8.7 2.2 1.3 4.3 1.8 6.5.4 1.6.7 3.2 1 4.8.7 3.6 1 7.2 1.1 10.8v2.9z" class="st2"/><path d="M4581.4 263.3h-130.8c.4-.7.9-1.3 1.4-2 .7-1 1.4-1.9 2.2-2.8h123.5c1.3 1.6 2.6 3.2 3.7 4.8zm13.2 32h-157.1c.2-1.6.6-3.2 1-4.8h155.2l.9 4.8zm0 27.2c-.2 1.6-.6 3.2-1 4.8h-155.2c-.4-1.6-.7-3.2-1-4.8h157.2zm-13.2 31.9c-.3.5-.7 1-1.1 1.4-.8 1.2-1.7 2.3-2.6 3.4h-123.5c-1.2-1.5-2.5-3.2-3.6-4.8h130.8z" class="st10"/><path d="M4535 386.2c-1.2.2-2.4.5-3.6.8-.5 0-1 .1-1.5.2l-2.3-3.4-16.3-24.7-.8-1.2-3-4.5-17.5-26.3-.1-.1-2.9-4.4-.2-.2-16.6-25-1.4-2.2-1.5-2.3-1.6-2.5-16.5-24.9c.5-.8 1-1.5 1.5-2.3.4-.7.9-1.3 1.4-2l1.3 2 16.7 25.1 1.4 2.1 3.2 4.8 15.1 22.8 2.9 4.3.1.1 3.1 4.7 14.4 21.7 3 4.5.7 1 3.2 4.8 13.3 20.1 3 4.5 1.5 2.5zm28.5-13.4c-1.2 1-2.5 1.9-3.9 2.7l-10.9-16.3-.5-.8-2.6-4-.3-.5-17.2-25.9-.5-.8-2.4-3.6-.8-1.2-16.6-25-1.4-2.2-1.5-2.3-1.7-2.5-15.1-22.7-2.9-4.5-3.2-4.8-10.4-15.6c1.3-.9 2.6-1.8 4-2.5l12.1 18.2.1.2 3 4.5v.1l16.7 25.2 1.3 2 1.6 2.4 1.6 2.4 15.8 23.7 2.3 3.5.7 1 2.5 3.7 14.7 22.1 3 4.5.4.6 3.2 4.8 8.9 13.6zm-65.9 13.6c-1.1-.3-2.2-.6-3.2-.9-.9-.2-1.7-.5-2.5-.8-.4-.1-.9-.3-1.3-.4l-.5-.8-16.2-24.3-1.5-2.4-1.6-2.4-1.3-2-16.7-25.2-.1-.1-2.9-4.5-.2-.2-12.9-19.4c.1-2.4.4-4.9.9-7.3l14.9 22.4 2.8 4.3.1.1 3.1 4.7 13.7 20.6 2.9 4.4 1.4 2.2 3.2 4.8 13.1 19.7 3 4.5 1.8 3zm87.8-38.2c-.7 1.2-1.3 2.3-2.1 3.4-.2.4-.4.7-.7 1.1l-16.5-24.9-.4-.6-2.6-3.8-.6-1-16.5-25-1.5-2.2-1.5-2.2-1.7-2.6-15.5-23.3-2.5-3.8-.4-.6-2.8-4.2-14-21-2.9-4.5-1.7-2.4c1.2-.2 2.3-.4 3.5-.5l1-1.6.9 1.3 2.1 3.1 16.8 25.2.2.4 2.7 4 .5.8 16.6 25.1 1.4 2.1 1.6 2.4 1.6 2.4 15.6 23.5 2.5 3.7.5.8 2.7 4 13.7 20.9zm10.4-39.3c0 1.9 0 3.8-.2 5.7l-11.5-17.3-1.3-2-1.6-2.5-1.5-2.3-15.7-23.6-2.4-3.6-.5-.9-2.6-3.9-14.4-21.7-2.2-3.4c1.2.4 2.3.8 3.5 1.2 1.5.6 2.9 1.2 4.4 1.9l14.1 21.3.4.7 2.5 3.8.7 1 16.5 24.9 1.5 2.3 1.4 2.2 1.7 2.6 7.2 10.8v2.8z" class="st10"/><path d="M4572.3 252.5l-3.5 6-2.3 3.8-.6 1-2.1 3.6-13.8 23.6-1.4 2.4-1.4 2.4-1.3 2.2-14.6 25-.6 1-2.2 3.7-.5.8-14.8 25.3-.6 1-2.1 3.6-.7 1.2-14.1 24.2-1.3 2.1c-.9-.2-1.7-.5-2.5-.8-.4-.1-.9-.3-1.3-.4-.3-.1-.6-.2-.8-.3l.3-.5 2.7-4.6 11.5-19.7 2.8-4.8.5-.9 2.7-4.6 12.7-21.7 2.1-3.6.7-1.2 2-3.5 13.9-23.7 1.3-2.2 1.5-2.6 1.2-2.1 14.7-25.1.5-.9 2.3-3.9.4-.7 5.1-8.7 3.6 3.6zm-27.2-17.8l-1.2 2.1-12.9 21.7-2.4 4-.4.8-2.3 3.8-13.9 23.3-1.4 2.4-1.4 2.4-1.3 2.2-14.9 25v.1l-2.7 4.6v.1l-15 25-1.3 2.2-1.4 2.4-1.4 2.4-6.3 10.5c-.2-.2-.4-.3-.6-.5-1.1-.9-2.1-1.9-3-2.8l4.3-7.2 2.8-4.8 1.2-2 2.7-4.6 12.3-20.6 2.7-4.6.1-.2 2.5-4.3 13.7-22.8 1.3-2.3 1.5-2.5 1.2-2 15-25.2.4-.6 2.5-4.2.2-.4 14.9-25.1.4-.7.7 1.1c1.1.4 2.2.8 3.4 1.3zm46.7 49.3l-3.8 6.5-1.2 2.2-1.6 2.6-1.2 2-14.8 25.2-.4.8-2.4 4-.3.6-15.2 26-.4.6-2.3 4-.5.8-14.4 24.5-1.9 3.3c-.5 0-1 .1-1.5.2-.6.1-1.2.2-1.7.3-1 .1-1.9.3-2.9.4l2.4-4 2.7-4.6 11.8-20.1 2.8-4.8.3-.5 2.7-4.6 12.9-22.1 2.3-3.8.6-1 2.2-3.7 13.7-23.5 1.5-2.5 1.3-2.3 1.3-2.3 5.9-10c.7 1.9 1.5 3.8 2.1 5.8zm-80.9-54.6l-2.1 3.5-2.7 4.6-12.5 21-2.8 4.7-.1.1-2.6 4.5-13.6 22.7-1.4 2.4-1.4 2.4-1.3 2.2-15 25v.1l-2.7 4.6v.1l-8.9 14.9c-.9-1.8-1.6-3.6-2.3-5.5l5.6-9.4 2.7-4.6.1-.2 2.6-4.3 13.6-22.8 1.3-2.3 1.5-2.5 1.2-2.1 15-25.1 2.7-4.6.1-.2 15.2-25.5 1.8-3 1-1.6.9 1.3c1.3-.2 2.7-.3 4.1-.4z" class="st10"/><path d="M4556.5 99.7c0-4.1-3.3-7.4-7.4-7.4s-7.4 3.3-7.4 7.4v.4c-.9-.3-1.9-.4-3-.4-1 0-2 .1-3 .4v-.4c0-4.1-3.3-7.4-7.4-7.4s-7.4 3.3-7.4 7.4c0 3.9 3.1 7.2 7 7.4-.5 1.3-.8 2.7-.8 4.2 0 6.4 5.2 11.5 11.6 11.5s11.6-5.2 11.6-11.5c0-1.5-.3-2.9-.8-4.2 3.9-.3 7-3.5 7-7.4z" class="st2"/></g><g id="Buildings_-_Front"><path d="M924.9 182.6h158v360.7h-158V182.6z" class="st2"/><path d="M1083 182.6h79V576h-79V182.6z" class="st8"/><path d="M948.4 426.4V289.3m28 96.7v-96.7m28 85.6v-85.6m28 74.9v-74.9m28 84.1v-84.1" class="st15"/><path d="M972.5 258.3h-27.6v-13.9c0-7.6 6.2-13.8 13.8-13.8s13.8 6.2 13.8 13.8v13.9zm45.2 0h-27.6v-13.9c0-7.6 6.2-13.8 13.8-13.8s13.8 6.2 13.8 13.8v13.9zm45.2 0h-27.6v-13.9c0-7.6 6.2-13.8 13.8-13.8 7.6 0 13.8 6.2 13.8 13.8v13.9z" class="st1"/><path d="M687.8 87h158v456.3h-158V87z" class="st2"/><path d="M845.9 87h79v504h-79V87z" class="st3"/><path d="M710.9 543.4V289.3m27.9 254.1V289.3m28 254.1V289.3m28 254.1V289.3m28 254.1V289.3" class="st4"/><path d="M735.5 258.3h-27.6v-13.9c0-7.6 6.2-13.8 13.8-13.8s13.8 6.2 13.8 13.8v13.9zm45.2 0H753v-13.9c0-7.6 6.2-13.8 13.8-13.8s13.8 6.2 13.8 13.8v13.9h.1zm45.1 0h-27.6v-13.9c0-7.6 6.2-13.8 13.8-13.8s13.8 6.2 13.8 13.8v13.9zm-90.3-50.4h-27.6V194c0-7.6 6.2-13.8 13.8-13.8s13.8 6.2 13.8 13.8v13.9zm45.2 0H753V194c0-7.6 6.2-13.8 13.8-13.8s13.8 6.2 13.8 13.8v13.9h.1zm45.1 0h-27.6V194c0-7.6 6.2-13.8 13.8-13.8s13.8 6.2 13.8 13.8v13.9zm-90.3-50.3h-27.6v-13.9c0-7.6 6.2-13.8 13.8-13.8s13.8 6.2 13.8 13.8v13.9zm45.2 0H753v-13.9c0-7.6 6.2-13.8 13.8-13.8s13.8 6.2 13.8 13.8v13.9h.1zm45.1 0h-27.6v-13.9c0-7.6 6.2-13.8 13.8-13.8s13.8 6.2 13.8 13.8v13.9z" class="st1"/><path d="M2322.3 87.9h158.4v456.3h-158.4V87.9z" class="st2"/><path d="M2480.8 87.9h79.2v487.7h-79.2V87.9z" class="st3"/><path d="M2345.4 575.6V290.1m28.1 285.5V290.1m28.1 285.5V290.1m28 285.5V290.1m28.1 285.5V290.1" class="st4"/><path d="M2370.1 259.1h-27.7v-13.8c0-7.6 6.2-13.8 13.8-13.8s13.8 6.2 13.8 13.8l.1 13.8zm45.3 0h-27.7v-13.8c0-7.6 6.2-13.8 13.8-13.8s13.8 6.2 13.8 13.8l.1 13.8zm45.3 0H2433v-13.8c0-7.6 6.2-13.8 13.8-13.8s13.8 6.2 13.8 13.8v13.8h.1zm-90.6-50.4h-27.7v-13.8c0-7.6 6.2-13.8 13.8-13.8s13.8 6.2 13.8 13.8l.1 13.8zm45.3 0h-27.7v-13.8c0-7.6 6.2-13.8 13.8-13.8s13.8 6.2 13.8 13.8l.1 13.8zm45.3 0H2433v-13.8c0-7.6 6.2-13.8 13.8-13.8s13.8 6.2 13.8 13.8v13.8h.1zm-90.6-50.3h-27.7v-13.8c0-7.6 6.2-13.8 13.8-13.8s13.8 6.2 13.8 13.8l.1 13.8zm45.3 0h-27.7v-13.8c0-7.6 6.2-13.8 13.8-13.8s13.8 6.2 13.8 13.8l.1 13.8zm45.3 0H2433v-13.8c0-7.6 6.2-13.8 13.8-13.8s13.8 6.2 13.8 13.8v13.8h.1z" class="st1"/><path d="M2084.3 400.5H2243v143.7h-158.7V400.5z" class="st2"/><path d="M2243 400.5h79.3v167.6H2243V400.5z" class="st8"/><path d="M2132.1 508.4h-27.7v-13.8c0-7.6 6.2-13.8 13.8-13.8s13.8 6.2 13.8 13.8l.1 13.8zm45.4 0h-27.7v-13.8c0-7.6 6.2-13.8 13.8-13.8s13.8 6.2 13.8 13.8l.1 13.8zm45.3 0h-27.7v-13.8c0-7.6 6.2-13.8 13.8-13.8s13.8 6.2 13.8 13.8l.1 13.8zm-90.7-50.3h-27.7v-13.8c0-7.6 6.2-13.8 13.8-13.8s13.8 6.2 13.8 13.8l.1 13.8zm45.4 0h-27.7v-13.8c0-7.6 6.2-13.8 13.8-13.8s13.8 6.2 13.8 13.8l.1 13.8zm45.3 0h-27.7v-13.8c0-7.6 6.2-13.8 13.8-13.8s13.8 6.2 13.8 13.8l.1 13.8z" class="st1"/><path d="M2107.4 561v-33.8m28.1 33.8v-33.8m28.1 33.8v-33.8m28.1 33.8v-33.8m28.1 33.8v-33.8" class="st15"/><g><path d="M3919.4 216.5h158.7v327.9h-158.7V216.5z" class="st2"/><path d="M3840 216.5h79.3v327.9H3840V216.5z" class="st3"/><path d="M4030.2 324.4h27.7v-13.8c0-7.6-6.2-13.8-13.8-13.8s-13.8 6.2-13.8 13.8l-.1 13.8zm-45.4 0h27.7v-13.8c0-7.6-6.2-13.8-13.8-13.8s-13.8 6.2-13.8 13.8l-.1 13.8zm-45.3 0h27.7v-13.8c0-7.6-6.2-13.8-13.8-13.8s-13.8 6.2-13.8 13.8l-.1 13.8zm90.7-50.4h27.7v-13.8c0-7.6-6.2-13.8-13.8-13.8s-13.8 6.2-13.8 13.8l-.1 13.8zm-45.4 0h27.7v-13.8c0-7.6-6.2-13.8-13.8-13.8s-13.8 6.2-13.8 13.8l-.1 13.8zm-45.3 0h27.7v-13.8c0-7.6-6.2-13.8-13.8-13.8s-13.8 6.2-13.8 13.8l-.1 13.8z" class="st1"/><path d="M4054.9 542.6V351m-28.1 191.6V351m-28.1 191.6V351m-28.1 191.6V351m-28.1 191.6V351" class="st4"/></g><g><path d="M4881.7 135h158.7v408h-158.7V135z" class="st2"/><path d="M5040.7 135h79.3v408h-79.3V135z" class="st8"/><path d="M4929.5 191.5h-27.7v-13.8c0-7.6 6.2-13.8 13.8-13.8 7.6 0 13.8 6.2 13.8 13.8v13.8h.1zm45.4 0h-27.7v-13.8c0-7.6 6.2-13.8 13.8-13.8 7.6 0 13.8 6.2 13.8 13.8v13.8h.1zm45.4 0h-27.7v-13.8c0-7.6 6.2-13.8 13.8-13.8 7.6 0 13.8 6.2 13.8 13.8v13.8h.1zm-90.8 53.8h-27.7v-13.8c0-7.6 6.2-13.8 13.8-13.8 7.6 0 13.8 6.2 13.8 13.8v13.8h.1zm45.4 0h-27.7v-13.8c0-7.6 6.2-13.8 13.8-13.8 7.6 0 13.8 6.2 13.8 13.8v13.8h.1zm45.4 0h-27.7v-13.8c0-7.6 6.2-13.8 13.8-13.8 7.6 0 13.8 6.2 13.8 13.8v13.8h.1zm-90.8 53.8h-27.7v-13.8c0-7.6 6.2-13.8 13.8-13.8 7.6 0 13.8 6.2 13.8 13.8v13.8h.1zm45.4 0h-27.7v-13.8c0-7.6 6.2-13.8 13.8-13.8 7.6 0 13.8 6.2 13.8 13.8v13.8h.1zm45.4 0h-27.7v-13.8c0-7.6 6.2-13.8 13.8-13.8 7.6 0 13.8 6.2 13.8 13.8v13.8h.1zm-90.8 53.8h-27.7V339c0-7.6 6.2-13.8 13.8-13.8 7.6 0 13.8 6.2 13.8 13.8v13.9h.1zm45.4 0h-27.7V339c0-7.6 6.2-13.8 13.8-13.8 7.6 0 13.8 6.2 13.8 13.8v13.9h.1zm45.4 0h-27.7V339c0-7.6 6.2-13.8 13.8-13.8 7.6 0 13.8 6.2 13.8 13.8v13.9h.1z" class="st1"/><path d="M4905.1 543V400.2m28.1 142.8V400.2m28.1 142.8V400.2m28.1 142.8V400.2m28.1 142.8V400.2" class="st16"/><path d="M4643.4 399.3h158.7V543h-158.7V399.3z" class="st2"/><path d="M4802.1 399.3h79.3V543h-79.3V399.3z" class="st3"/><path d="M4691.3 507.2h-27.7v-13.8c0-7.6 6.2-13.8 13.8-13.8 7.6 0 13.8 6.2 13.8 13.8v13.8h.1zm45.3 0h-27.7v-13.8c0-7.6 6.2-13.8 13.8-13.8 7.6 0 13.8 6.2 13.8 13.8v13.8h.1zm45.4 0h-27.7v-13.8c0-7.6 6.2-13.8 13.8-13.8 7.6 0 13.8 6.2 13.8 13.8v13.8h.1zm-90.7-50.3h-27.7v-13.8c0-7.6 6.2-13.8 13.8-13.8 7.6 0 13.8 6.2 13.8 13.8v13.8h.1zm45.3 0h-27.7v-13.8c0-7.6 6.2-13.8 13.8-13.8 7.6 0 13.8 6.2 13.8 13.8v13.8h.1zm45.4 0h-27.7v-13.8c0-7.6 6.2-13.8 13.8-13.8 7.6 0 13.8 6.2 13.8 13.8v13.8h.1z" class="st1"/><path d="M4666.6 543v-16.4m28.1 16.4v-16.4m28.1 16.4v-16.4m28.1 16.4v-16.4M4779 543v-16.4" class="st4"/></g><g><path d="M2560 340.9h397.9v234.7H2560V340.9z" class="st8"/><path d="M2672.5 366.2h285.3v176.6h-285.3V366.2z" class="st2"/><path d="M2957.7 510.6h-285.2m285.2-28.1h-285.2m285.2-28h-285.2m285.2-28.1h-285.2m285.2-28.1h-285.2" class="st15"/><path d="M2897.8 545.2h-105.5v-55.1c0-29.1 23.6-52.7 52.7-52.7h.1c29.1 0 52.7 23.6 52.7 52.7v55.1z" class="st1"/></g></g><g id="Palms"><path d="M33.5 455.9s7.7-23.1 26.4-32.2 41.6-.6 41.6-.6l-68 32.8z" class="st11"/><path d="M113.6 385l6.5-.4 9.9-20.3s-24 9.3-34.2 30.2-2.8 45.6-2.8 45.6l24.3-49.7-3.7-5.4z" class="st11"/><path d="M45.9 399.2l-5 4.2-21.2-7.8s23.7-9.9 45.6-1.9 33.5 31 33.5 31L47 405.6l-1.1-6.4z" class="st11"/><path d="M138.6 418.1c-22.5-6.1-45.3 5.8-45.3 5.8l21.8 5.9 4.6-4.6 1.6 6.3 25.3 6.9 4.6-4.6 1.6 6.3 21.8 5.9c0 .1-13.6-21.7-36-27.9z" class="st11"/><path d="M87.5 419.8s18.4-2.5 30.7 7.5 13.7 28.5 13.7 28.5l-44.4-36zm0 93.8l-.9 29.8h18l-.8-29.8H87.5zm.9-30.3l-.8 27.6h16.1l-.8-27.6H88.4z" class="st11"/><path d="M101.9 450.2l-.9-30.5H90.3l-.9 30.5h12.5zm-12.6 2.7l-.8 27.7h14.3l-.9-27.7H89.3zm113.4 3s7.7-23.1 26.4-32.2 41.6-.6 41.6-.6l-68 32.8z" class="st11"/><path d="M282.7 385l6.5-.4 9.9-20.3s-24 9.3-34.2 30.2-2.8 45.6-2.8 45.6l24.3-49.7-3.7-5.4z" class="st11"/><path d="M215 399.2l-5 4.2-21.2-7.8s23.7-9.9 45.6-1.9 33.5 31 33.5 31L216 405.6l-1-6.4z" class="st11"/><path d="M307.7 418.1c-22.5-6.1-45.3 5.8-45.3 5.8l21.8 5.9 4.6-4.6 1.6 6.3 25.3 6.9 4.6-4.6 1.6 6.3 21.8 5.9c0 .1-13.6-21.7-36-27.9z" class="st11"/><path d="M256.7 419.8s18.4-2.5 30.7 7.5c12.3 9.9 13.7 28.5 13.7 28.5l-44.4-36zm-.1 93.8l-.8 29.8h18l-.9-29.8h-16.3zm.9-30.3l-.8 27.6h16.1l-.8-27.6h-14.5z" class="st11"/><path d="M271 450.2l-.9-30.5h-10.7l-.9 30.5H271zm-12.5 2.7l-.9 27.7h14.3l-.8-27.7h-12.6zM1932.2 456.8s7.7-23.1 26.5-32.2c18.8-9 41.7-.6 41.7-.6l-68.2 32.8z" class="st11"/><path d="M2012.5 385.8l6.5-.4 9.9-20.3s-24.1 9.3-34.3 30.2-2.9 45.6-2.9 45.6l24.4-49.7-3.6-5.4z" class="st11"/><path d="M1944.6 400l-5 4.2-21.2-7.8s23.8-9.9 45.7-1.9c21.9 8 33.6 31 33.6 31l-52-19.1-1.1-6.4z" class="st11"/><path d="M2037.5 419c-22.5-6.1-45.4 5.8-45.4 5.8l21.8 5.9 4.6-4.6 1.7 6.3 25.4 6.9 4.6-4.6 1.7 6.3 21.8 5.9c0 .1-13.7-21.8-36.2-27.9z" class="st11"/><path d="M1986.4 420.7s18.5-2.5 30.8 7.5 13.7 28.5 13.7 28.5l-44.5-36zm-.1 93.8l-.8 29.7h18l-.9-29.7h-16.3zm.9-30.4l-.8 27.7h16.1l-.8-27.7h-14.5z" class="st11"/><path d="M2000.7 451l-.9-30.5h-10.7l-.9 30.5h12.5zm-12.5 2.7l-.9 27.7h14.3l-.8-27.7h-12.6z" class="st11"/></g><g id="Objects"><path d="M536 435h19.9c18.9 0 34.1-15.3 34.1-34.2v-9.9c0-11.5-5.8-22.2-15.2-28.4-2.4-1.6-5.1-2.6-7.9-3.2l-10.7-2.3c-16.7-3.6-28.6-18.4-28.6-35.5V300c0-13.3 13-22.7 25.6-18.4l5.5 1.9" class="st17"/><path d="M526.4 286c5.8-14.4 22.3-21.4 36.6-15.5s21.3 22.3 15.5 36.7" class="st12"/><path d="M580.6 297.6v16.6c0 .7 0 1.4-.2 2.1-1 7.7-7.6 13.6-15.5 13.6v-32.3h15.7z" class="st18"/><path d="M580.4 316.3c-1 7.7-7.6 13.6-15.5 13.6v-13.6h15.5z" class="st1"/><path d="M517.3 489.3h-75.1c-.8 0-1.1-.5-1.3-.9-.2-.4-.2-1 .3-1.5L474 454l-7.2-7.3-32.8 32.9c-3.3 3.3-4.3 8.3-2.5 12.7 1.8 4.4 6 7.2 10.7 7.2h75.1v17.8c7.7 0 14-6.3 14-14 0-7.8-6.2-14-14-14z" class="st12"/><path d="M477.4 450h10.2v94.7h-10.2V450z" class="st12"/><path d="M502.8 443.5c0 11.3-9.1 20.4-20.3 20.4-11.2 0-20.3-9.1-20.3-20.4" class="st12"/><path d="M558 448.6c0-43-34.8-77.8-77.6-77.8s-77.7 33.7-114.9 77.8H558z" class="st12"/><path d="M416.2 448.6c0-33.5 27.1-60.7 60.6-60.7s60.6 27.2 60.6 60.7" class="st19"/><path d="M428.3 448.6c0-26.8 21.7-48.6 48.5-48.6 26.7 0 48.5 21.8 48.5 48.6" class="st19"/><path d="M440.4 448.6c0-20.1 16.3-36.4 36.3-36.4 20.1 0 36.3 16.3 36.3 36.4" class="st19"/><path d="M452.6 448.6c0-13.4 10.9-24.3 24.2-24.3 13.4 0 24.2 10.9 24.2 24.3" class="st19"/><path d="M464.7 448.6c0-6.7 5.4-12.1 12.1-12.1s12.1 5.4 12.1 12.1" class="st19"/><ellipse cx="564.9" cy="286.5" class="st1" rx="2.6" ry="2.6"/><path d="M494.7 220.7l12.2 45.5-45.5-12.2 33.3-33.3z" class="st2"/><path d="M493.3 193.8c16.2 16.2 16.2 42.6 0 58.8s-42.5 16.2-58.7 0-16.2-42.6 0-58.8 42.5-16.2 58.7 0z" class="st2"/><path d="M470.8 210.2c-3 0-5.6 2.1-6.8 5.1-1.2-3-3.8-5.1-6.8-5.1-4.1 0-7.5 3.9-7.5 8.8 0 6.1 15 17.3 15 17.3s13.6-11.7 13.6-17.3c0-4.9-3.4-8.8-7.5-8.8z" class="st12"/><path d="M1040 564.9c-50.8 0-92-41.2-92-92.2s41.2-92.3 92-92.3" class="st20"/><path d="M1040 546.5c-40.7 0-73.6-33-73.6-73.8S999.3 399 1040 399" class="st20"/><path d="M1040 528c-30.5 0-55.2-24.8-55.2-55.3 0-30.6 24.7-55.4 55.2-55.4" class="st20"/><path d="M1040 509.6c-20.4 0-36.8-16.5-36.8-36.9s16.4-36.9 36.8-36.9" class="st20"/><path d="M1040 491.1c-10.1 0-18.4-8.2-18.4-18.4s8.3-18.5 18.4-18.5" class="st20"/><path d="M1046.9 380.5v184.4c50.8 0 92-41.3 92-92.2s-41.2-92.2-92-92.2z" class="st3"/><path d="M1013.1 357.7c7.9 10.7 20.3 16.2 32.7 15.7h.1c4.1-11.8 2.5-25.3-5.5-36-7.9-10.7-20.3-16.1-32.7-15.5h-.1c-4 11.7-2.4 25.1 5.5 35.8z" class="st11"/><path d="M1697.9 518.4h-253.8v24h268.2v-9.6c0-8-6.4-14.4-14.4-14.4z" class="st2"/><path d="M1444.1 518.4h24c8 0 14.4 6.4 14.4 14.4v9.6h-38.4v-24z" class="st8"/><path d="M1463.3 321.3v221.1h-58.4c-26.5 0-48-21.5-48-48v-84.2c0-19.2 9.5-37.1 25.4-47.8l74.3-38.7c2.1-1.2 4.3-2 6.7-2.4z" class="st8"/><path d="M1651.7 344.8v173.6h-207.6V344.8c0-9.1 5.1-17 12.6-21.1 2.1-1.1 4.3-1.9 6.6-2.4 1.5-.3 3.2-.5 4.8-.5h159.6c13.3 0 24 10.7 24 24z" class="st2"/><circle cx="1547.9" cy="487.6" r="8.6" class="st8"/><path d="M1469.6 345h156.6v120.7h-156.6V345zm-15.3 167.4h18v5.9h-18v-5.9zm28.2 0h18v5.9h-18v-5.9zm28.2 0h18v5.9h-18v-5.9zm28.2 0h18v5.9h-18v-5.9zm28.2 0h18v5.9h-18v-5.9zm28.2 0h18v5.9h-18v-5.9zm28.2 0h18v5.9h-18v-5.9zm28.2 0h18v5.9h-18v-5.9zm28.2 0h18v5.9h-18v-5.9z" class="st1"/><path d="M1487.2 465.7c0-33.5 27.2-60.7 60.7-60.7s60.7 27.2 60.7 60.7" class="st15"/><path d="M1499.3 465.7c0-26.8 21.8-48.6 48.6-48.6s48.6 21.8 48.6 48.6" class="st15"/><path d="M1511.5 465.7c0-20.1 16.3-36.4 36.4-36.4s36.4 16.3 36.4 36.4" class="st15"/><path d="M1523.6 465.7c0-13.4 10.9-24.3 24.3-24.3s24.3 10.9 24.3 24.3" class="st15"/><path d="M1535.8 465.7c0-6.7 5.4-12.1 12.1-12.1s12.1 5.4 12.1 12.1" class="st15"/><g><path d="M1769.3 345h-30.5c-2.1 0-3.9 1.3-4.6 3.3l-3.7 11.2h43.6l-4.8-14.5z" class="st8"/><path d="M1795.6 345h-27.1c-2.1 0-3.9 1.3-4.6 3.3l-3.7 11.2h43.6l-3.7-11.2c-.6-2-2.4-3.3-4.5-3.3z" class="st2"/><path d="M1795.1 435.6H1710c-8 0-14.4-6.4-14.4-14.4v-47.8c0-8 6.4-14.4 14.4-14.4h85.1v76.6z" class="st8"/><path d="M1824.5 435.6h-89.7c-8 0-14.4-6.4-14.4-14.4v-47.8c0-8 6.4-14.4 14.4-14.4h89.7c8 0 14.4 6.4 14.4 14.4v47.8c0 7.9-6.4 14.4-14.4 14.4z" class="st2"/><path d="M1793 370.3h-21.8c-14.9 0-26.9 12.1-26.9 26.9 0 14.9 12.1 26.9 26.9 26.9h21.8v-53.8z" class="st1"/><ellipse cx="1793" cy="397.2" class="st8" rx="26.9" ry="26.9"/><ellipse cx="1793" cy="397.2" class="st1" rx="17.3" ry="17.3"/><path d="M1805.8 384.4c5.5-.3 6.8-1.9 6.8-1.9s-1.3-1.6-6.8-1.9c-.3-5.5-1.9-6.8-1.9-6.8s-1.6 1.3-1.9 6.8c-5.5.3-6.8 1.9-6.8 1.9s1.3 1.6 6.8 1.9c.3 5.5 1.9 6.8 1.9 6.8s1.6-1.2 1.9-6.8z" class="st2"/><circle cx="1791.4" cy="393.3" r="5.1" class="st2"/><circle cx="1798.6" cy="403.5" r="2.8" class="st2"/><path d="M1721.5 352.8h18v5.9h-18v-5.9z" class="st1"/></g><g><path d="M3675.1 303.8h24v240h-24v-240z" class="st8"/><path d="M3482.8 303.8h192.3v240h-192.3v-240z" class="st10"/><path d="M3506.8 327.8H3651v192h-144.2v-192z" class="st2"/><path d="M3635.3 321.3l.2-.2c7.5-7.3 19.6-7.3 27 .1 7.5 7.5 7.5 19.7 0 27.2-3.4 3.4-12.9 7.3-22.3 10.6-11.4 4-22.7 7.1-22.7 7.1s10.3-37.2 17.8-44.8z" class="st2"/><path d="M3690.5 315.5c-7.5 7.5-18.6 8.6-24.7 2.5-6.1-6.1-5-17.2 2.5-24.7 6.7-6.7 87.6-75 105.3-89.8 1.9-1.6 4.7-1.5 6.5.3s1.9 4.6.3 6.5c-15 17.8-84.2 99.5-89.9 105.2z" class="st12"/><path d="M3658.6 310.8l14.5 14.5-5.4 5.4-14.5-14.6 5.4-5.3zm-23.6 9.6c1.1-.7 3.2-1.8 4.8-.9 2.7 1.4 4.2 4.5 3.8 8.9-.3 3.7-5.9 10.3-7.5 13-1.7 2.7-.6 7.2 2.6 7.4 2 .1 3.7-1.6 5.8-1.9 1.7-.2 3.6.7 4.3 2.3.8 1.5.4 3.6-.8 4.8-1.9 1.9-5.3 1.7-7 3.8-.4.4-.6.9-.7 1.4-11.4 4-22.7 7.1-22.7 7.1s8.4-40.1 17.4-45.9z" class="st1"/><path d="M3621.4 356.9c.4 2-1.4 3.8-2.4 5.5s-1.5 3.6-1.9 5.6c-.1.6-.2 1.2-.1 1.7.2.6.5 1.1 1 1.4 1.8 1.5 4.9 1 6.1-1 .8-1.3.8-3 1.6-4.4.8-1.5 2.5-2.4 4.1-2.3 1.7.1 3.2 1.2 3.8 2.8.4 1 .6 2.4 1.7 2.7.5.2 1.1 0 1.6-.3 1.8-1.2 1.8-3.8 1.6-5.9-.2-2.4 2-3.4 1.8-3.7-2.9-2.9-9.2-2.9-12.4-2.5-2.3.3-4.6.6-6.9.3m33.9-11.1c.3-.1.6-.2.9-.4.7-.6.7-1.6.4-2.4-.2-.8-.6-1.7-.4-2.5.1-.7.5-1.2.8-1.8s.5-1.3.2-1.9c-.2-.4-.6-.7-1-.8-1-.4-2.1-.2-3.1.3-.9.5-1.7 1.3-2.5 2-.5.5-1 1.1-1.2 1.7-.3.9 0 1.8.4 2.6.7 1.4 4.5 3.5 5.5 3.2z" class="st1"/><path d="M3588.1 372.1c15.9 0 28.8 12.9 28.8 28.8s-12.9 28.8-28.8 28.8v-57.6z" class="st12"/><path d="M3572.6 446.9c-26.9 0-48.7-21.8-48.7-48.6s21.8-48.6 48.7-48.6v97.2z" class="st8"/><path d="M3572.6 461.9h64.8v22.2h-64.8v-22.2z" class="st1"/><path d="M3535 499.5V470h22.2v29.5H3535z" class="st10"/><ellipse cx="3618.4" cy="442.6" class="st3" rx="10.4" ry="10.4"/><ellipse cx="3537.8" cy="365.2" class="st1" rx="17.2" ry="17.2"/></g></g><g id="Road"><path d="M0 543.9h5120V720H0V543.9z" class="st1"/><path d="M-40.5 631.9h14.4" class="st21"/><path d="M45.4 631.9h5064.9" class="st22"/><path d="M5146.1 631.9h14.4" class="st21"/></g><path id="Clouds" d="M1073.6 106.6c13.1 0 23.9 9.6 26 22.2 1.8-6.2 7.5-10.8 14.3-10.8 8.3 0 15 6.7 15 15h-81.5c-.1-14.6 11.7-26.4 26.2-26.4zM291.1 93.4c-13.1 0-23.9 9.6-26 22.2-1.8-6.2-7.5-10.8-14.3-10.8-8.3 0-15 6.7-15 15h81.5c.2-14.6-11.6-26.4-26.2-26.4zm1763.4-20.6c13.1 0 24 9.6 26 22.2 1.8-6.2 7.5-10.8 14.3-10.8 8.3 0 15 6.7 15 15h-81.7c0-14.5 11.8-26.4 26.4-26.4zM1515 198.2c-13.1 0-24 9.6-26 22.2-1.8-6.2-7.5-10.8-14.3-10.8-8.3 0-15 6.7-15 15h81.7c0-14.6-11.8-26.4-26.4-26.4zm1812.9-104c13.1 0 24 9.6 26.1 22.2 1.8-6.2 7.5-10.8 14.4-10.8 8.3 0 15 6.7 15 15h-81.8c-.1-14.6 11.8-26.4 26.3-26.4zM2787.7 144c-13.1 0-24 9.6-26.1 22.2-1.8-6.2-7.5-10.8-14.4-10.8-8.3 0-15 6.7-15 15h81.8c.1-14.6-11.7-26.4-26.3-26.4zm1867.6 44.5c-13.2 0-24 9.6-26.1 22.2-1.8-6.2-7.5-10.8-14.4-10.8-8.3 0-15 6.7-15 15h81.8c.1-14.6-11.7-26.4-26.3-26.4zm-492-107.9c13.2 0 24 9.6 26.1 22.2 1.8-6.2 7.5-10.8 14.4-10.8 8.3 0 15 6.7 15 15H4137c-.1-14.6 11.7-26.4 26.3-26.4z" class="st2"/></svg>