<svg id="Layer_1" xmlns="http://www.w3.org/2000/svg" viewBox="0 0 6232.5 2212.5"><style>.st0{fill:#ff8e66}.st1{fill:#2ee5b9}.st2{fill:#005066}</style><path class="st0" d="M662.5 1581.4c-98.5 0-196.9-37.3-271.6-112.5-149.8-149.8-149.8-393.9 0-543.7 142.8-142.8 370.5-149.3 521.3-20.5 12.6 10.7 13.1 29.9 1.4 41.5l-48.1 48.1c-10.3 10.3-26.6 10.7-37.8 1.4-46.2-38.3-104.1-58.8-164.7-58.8-69.5 0-134.9 27.1-183.9 76.1-101.7 101.7-101.7 266.5 0 368.2 49 49 114.3 76.1 183.9 76.1 60.7 0 118.1-20.5 164.3-58.3 11.2-9.3 27.5-8.9 37.8 1.4l48.1 47.1c11.7 11.7 11.7 31.3-.9 42-72 61.1-161.1 91.9-249.8 91.9z"/><path class="st1" d="M1456.3 299.3c-6.7-5.3-168.5-125.5-406-9.7-38.6 18.9-71.1 40-98.2 62-8.1-34.1-20.4-70.7-39.4-109.3C796.5 4.9 595 .4 586.4.2L555.9 0l-19 24.6c-5.3 6.7-125.5 168.5-9.7 406 33.2 68.2 73.6 117.2 114.5 152.4 10.2-.5 20.5-.8 30.8-.8 149.3 0 286.1 53.4 392.4 142 51.4-3.8 109.9-17.9 173.7-49.2 237.4-116.2 241.9-317.7 242.1-326.3l.1-30.9-24.5-18.5zM829 520.1c-2.5 6.7-5 13.3-6.7 19.4-.3 1-1 2.1-1.3 3.1C775.8 530 695.1 492 638.7 376c-56.9-116.3-37.2-202.9-19.4-245.8 44.8 12.7 125.9 50.6 182.3 166.5 48.2 98.5 41.4 175.9 27.4 223.4zm355.2 43.8c-115.9 56.8-202.9 37.2-246.4 19.1.3-1 .6-2 .7-3.5 2.1-6.1 4.6-12.8 6.7-19.4 18.2-45.9 60.1-111.1 158.7-158.9 115.9-56.8 202.9-37.2 246.3-19.5-11.7 44.7-49.3 125.2-166 182.2z"/><path class="st0" d="M672.5 1867.8c-371 0-672.5-301.5-672.5-672.5s301.5-672.5 672.5-672.5S1345 824.3 1345 1195.3s-301.9 672.5-672.5 672.5zm0-1220.8c-302.4 0-548.3 245.9-548.3 548.3s245.9 548.3 548.3 548.3 548.3-245.9 548.3-548.3S974.9 647 672.5 647z"/><path class="st2" d="M1867 568.6c-150 0-272.1 122.1-272.1 272.1 0 150 122.1 272.1 272.1 272.1s272.1-122.1 272.1-272.1c0-150.1-122.1-272.1-272.1-272.1zm0 427.7c-85.8 0-155.6-69.8-155.6-155.6s69.8-155.6 155.6-155.6 155.6 69.8 155.6 155.6-69.8 155.6-155.6 155.6zM2656.7 764.5c0-102.8-83.6-186.4-186.4-186.4h-135c-45.4 0-82.3 36.9-82.3 82.3v385.1c0 32.2 26.1 58.3 58.3 58.3 32.2 0 58.3-26.1 58.3-58.3V951h90.8c18.2 24.4 57 79.7 89.7 127.5 11.3 16.5 29.5 25.3 48.1 25.3 11.3 0 22.8-3.3 32.9-10.2 26.5-18.2 33.3-54.5 15.1-81-.3-.4-25.7-37.5-51.5-74.2-5.7-8.1-11-15.6-15.9-22.4 47.1-33.9 77.9-89.1 77.9-151.5zm-287.2-69.9h100.8c38.6 0 69.9 31.4 69.9 69.9 0 38.6-31.4 69.9-69.9 69.9h-100.8V694.6zM2631.3 1470.4c0-102.8-83.6-186.4-186.4-186.4h-135c-45.4 0-82.3 36.9-82.3 82.3v385.1c0 32.2 26.1 58.3 58.3 58.3 32.2 0 58.3-26.1 58.3-58.3v-94.5h90.8c18.2 24.4 57 79.7 89.7 127.5 11.3 16.5 29.5 25.3 48.1 25.3 11.3 0 22.8-3.3 32.9-10.2 26.5-18.2 33.3-54.5 15.1-81-.3-.4-25.7-37.5-51.5-74.1-5.7-8.1-11-15.6-15.9-22.4 47.1-34 77.9-89.3 77.9-151.6zm-287.2-69.9h100.8c38.6 0 69.9 31.4 69.9 69.9 0 38.6-31.4 69.9-69.9 69.9h-100.8v-139.8zM3109.1 983.9h-183V635.7c0-32.2-26.1-58.3-58.3-58.3s-58.3 26.1-58.3 58.3v379.1c0 47.2 38.4 85.7 85.7 85.7h213.9c32.2 0 58.3-26.1 58.3-58.3-.1-32.2-26.1-58.3-58.3-58.3zM4333.4 1096.2c22.1-8.9 36.5-30.3 36.5-54V636.4c0-32.2-26.1-58.3-58.3-58.3-32.2 0-58.3 26.1-58.3 58.3v261L3963 595.3c-16.5-17.1-41.7-22.6-63.8-13.7-22.1 8.9-36.5 30.3-36.5 54v409.8c0 32.2 26.1 58.3 58.3 58.3s58.3-26.1 58.3-58.3v-265l290.4 302.2c16.4 17.1 41.7 22.5 63.7 13.6zM4962.2 837.2c0-142.8-116.2-259-259-259h-105.6c-45.4 0-82.3 36.9-82.3 82.3V1021c0 45.4 36.9 82.3 82.3 82.3h104.6c143.4 0 260.1-116.7 260.1-260.1v-6zm-116.5 6c0 79.1-64.4 143.5-143.5 143.5h-70.3v-292h71.4c78.6 0 142.5 63.9 142.5 142.5v6zM5321.9 1112.8c150 0 272.1-122.1 272.1-272.1 0-150-122.1-272.1-272.1-272.1s-272.1 122.1-272.1 272.1c-.1 150 122 272.1 272.1 272.1zm0-427.7c85.8 0 155.6 69.8 155.6 155.6s-69.8 155.6-155.6 155.6-155.6-69.8-155.6-155.6 69.8-155.6 155.6-155.6zM4561.3 1277.8c-150 0-272.1 122.1-272.1 272.1s122.1 272.1 272.1 272.1 272.1-122.1 272.1-272.1-122-272.1-272.1-272.1zm0 427.7c-85.8 0-155.6-69.8-155.6-155.6s69.8-155.6 155.6-155.6 155.6 69.8 155.6 155.6-69.8 155.6-155.6 155.6zM3096.3 1687.7h-203.6v-83.6h136.4c32.2 0 58.3-26.1 58.3-58.3 0-32.2-26.1-58.3-58.3-58.3h-136.4v-83.6h196.7c32.2 0 58.3-26.1 58.3-58.3 0-32.2-26.1-58.3-58.3-58.3h-231c-45.4 0-82.3 36.9-82.3 82.3V1722c0 45.4 36.9 82.3 82.3 82.3h237.8c32.2 0 58.3-26.1 58.3-58.3.1-32.2-26-58.3-58.2-58.3zM4170.1 1287.4h-348.2c-32.2 0-58.3 26.1-58.3 58.3 0 32.2 26.1 58.3 58.3 58.3h118.5v353.6c0 32.2 26.1 58.3 58.3 58.3s58.3-26.1 58.3-58.3V1404h113.1c32.2 0 58.3-26.1 58.3-58.3 0-32.2-26.1-58.3-58.3-58.3zM2071.6 1627.1c-25.6-19.5-62.1-14.6-81.7 11-28.9 37.9-75.5 60.6-124.4 60.6-84.9 0-154-66.1-154-147.4s69.1-147.4 154-147.4c49.3 0 94.5 21.9 123.9 60 19.7 25.5 56.2 30.2 81.7 10.5s30.2-56.3 10.5-81.7c-51.7-66.9-130.5-105.3-216.2-105.3-149.2 0-270.5 118.4-270.5 263.9 0 145.5 121.4 263.9 270.5 263.9 85.1 0 166.2-39.8 217.1-106.4 19.6-25.6 14.6-62.2-10.9-81.7zM5843 1635.2c-4.2-37.2-23.5-89.1-91.3-125-38.2-20.2-80.6-29.9-114.6-37.7-12.6-2.9-30-6.8-35-9.1-26.2-12.3-23.9-32.7-17.4-47.7 1.2-2.5 10.1-14 28.9-19.4 27.5-7.9 61.8.7 99.2 25 27 17.5 63.1 9.8 80.6-17.3 17.5-27 9.8-63.1-17.3-80.6-85.2-55.1-154.1-51.3-196.9-38.5-45.8 13.8-84.6 45.9-101.2 84-34.7 79.2-3.3 163.3 74.6 199.9 15.9 7.5 35.7 12 58.7 17.3 59 13.5 112.3 28.4 116.1 62.2 2.7 23.9-18.3 41.1-38.9 49.2-59.6 23.6-113-11.3-140.6-48.3-19.2-25.8-55.7-31.1-81.5-11.9-25.8 19.2-31.1 55.7-11.9 81.5 54.5 73.1 128 102.3 195.2 102.3 29.1 0 57.1-5.5 81.7-15.2 76-30.2 119.9-97.2 111.6-170.7zM5345.6 1473.8c0-102.8-83.6-186.4-186.4-186.4h-135c-45.4 0-82.3 36.9-82.3 82.3v385.1c0 32.2 26.1 58.3 58.3 58.3 32.2 0 58.3-26.1 58.3-58.3v-94.5h90.8c18.2 24.4 57 79.7 89.8 127.5 11.3 16.5 29.5 25.3 48.1 25.3 11.3 0 22.8-3.3 32.9-10.2 26.5-18.2 33.3-54.5 15.1-81-.3-.4-25.7-37.5-51.5-74.1-5.7-8.1-11-15.6-15.9-22.4 47-34 77.8-89.2 77.8-151.6zm-287.2-69.9h100.8c38.6 0 69.9 31.4 69.9 69.9 0 38.6-31.4 69.9-69.9 69.9h-100.8v-139.8zM3556.1 1306.6c-4.9-10.9-13.7-20.3-25.4-25.7-25.9-12-56.7-.8-68.7 25.1l-196.8 423.6c-.2.4-.5 1.1-.7 1.6-12.7 29.6 1 63.8 30.6 76.5 29.6 12.7 63.8-1 76.5-30.6l20.4-47.6h228l19.5 47c.2.4.5 1.1.7 1.6 13.2 29.4 47.7 42.5 77 29.3 29.4-13.2 42.5-47.7 29.3-77l-190.4-423.8zm-117 313.3l68.9-160.6 66.5 160.6h-135.4zM3288.4 1107.6c29.6 12.7 63.8-1 76.5-30.6l20.4-47.6h228l19.5 47c.2.4.5 1.1.7 1.6 13.2 29.4 47.7 42.5 77 29.3 29.4-13.2 42.5-47.7 29.3-77l-190.4-423.7c-4.9-10.9-13.7-20.3-25.4-25.7-25.9-12-56.7-.8-68.7 25.1l-196.8 423.6c-.2.4-.5 1.1-.7 1.6-12.7 29.5 1 63.7 30.6 76.4zm279.5-187.8h-135.5l68.9-160.6 66.6 160.6z"/></svg>