<svg width="118px" height="130px" viewBox="129 60 118 130" version="1.1" xmlns="http://www.w3.org/2000/svg" xmlns:xlink="http://www.w3.org/1999/xlink">
    <!-- Generator: Sketch 40.3 (33839) - http://www.bohemiancoding.com/sketch -->
    <desc>Created with Sketch.</desc>
    <defs>
        <polygon id="path-1" points="80.8659598 73.9655172 0 73.9655172 0 0.777739943 80.8659598 0.777739943"></polygon>
        <polygon id="path-3" points="63.4517781 0.267097701 0.192100667 0.267097701 0.192100667 11.1560546 63.4517781 11.1560546 63.4517781 0.267097701"></polygon>
        <polygon id="path-5" points="28.932531 0.268965517 0.336874299 0.268965517 0.336874299 26.7393052 28.932531 26.7393052 28.932531 0.268965517"></polygon>
    </defs>
    <g id="Camera" stroke="none" stroke-width="1" fill="none" fill-rule="evenodd" transform="translate(129.224138, 60.000000)">
        <g id="Group-3" transform="translate(0.000000, 54.913793)">
            <mask id="mask-2" fill="white">
                <use xlink:href="#path-1"></use>
            </mask>
            <g id="Clip-2"></g>
            <path d="M63.6480287,12.0281566 L59.8931437,0.777739943 L35.0815345,0.777739943 C33.4012759,0.777739943 31.9098103,1.84980412 31.3811897,3.43495738 L28.5115345,12.0281566 L11.7026552,12.0281566 C5.23963793,12.0281566 -0.00041954023,17.2383051 -0.00041954023,23.664433 L-0.00041954023,62.329658 C-0.00041954023,68.7557859 5.23963793,73.9659344 11.7026552,73.9659344 L80.8659598,73.9659344 L80.8659598,12.0281566 L63.6480287,12.0281566 Z" id="Fill-1" fill="#0EA7C7" mask="url(#mask-2)"></path>
        </g>
        <path d="M40.3448276,44.8275862 L43.2369713,56.6369826 C43.6495239,58.2831934 44.8102291,59.3965517 46.1184271,59.3965517 L63.2468436,59.3965517 C64.5550417,59.3965517 65.7157468,58.2831934 66.1282994,56.6369826 L68.362069,47.7127872 L40.3448276,44.8275862 Z" id="Fill-4" fill="#005066"></path>
        <path d="M40.0418403,11.2162223 C36.3732186,11.4041379 33.6206897,14.6404617 33.6206897,18.2505286 L33.6206897,44.0137536 C33.6206897,46.3188513 35.5251421,48.1896552 37.8716997,48.1896552 L68.362069,48.1896552 L47.1920391,17.8726095 C47.1920391,14.072539 43.954895,11.0157791 40.0418403,11.2162223" id="Fill-6" fill="#005066"></path>
        <g id="Group-10" transform="translate(39.224138, 0.000000)">
            <mask id="mask-4" fill="white">
                <use xlink:href="#path-3"></use>
            </mask>
            <g id="Clip-9"></g>
            <path d="M63.4517781,11.1560546 L0.192100667,11.1560546 L0.192100667,10.0465718 L7.99210067,2.42401437 L8.97758454,1.45835345 C9.56468131,0.883066092 10.2985523,0.513238506 11.053391,0.369416667 C11.3469394,0.307778736 11.6404878,0.266686782 11.9340362,0.266686782 L50.5985523,0.266686782 C50.8921007,0.266686782 51.1856491,0.307778736 51.4791974,0.369416667 C51.6679071,0.410508621 51.8356491,0.451600575 52.0243587,0.513238506 C52.56952,0.698152299 53.1146813,1.02688793 53.5550039,1.45835345 L63.4517781,11.1560546 Z" id="Fill-8" fill="#FFFFFF" mask="url(#mask-4)"></path>
        </g>
        <g id="Group-19" transform="translate(34.741379, 0.000000)">
            <mask id="mask-6" fill="white">
                <use xlink:href="#path-5"></use>
            </mask>
            <g id="Clip-18"></g>
            <path d="M28.932531,11.234069 L16.1088529,23.9168276 C12.7617264,27.2271724 7.32264598,27.7651034 3.66172644,24.7857931 C-0.543101149,21.3513103 -0.752296552,15.2064828 2.99230115,11.4823448 L4.3729908,10.1168276 L12.1550598,2.44096552 L13.1382782,1.46855172 C13.7240253,0.889241379 14.4562092,0.516827586 15.2093126,0.372 C15.5021862,0.309931034 15.7950598,0.268551724 16.0879333,0.268551724 C16.4017264,0.268551724 16.6946,0.309931034 16.9874736,0.372 C17.740577,0.516827586 18.4727609,0.889241379 19.058508,1.46855172 L28.932531,11.234069 Z" id="Fill-17" fill="#005066" mask="url(#mask-6)"></path>
        </g>
        <path d="M49.3103448,19.0517241 C49.3103448,22.7655885 46.3000713,25.7758621 42.5862069,25.7758621 C38.8723425,25.7758621 35.862069,22.7655885 35.862069,19.0517241 C35.862069,15.3378597 38.8723425,12.3275862 42.5862069,12.3275862 C46.3000713,12.3275862 49.3103448,15.3378597 49.3103448,19.0517241 L49.3103448,19.0517241 Z" id="Stroke-20" stroke="#0EA7C7" stroke-width="0.653"></path>
        <path d="M51.5517241,47.0689655 L54.021296,56.4838774 C54.4774455,58.2232773 55.7631505,59.3965517 57.2100989,59.3965517 L76.15197,59.3965517 C77.5989185,59.3965517 78.8846235,58.2232773 79.3407729,56.4838774 L81.8103448,47.0689655 L51.5517241,47.0689655 Z" id="Fill-22" fill="#0EA7C7"></path>
        <path d="M50.4310345,24.6551724 L89.6551724,24.6551724 L89.6551724,44.034189 C89.6551724,46.3300841 87.7576748,48.1896552 85.4149543,48.1896552 L54.6712526,48.1896552 C52.3285321,48.1896552 50.4310345,46.3300841 50.4310345,44.034189 L50.4310345,24.6551724 Z" id="Fill-24" fill="#FFFFFF"></path>
        <path d="M104.841716,67.4043887 L87.9305238,67.4043887 L85.0591684,58.7199222 C84.5302346,57.1179332 83.0357864,56.0344828 81.3545323,56.0344828 L59.3471045,56.0344828 C57.6658504,56.0344828 56.1735012,57.1179332 55.6424684,58.7199222 L52.7732119,67.4043887 L31.8824223,67.4043887 C25.4134769,67.4043887 20.1724138,72.6698735 20.1724138,79.1642525 L20.1724138,118.240136 C20.1724138,124.734515 25.4134769,130 31.8824223,130 L104.841716,130 C111.308562,130 116.551724,124.734515 116.551724,118.240136 L116.551724,79.1642525 C116.551724,72.6698735 111.308562,67.4043887 104.841716,67.4043887" id="Fill-26" fill="#FFFFFF"></path>
        <polygon id="Fill-29" fill="#005066" points="21.2931034 67.2413793 35.862069 67.2413793 35.862069 62.7586207 21.2931034 62.7586207"></polygon>
        <path d="M78.4482759,76.2068966 L60.9073045,76.2068966 C48.9335766,76.2068966 39.2241379,85.9904915 39.2241379,98.0603448 C39.2241379,110.130198 48.9335766,119.913793 60.9073045,119.913793 L78.4482759,119.913793 L78.4482759,76.2068966 Z" id="Fill-31" fill="#005066"></path>
        <path d="M100.862069,98.0603448 C100.862069,110.130198 91.078474,119.913793 79.0086207,119.913793 C66.9387673,119.913793 57.1551724,110.130198 57.1551724,98.0603448 C57.1551724,85.9904915 66.9387673,76.2068966 79.0086207,76.2068966 C91.078474,76.2068966 100.862069,85.9904915 100.862069,98.0603448" id="Fill-32" fill="#0EA7C7"></path>
        <path d="M93.0172414,98.0603448 C93.0172414,105.797507 86.7457827,112.068966 79.0086207,112.068966 C71.2714587,112.068966 65,105.797507 65,98.0603448 C65,90.3231828 71.2714587,84.0517241 79.0086207,84.0517241 C86.7457827,84.0517241 93.0172414,90.3231828 93.0172414,98.0603448" id="Fill-33" fill="#005066"></path>
        <path d="M89.5402855,88.4195958 C94.1812846,88.1573067 95.2586207,86.8545321 95.2586207,86.8545321 C95.2586207,86.8545321 94.1812846,85.5517575 89.5402855,85.2894684 C89.2779964,80.6484693 87.9752218,79.5689655 87.9752218,79.5689655 C87.9752218,79.5689655 86.6724471,80.6484693 86.4101581,85.2894684 C81.7691589,85.5517575 80.6896552,86.8545321 80.6896552,86.8545321 C80.6896552,86.8545321 81.7691589,88.1573067 86.4101581,88.4195958 C86.6724471,93.0605949 87.9752218,94.137931 87.9752218,94.137931 C87.9752218,94.137931 89.2779964,93.0605949 89.5402855,88.4195958" id="Fill-34" fill="#FFFFFF"></path>
        <path d="M81.8103448,94.6982759 C81.8103448,96.8637957 80.0549832,98.6206897 77.8869438,98.6206897 C75.7208789,98.6206897 73.9655172,96.8637957 73.9655172,94.6982759 C73.9655172,92.532756 75.7208789,90.7758621 77.8869438,90.7758621 C80.0549832,90.7758621 81.8103448,92.532756 81.8103448,94.6982759" id="Fill-35" fill="#FFFFFF"></path>
        <path d="M86.2931034,103.103448 C86.2931034,104.341348 85.2896235,105.344828 84.0517241,105.344828 C82.8138247,105.344828 81.8103448,104.341348 81.8103448,103.103448 C81.8103448,101.865549 82.8138247,100.862069 84.0517241,100.862069 C85.2896235,100.862069 86.2931034,101.865549 86.2931034,103.103448" id="Fill-36" fill="#FFFFFF"></path>
        <polygon id="Fill-37" fill="#0EA7C7" points="63.6316556 11.2068966 50.4310345 24.6551724 88.9340601 24.6551724 101.982759 11.2068966"></polygon>
    </g>
</svg>
