<svg id="Layer_1" xmlns="http://www.w3.org/2000/svg" viewBox="0 0 512 512"><style>.st0{fill:none}.st1,.st2{fill-rule:evenodd;clip-rule:evenodd;fill:#00abf0}.st2{fill:#fff}</style><path class="st0" d="M-1986.6-16650.2h7168V4572.2h-7168z"/><circle class="st1" cx="256" cy="256" r="256"/><path class="st2" d="M358.4 192.6c-7.5 3.3-15.6 5.6-24.1 6.6 8.7-5.2 15.3-13.4 18.5-23.2-8.1 4.8-17.1 8.3-26.7 10.2-7.7-8.2-18.6-13.3-30.7-13.3-23.2 0-42 18.8-42 42 0 3.3.4 6.5 1.1 9.6-34.9-1.7-65.9-18.5-86.6-43.8-3.6 6.2-5.7 13.4-5.7 21.1 0 14.6 7.4 27.4 18.7 34.9-6.9-.2-13.4-2.1-19-5.2v.5c0 20.3 14.5 37.3 33.7 41.1-3.5 1-7.2 1.5-11.1 1.5-2.7 0-5.3-.3-7.9-.8 5.3 16.7 20.9 28.8 39.3 29.1-14.4 11.3-32.5 18-52.2 18-3.4 0-6.7-.2-10-.6 18.6 11.9 40.7 18.9 64.4 18.9 77.3 0 119.5-63.9 119.5-119.4 0-1.8 0-3.6-.1-5.4 8.1-6 15.3-13.4 20.9-21.8z"/></svg>