<svg id="Layer_1" xmlns="http://www.w3.org/2000/svg" viewBox="0 0 512 512"><style>.st0,.st1{fill-rule:evenodd;clip-rule:evenodd;fill:#643da7}.st1{fill:#fff}.st2{fill:none}</style><circle class="st0" cx="256" cy="256" r="256"/><path class="st1" d="M254.1 128C184.5 128 128 184.6 128 254.1s56.6 126.1 126.1 126.1 126.1-56.5 126.1-126.1S323.6 128 254.1 128zm95.7 73.4h-47c-13.6-34.9-36.5-54.9-37.9-56.1 36.7 3.6 68 25.3 84.9 56.1zM296 254.1c0 13.2-2.1 25.2-5.2 35.9h-73.5c-3.1-10.7-5.2-22.7-5.2-35.9s2.1-25.2 5.2-35.9h73.5c3.2 10.7 5.2 22.6 5.2 35.9zm-41.9-96s18.2 15.5 30.6 43.3h-61.2c12.4-27.8 30.6-43.3 30.6-43.3zm-10.9-12.8c-1.4 1.2-24.3 21.2-37.9 56.1h-47c16.9-30.8 48.3-52.5 84.9-56.1zm-98.4 108.8c0-12.6 2.2-24.6 6.2-35.9h49c-2.8 10.9-4.5 22.9-4.5 35.9s1.7 25 4.5 35.9h-49c-4-11.3-6.2-23.3-6.2-35.9zm13.5 52.6h47c13.6 34.9 36.5 54.9 37.9 56.1-36.6-3.6-68-25.3-84.9-56.1zm95.8 43.4s-18.2-15.5-30.6-43.3h61.2c-12.5 27.7-30.6 43.3-30.6 43.3zm10.8 12.7c1.4-1.2 24.3-21.2 37.9-56.1h47c-16.9 30.8-48.2 52.5-84.9 56.1zm43.4-72.8c2.8-10.9 4.5-22.9 4.5-35.9s-1.7-25-4.5-35.9h49c3.9 11.3 6.2 23.3 6.2 35.9 0 12.6-2.2 24.6-6.2 35.9h-49z"/><path class="st2" d="M-1986.6-16153.6h7168V3563.5h-7168z"/></svg>