<svg xmlns="http://www.w3.org/2000/svg" xmlns:xlink="http://www.w3.org/1999/xlink" width="143" height="137" version="1.1" viewBox="122 57 143 137"><desc>Created with Sketch.</desc><defs><polygon id="path-1" points="0 135.496 141.819 135.496 141.819 .3 0 .3"/></defs><g id="Page-1" fill="none" fill-rule="evenodd" stroke="none" stroke-width="1" transform="translate(122.500000, 57.251908)"><polygon id="Fill-1" fill="#FB7A54" points="108.397 134.412 121.405 134.412 121.405 0 108.397 0"/><polygon id="Fill-2" fill="#F99A1C" points="0 134.412 108.397 134.412 108.397 0 0 0"/><polygon id="Fill-3" fill="#FFF" points="13.008 121.405 94.305 121.405 94.305 14.092 13.008 14.092"/><polygon id="Fill-4" fill="#005066" points="27.099 91.053 41.191 91.053 41.191 76.962 27.099 76.962"/><polygon id="Fill-5" fill="#68CADE" points="27.099 106.229 41.191 106.229 41.191 92.137 27.099 92.137"/><polygon id="Fill-6" fill="#68CADE" points="27.099 75.878 34.145 62.87 41.191 75.878"/><polygon id="Fill-7" fill="#F99A1C" points="66.122 91.053 80.214 91.053 80.214 76.962 66.122 76.962"/><polygon id="Fill-8" fill="#FB7A54" points="66.122 106.229 80.214 106.229 80.214 92.137 66.122 92.137"/><polygon id="Fill-9" fill="#68CADE" points="66.122 75.878 73.168 62.87 80.214 75.878"/><polygon id="Fill-10" fill="#68CADE" points="42.275 50.947 53.656 30.351 65.038 50.947"/><polygon id="Fill-11" fill="#0EA7C7" points="42.275 107.313 65.038 107.313 65.038 76.962 42.275 76.962"/><g id="Group-24"><path id="Fill-12" fill="#FFF" d="M59.3495531,110.59992 L48.7753988,110.59992 L48.7753988,96.0351359 C48.7753988,93.1099379 51.1426273,90.7389658 54.0626866,90.7389658 C56.9823246,90.7389658 59.3495531,93.1099379 59.3495531,96.0351359 L59.3495531,110.59992 L59.3495531,110.59992 Z"/><mask id="mask-2" fill="#fff"><use xlink:href="#path-1"/></mask><polygon id="Fill-14" fill="#FB7A54" points="42.784 75.805 65.341 75.805 65.341 64.694 42.784 64.694" mask="url(#mask-2)"/><polygon id="Fill-16" fill="#005066" points="42.784 63.606 65.341 63.606 65.341 52.494 42.784 52.494" mask="url(#mask-2)"/><polygon id="Fill-17" fill="#0EA7C7" points="39.028 62.288 34.223 62.288 34.223 57.474 39.028 57.474 36.878 59.881" mask="url(#mask-2)"/><polygon id="Fill-18" fill="#0EA7C7" points="58.701 29.517 53.896 29.517 53.896 24.703 58.701 24.703 56.552 27.109" mask="url(#mask-2)"/><polygon id="Fill-19" fill="#0EA7C7" points="76.341 113.415 131.123 102.273 134.174 135.388 78.374 135.491" mask="url(#mask-2)"/><polygon id="Fill-20" fill="#68CADE" points="70.953 117.97 76.341 113.42 78.375 135.496 72.247 132.012" mask="url(#mask-2)"/><polygon id="Fill-21" fill="#005066" points="70.213 121.008 70.964 129.161 68.96 129.346 68.209 121.193" mask="url(#mask-2)"/><polygon id="Fill-22" fill="#005066" points="67.834 121.228 68.585 129.381 66.581 129.566 65.83 121.413" mask="url(#mask-2)"/><polygon id="Fill-23" fill="#005066" points="138.768 101.566 141.819 134.682 135.39 135.276 132.339 102.161" mask="url(#mask-2)"/></g><path id="Fill-25" fill="#F99A1C" d="M83.4656489,34.1450382 C83.4656489,37.4378085 80.7965871,40.1068702 77.5038168,40.1068702 C74.2110465,40.1068702 71.5419847,37.4378085 71.5419847,34.1450382 C71.5419847,30.8522679 74.2110465,28.1832061 77.5038168,28.1832061 C80.7965871,28.1832061 83.4656489,30.8522679 83.4656489,34.1450382"/><polygon id="Fill-27" fill="#0EA7C7" points="78.046 61.786 73.71 61.786 73.71 57.45 78.046 57.45 76.106 59.618"/><path id="Fill-28" fill="#0EA7C7" d="M34.6870229,41.1278391 C34.6870229,39.9655176 33.674884,39.0229008 32.4258798,39.0229008 C31.1773039,39.0229008 30.1651651,39.9655176 30.1651651,41.1278391 C30.1651651,41.1661179 30.16902,41.2032006 30.1711616,41.240682 C29.8824686,41.1697066 29.5800691,41.1278391 29.2673897,41.1278391 C28.954282,41.1278391 28.6523108,41.1697066 28.3631895,41.240682 C28.3653311,41.2032006 28.3691861,41.1661179 28.3691861,41.1278391 C28.3691861,39.9655176 27.3570472,39.0229008 26.1084713,39.0229008 C24.8594671,39.0229008 23.8473282,39.9655176 23.8473282,41.1278391 C23.8473282,42.2502868 24.7917913,43.1645932 25.9808296,43.2263976 C25.8274882,43.5944328 25.7401093,43.9931709 25.7401093,44.4110484 C25.7401093,46.2245092 27.3193544,47.6946565 29.2673897,47.6946565 C31.2149968,47.6946565 32.7942418,46.2245092 32.7942418,44.4110484 C32.7942418,43.9931709 32.7068629,43.5944328 32.5539499,43.2263976 C33.7425598,43.1645932 34.6870229,42.2502868 34.6870229,41.1278391"/></g></svg>