<svg width="143px" height="137px" viewBox="122 57 143 137" version="1.1" xmlns="http://www.w3.org/2000/svg" xmlns:xlink="http://www.w3.org/1999/xlink">
    <!-- Generator: Sketch 40.3 (33839) - http://www.bohemiancoding.com/sketch -->
    <desc>Created with Sketch.</desc>
    <defs>
        <polygon id="path-1" points="0 135.496183 141.819234 135.496183 141.819234 0.300117714 0 0.300117714"></polygon>
    </defs>
    <g id="Page-1" stroke="none" stroke-width="1" fill="none" fill-rule="evenodd" transform="translate(122.500000, 57.251908)">
        <polygon id="Fill-1" fill="#FB7A54" points="108.396947 134.412214 121.40458 134.412214 121.40458 0 108.396947 0"></polygon>
        <polygon id="Fill-2" fill="#F99A1C" points="0 134.412214 108.396947 134.412214 108.396947 0 0 0"></polygon>
        <polygon id="Fill-3" fill="#FFFFFF" points="13.0076336 121.40458 94.3053435 121.40458 94.3053435 14.0916031 13.0076336 14.0916031"></polygon>
        <polygon id="Fill-4" fill="#005066" points="27.0992366 91.0534351 41.1908397 91.0534351 41.1908397 76.9618321 27.0992366 76.9618321"></polygon>
        <polygon id="Fill-5" fill="#68CADE" points="27.0992366 106.229008 41.1908397 106.229008 41.1908397 92.1374046 27.0992366 92.1374046"></polygon>
        <polygon id="Fill-6" fill="#68CADE" points="27.0992366 75.8778626 34.1452434 62.870229 41.1908397 75.8778626"></polygon>
        <polygon id="Fill-7" fill="#F99A1C" points="66.1221374 91.0534351 80.2137405 91.0534351 80.2137405 76.9618321 66.1221374 76.9618321"></polygon>
        <polygon id="Fill-8" fill="#FB7A54" points="66.1221374 106.229008 80.2137405 106.229008 80.2137405 92.1374046 66.1221374 92.1374046"></polygon>
        <polygon id="Fill-9" fill="#68CADE" points="66.1221374 75.8778626 73.1681441 62.870229 80.2137405 75.8778626"></polygon>
        <polygon id="Fill-10" fill="#68CADE" points="42.2748092 50.9465649 53.6564885 30.351145 65.0381679 50.9465649"></polygon>
        <polygon id="Fill-11" fill="#0EA7C7" points="42.2748092 107.312977 65.0381679 107.312977 65.0381679 76.9618321 42.2748092 76.9618321"></polygon>
        <g id="Group-24">
            <path d="M59.3495531,110.59992 L48.7753988,110.59992 L48.7753988,96.0351359 C48.7753988,93.1099379 51.1426273,90.7389658 54.0626866,90.7389658 C56.9823246,90.7389658 59.3495531,93.1099379 59.3495531,96.0351359 L59.3495531,110.59992 L59.3495531,110.59992 Z" id="Fill-12" fill="#FFFFFF"></path>
            <mask id="mask-2" fill="white">
                <use xlink:href="#path-1"></use>
            </mask>
            <g id="Clip-15"></g>
            <polygon id="Fill-14" fill="#FB7A54" mask="url(#mask-2)" points="42.7837151 75.8052603 65.3410682 75.8052603 65.3410682 64.6941511 42.7837151 64.6941511"></polygon>
            <polygon id="Fill-16" fill="#005066" mask="url(#mask-2)" points="42.7837151 63.6055385 65.3410682 63.6055385 65.3410682 52.4944294 42.7837151 52.4944294"></polygon>
            <polygon id="Fill-17" fill="#0EA7C7" mask="url(#mask-2)" points="39.0282997 62.2878487 34.222632 62.2878487 34.222632 57.4737242 39.0282997 57.4737242 36.8784955 59.8805754"></polygon>
            <polygon id="Fill-18" fill="#0EA7C7" mask="url(#mask-2)" points="58.7014095 29.5167249 53.8957418 29.5167249 53.8957418 24.7026004 58.7014095 24.7026004 56.5516053 27.1094516"></polygon>
            <polygon id="Fill-19" fill="#0EA7C7" mask="url(#mask-2)" points="76.3405062 113.415244 131.123011 102.273321 134.174115 135.388419 78.374435 135.490991"></polygon>
            <polygon id="Fill-20" fill="#68CADE" mask="url(#mask-2)" points="70.9531021 117.9699 76.3410961 113.420436 78.3750249 135.496183 72.2466926 132.011694"></polygon>
            <polygon id="Fill-21" fill="#005066" mask="url(#mask-2)" points="70.2125953 121.007842 70.963889 129.160829 68.9602985 129.346134 68.2094261 121.193147"></polygon>
            <polygon id="Fill-22" fill="#005066" mask="url(#mask-2)" points="67.8336107 121.227802 68.5849045 129.380789 66.5813139 129.566094 65.8304415 121.413107"></polygon>
            <polygon id="Fill-23" fill="#005066" mask="url(#mask-2)" points="138.768257 101.566208 141.819361 134.681729 135.390174 135.276055 132.33907 102.160534"></polygon>
        </g>
        <path d="M83.4656489,34.1450382 C83.4656489,37.4378085 80.7965871,40.1068702 77.5038168,40.1068702 C74.2110465,40.1068702 71.5419847,37.4378085 71.5419847,34.1450382 C71.5419847,30.8522679 74.2110465,28.1832061 77.5038168,28.1832061 C80.7965871,28.1832061 83.4656489,30.8522679 83.4656489,34.1450382" id="Fill-25" fill="#F99A1C"></path>
        <polygon id="Fill-27" fill="#0EA7C7" points="78.0458015 61.7862595 73.7099237 61.7862595 73.7099237 57.4503817 78.0458015 57.4503817 76.1061567 59.6181305"></polygon>
        <path d="M34.6870229,41.1278391 C34.6870229,39.9655176 33.674884,39.0229008 32.4258798,39.0229008 C31.1773039,39.0229008 30.1651651,39.9655176 30.1651651,41.1278391 C30.1651651,41.1661179 30.16902,41.2032006 30.1711616,41.240682 C29.8824686,41.1697066 29.5800691,41.1278391 29.2673897,41.1278391 C28.954282,41.1278391 28.6523108,41.1697066 28.3631895,41.240682 C28.3653311,41.2032006 28.3691861,41.1661179 28.3691861,41.1278391 C28.3691861,39.9655176 27.3570472,39.0229008 26.1084713,39.0229008 C24.8594671,39.0229008 23.8473282,39.9655176 23.8473282,41.1278391 C23.8473282,42.2502868 24.7917913,43.1645932 25.9808296,43.2263976 C25.8274882,43.5944328 25.7401093,43.9931709 25.7401093,44.4110484 C25.7401093,46.2245092 27.3193544,47.6946565 29.2673897,47.6946565 C31.2149968,47.6946565 32.7942418,46.2245092 32.7942418,44.4110484 C32.7942418,43.9931709 32.7068629,43.5944328 32.5539499,43.2263976 C33.7425598,43.1645932 34.6870229,42.2502868 34.6870229,41.1278391" id="Fill-28" fill="#0EA7C7"></path>
    </g>
</svg>
